<svg width="160" height="180" viewBox="0 0 160 180" fill="none" xmlns="http://www.w3.org/2000/svg">
<rect width="160" height="180" rx="25" fill="white"/>
<path d="M119.71 126.098C119.701 126.099 119.693 126.099 119.684 126.098H80.9831C80.641 126.098 80.3129 125.957 80.071 125.706C79.8291 125.456 79.6932 125.116 79.6932 124.762V100.734C79.6932 100.38 79.8291 100.041 80.071 99.7901C80.3129 99.5397 80.641 99.399 80.9831 99.399H119.676C120.018 99.399 120.346 99.5397 120.588 99.7901C120.83 100.041 120.966 100.38 120.966 100.734L120.974 124.495C121.012 124.689 121.008 124.89 120.962 125.082C120.917 125.274 120.83 125.453 120.709 125.607C120.588 125.76 120.436 125.884 120.263 125.969C120.09 126.054 119.901 126.098 119.71 126.098ZM82.273 123.427H118.394L118.386 102.07H82.273V123.427Z" fill="url(#paint0_linear_2058_9)"/>
<path d="M100.33 119.421C96.7733 119.421 93.88 116.426 93.88 112.744C93.88 109.063 96.7733 106.068 100.33 106.068C103.885 106.068 106.777 109.063 106.777 112.744C106.777 116.426 103.885 119.421 100.33 119.421ZM100.33 108.738C98.1961 108.738 96.4598 110.536 96.4598 112.744C96.4598 114.953 98.1961 116.75 100.33 116.75C102.462 116.75 104.197 114.953 104.197 112.744C104.197 110.536 102.462 108.738 100.33 108.738ZM119.676 106.065C118.31 106.063 117 105.5 116.035 104.5C115.069 103.499 114.526 102.143 114.524 100.729C114.524 100.375 114.66 100.035 114.902 99.7848C115.144 99.5344 115.472 99.3937 115.814 99.3937C116.156 99.3937 116.484 99.5344 116.726 99.7848C116.968 100.035 117.104 100.375 117.104 100.729C117.104 102.199 118.259 103.394 119.676 103.394C120.018 103.394 120.346 103.535 120.588 103.785C120.83 104.036 120.966 104.375 120.966 104.73C120.966 105.084 120.83 105.423 120.588 105.674C120.346 105.924 120.018 106.065 119.676 106.065ZM115.814 126.098C115.472 126.098 115.144 125.957 114.902 125.706C114.66 125.456 114.524 125.116 114.524 124.762C114.526 123.348 115.069 121.992 116.035 120.992C117 119.991 118.31 119.428 119.676 119.426C120.018 119.426 120.346 119.567 120.588 119.817C120.83 120.068 120.966 120.407 120.966 120.762C120.966 121.116 120.83 121.455 120.588 121.706C120.346 121.956 120.018 122.097 119.676 122.097C118.257 122.097 117.104 123.293 117.104 124.762C117.104 125.116 116.968 125.456 116.726 125.706C116.484 125.957 116.156 126.098 115.814 126.098ZM84.8503 126.098C84.5082 126.098 84.1801 125.957 83.9382 125.706C83.6963 125.456 83.5604 125.116 83.5604 124.762C83.5597 124.056 83.2882 123.378 82.8055 122.878C82.3228 122.379 81.6683 122.098 80.9857 122.097C80.6436 122.097 80.3155 121.956 80.0736 121.706C79.8316 121.455 79.6957 121.116 79.6957 120.762C79.6957 120.407 79.8316 120.068 80.0736 119.817C80.3155 119.567 80.6436 119.426 80.9857 119.426C82.3522 119.428 83.6624 119.991 84.6287 120.991C85.595 121.991 86.1386 123.348 86.1403 124.762C86.1403 125.116 86.0044 125.456 85.7625 125.706C85.5206 125.957 85.1925 126.098 84.8503 126.098ZM80.9805 106.07C80.6384 106.07 80.3103 105.93 80.0684 105.679C79.8265 105.429 79.6906 105.089 79.6906 104.735C79.6906 104.381 79.8265 104.041 80.0684 103.791C80.3103 103.54 80.6384 103.4 80.9805 103.4C81.6649 103.399 82.3212 103.118 82.8053 102.617C83.2895 102.117 83.562 101.437 83.563 100.729C83.563 100.375 83.6989 100.035 83.9408 99.7848C84.1827 99.5344 84.5108 99.3937 84.8529 99.3937C85.195 99.3937 85.5231 99.5344 85.7651 99.7848C86.007 100.035 86.1429 100.375 86.1429 100.729C86.1429 103.675 83.8274 106.07 80.9805 106.07Z" fill="url(#paint1_linear_2058_9)"/>
<path d="M80.9831 134.116C80.641 134.116 80.3129 133.976 80.071 133.725C79.8291 133.475 79.6932 133.135 79.6932 132.781V124.762C79.6932 124.408 79.8291 124.068 80.071 123.818C80.3129 123.568 80.641 123.427 80.9831 123.427C81.3252 123.427 81.6533 123.568 81.8952 123.818C82.1371 124.068 82.273 124.408 82.273 124.762V132.781C82.273 133.135 82.1371 133.475 81.8952 133.725C81.6533 133.976 81.3252 134.116 80.9831 134.116Z" fill="url(#paint2_linear_2058_9)"/>
<path d="M119.684 130.106H80.9831C80.641 130.106 80.3129 129.966 80.071 129.715C79.8291 129.465 79.6932 129.125 79.6932 128.771C79.6932 128.417 79.8291 128.077 80.071 127.827C80.3129 127.576 80.641 127.436 80.9831 127.436H119.684C120.026 127.436 120.354 127.576 120.596 127.827C120.838 128.077 120.974 128.417 120.974 128.771C120.974 129.125 120.838 129.465 120.596 129.715C120.354 129.966 120.026 130.106 119.684 130.106ZM119.684 134.112H80.9831C80.641 134.112 80.3129 133.971 80.071 133.721C79.8291 133.471 79.6932 133.131 79.6932 132.777C79.6932 132.423 79.8291 132.083 80.071 131.833C80.3129 131.582 80.641 131.442 80.9831 131.442H119.684C120.026 131.442 120.354 131.582 120.596 131.833C120.838 132.083 120.974 132.423 120.974 132.777C120.974 133.131 120.838 133.471 120.596 133.721C120.354 133.971 120.026 134.112 119.684 134.112Z" fill="url(#paint3_linear_2058_9)"/>
<path d="M119.684 134.116C119.342 134.116 119.014 133.976 118.772 133.725C118.53 133.475 118.394 133.135 118.394 132.781V124.762C118.394 124.408 118.53 124.068 118.772 123.818C119.014 123.568 119.342 123.427 119.684 123.427C120.026 123.427 120.354 123.568 120.596 123.818C120.838 124.068 120.974 124.408 120.974 124.762V132.781C120.974 133.135 120.838 133.475 120.596 133.725C120.354 133.976 120.026 134.116 119.684 134.116ZM100.332 98.065C99.9901 98.065 99.662 97.9243 99.4201 97.6739C99.1782 97.4235 99.0423 97.0839 99.0423 96.7297V78.0351C99.0423 77.681 99.1782 77.3413 99.4201 77.0909C99.662 76.8405 99.9901 76.6998 100.332 76.6998C100.674 76.6998 101.002 76.8405 101.244 77.0909C101.486 77.3413 101.622 77.681 101.622 78.0351V96.7297C101.622 97.0839 101.486 97.4235 101.244 97.6739C101.002 97.9243 100.674 98.065 100.332 98.065Z" fill="url(#paint4_linear_2058_9)"/>
<path d="M100.332 79.3705H83.5656C83.2235 79.3705 82.8953 79.2298 82.6534 78.9793C82.4115 78.7289 82.2756 78.3893 82.2756 78.0351C82.2756 77.681 82.4115 77.3413 82.6534 77.0909C82.8953 76.8405 83.2235 76.6998 83.5656 76.6998H100.332C100.674 76.6998 101.002 76.8405 101.244 77.0909C101.486 77.3413 101.622 77.681 101.622 78.0351C101.622 78.3893 101.486 78.7289 101.244 78.9793C101.002 79.2298 100.674 79.3705 100.332 79.3705Z" fill="url(#paint5_linear_2058_9)"/>
<path d="M86.1455 82.0438C85.976 82.044 85.8083 82.0095 85.6518 81.9423C85.4952 81.8752 85.3531 81.7767 85.2335 81.6525L82.6534 78.9793C82.4115 78.7289 82.2756 78.3893 82.2756 78.0351C82.2756 77.681 82.4115 77.3413 82.6534 77.0909C82.8953 76.8407 83.2241 76.701 83.566 76.7011C83.908 76.7013 84.2359 76.842 84.4776 77.0924L87.0574 79.7657C87.238 79.9523 87.361 80.1901 87.4108 80.4491C87.4607 80.7081 87.4351 80.9765 87.3375 81.2205C87.2398 81.4645 87.0744 81.6729 86.8622 81.8195C86.65 81.966 86.4006 82.0441 86.1455 82.0438Z" fill="url(#paint6_linear_2058_9)"/>
<path d="M83.5656 79.3705C83.3102 79.371 83.0604 79.2931 82.848 79.1464C82.6355 78.9998 82.4699 78.7911 82.3721 78.5469C82.2744 78.3027 82.249 78.0339 82.2991 77.7747C82.3492 77.5155 82.4725 77.2774 82.6534 77.0909L85.2335 74.4231C85.3532 74.299 85.4955 74.2007 85.652 74.1336C85.8085 74.0665 85.9763 74.0321 86.1457 74.0322C86.3151 74.0323 86.4829 74.067 86.6393 74.1343C86.7957 74.2016 86.9378 74.3002 87.0574 74.4244C87.1773 74.5483 87.2725 74.6955 87.3374 74.8575C87.4023 75.0195 87.4357 75.1931 87.4357 75.3685C87.4357 75.5438 87.4023 75.7175 87.3374 75.8795C87.2725 76.0415 87.1773 76.1887 87.0574 76.3126L84.4776 78.9805C84.2355 79.2305 83.9075 79.3707 83.5656 79.3705Z" fill="url(#paint7_linear_2058_9)"/>
<path d="M60.3388 120.772C59.9967 120.772 59.6686 120.632 59.4267 120.381C59.1848 120.131 59.0489 119.791 59.0489 119.437V100.744C59.0489 100.39 59.1848 100.05 59.4267 99.7995C59.6686 99.5491 59.9967 99.4084 60.3388 99.4084C60.681 99.4084 61.0091 99.5491 61.251 99.7995C61.4929 100.05 61.6288 100.39 61.6288 100.744V119.437C61.6288 119.791 61.4929 120.131 61.251 120.381C61.0091 120.632 60.681 120.772 60.3388 120.772Z" fill="url(#paint8_linear_2058_9)"/>
<path d="M77.1055 120.772H60.3388C59.9967 120.772 59.6686 120.632 59.4267 120.381C59.1848 120.131 59.0489 119.791 59.0489 119.437C59.0489 119.083 59.1848 118.743 59.4267 118.493C59.6686 118.242 59.9967 118.102 60.3388 118.102H77.1055C77.4476 118.102 77.7757 118.242 78.0177 118.493C78.2596 118.743 78.3955 119.083 78.3955 119.437C78.3955 119.791 78.2596 120.131 78.0177 120.381C77.7757 120.632 77.4476 120.772 77.1055 120.772Z" fill="url(#paint9_linear_2058_9)"/>
<path d="M77.1055 120.772C76.9361 120.772 76.7683 120.738 76.6118 120.671C76.4553 120.604 76.3132 120.505 76.1935 120.381L73.6137 117.71C73.4939 117.586 73.3989 117.439 73.3341 117.277C73.2693 117.115 73.2359 116.942 73.2359 116.766C73.2359 116.591 73.2693 116.417 73.3341 116.255C73.3989 116.093 73.4939 115.946 73.6137 115.822C73.7334 115.698 73.8756 115.6 74.0321 115.533C74.1886 115.466 74.3563 115.431 74.5256 115.431C74.695 115.431 74.8627 115.466 75.0192 115.533C75.1757 115.6 75.3179 115.698 75.4376 115.822L78.0177 118.493C78.1986 118.679 78.3219 118.917 78.372 119.177C78.4221 119.436 78.3967 119.705 78.299 119.949C78.2012 120.193 78.0356 120.402 77.8231 120.548C77.6107 120.695 77.3609 120.773 77.1055 120.772Z" fill="url(#paint10_linear_2058_9)"/>
<path d="M74.5256 123.443C74.2703 123.444 74.0205 123.366 73.808 123.219C73.5955 123.072 73.4299 122.864 73.3322 122.619C73.2345 122.375 73.2091 122.106 73.2592 121.847C73.3093 121.588 73.4327 121.35 73.6137 121.164L76.1935 118.493C76.3133 118.369 76.4555 118.271 76.612 118.203C76.7684 118.136 76.9362 118.102 77.1055 118.102C77.2749 118.102 77.4426 118.136 77.5991 118.203C77.7556 118.271 77.8979 118.369 78.0177 118.493C78.1374 118.617 78.2323 118.764 78.2971 118.926C78.3619 119.088 78.3955 119.262 78.3955 119.437C78.3955 119.612 78.3619 119.786 78.2971 119.948C78.2323 120.11 78.1374 120.257 78.0177 120.381L75.4376 123.052C75.318 123.176 75.1759 123.274 75.0193 123.341C74.8628 123.409 74.6951 123.443 74.5256 123.443Z" fill="url(#paint11_linear_2058_9)"/>
<path d="M74.5411 98.069H42.2899C41.9478 98.069 41.6197 97.9283 41.3778 97.6779C41.1359 97.4275 41 97.0879 41 96.7337V63.3465C41 62.9924 41.1359 62.6527 41.3778 62.4023C41.6197 62.1519 41.9478 62.0112 42.2899 62.0112H74.5411C74.8832 62.0112 75.2113 62.1519 75.4532 62.4023C75.6952 62.6527 75.8311 62.9924 75.8311 63.3465V96.7337C75.8311 97.0879 75.6952 97.4275 75.4532 97.6779C75.2113 97.9283 74.8832 98.069 74.5411 98.069ZM43.5799 95.3984H73.2512V64.6819H43.5799V95.3984Z" fill="url(#paint12_linear_2058_9)"/>
<path d="M54.5457 91.3964C54.2036 91.3964 53.8755 91.2557 53.6336 91.0053C53.3917 90.7549 53.2558 90.4152 53.2558 90.0611V76.7065C53.2558 76.3523 53.3917 76.0127 53.6336 75.7623C53.8755 75.5118 54.2036 75.3711 54.5457 75.3711C54.8878 75.3711 55.2159 75.5118 55.4578 75.7623C55.6997 76.0127 55.8356 76.3523 55.8356 76.7065V90.0611C55.8356 90.4152 55.6997 90.7549 55.4578 91.0053C55.2159 91.2557 54.8878 91.3964 54.5457 91.3964Z" fill="url(#paint13_linear_2058_9)"/>
<path d="M52.6056 78.0391C51.9226 78.0384 51.2678 77.7572 50.7849 77.2573C50.3019 76.7574 50.0303 76.0795 50.0296 75.3725C50.0296 74.6634 50.5688 74.1533 51.2512 74.1146C51.9232 74.0572 52.5308 74.6674 52.6095 75.3698C52.7788 75.3701 52.9464 75.4049 53.1027 75.4722C53.2591 75.5395 53.4011 75.638 53.5206 75.7621C53.6401 75.8863 53.7349 76.0335 53.7995 76.1956C53.864 76.3576 53.8971 76.5312 53.8969 76.7065C53.8966 76.8817 53.863 77.0552 53.798 77.2171C53.7329 77.3789 53.6378 77.5259 53.5179 77.6496C53.398 77.7734 53.2557 77.8715 53.0992 77.9383C52.9426 78.0051 52.7749 78.0394 52.6056 78.0391ZM56.4793 78.0418C56.1372 78.0418 55.8091 77.9011 55.5672 77.6507C55.3253 77.4003 55.1894 77.0606 55.1894 76.7065C55.1894 76.3523 55.3253 76.0127 55.5672 75.7623C55.8091 75.5118 56.1372 75.3711 56.4793 75.3711C56.479 75.0166 56.6147 74.6765 56.8566 74.4256C57.0985 74.1747 57.4268 74.0335 57.7693 74.0331C58.1117 74.0328 58.4403 74.1733 58.6827 74.4237C58.9251 74.6741 59.0615 75.014 59.0618 75.3685C59.0608 76.0772 58.7884 76.7565 58.3043 77.2576C57.8202 77.7587 57.1639 78.0407 56.4793 78.0418Z" fill="url(#paint14_linear_2058_9)"/>
<path d="M56.4832 78.0391H52.6056C52.2635 78.0391 51.9354 77.8984 51.6935 77.648C51.4516 77.3976 51.3157 77.058 51.3157 76.7038C51.3157 76.3497 51.4516 76.01 51.6935 75.7596C51.9354 75.5092 52.2635 75.3685 52.6056 75.3685H56.4832C56.8253 75.3685 57.1534 75.5092 57.3953 75.7596C57.6372 76.01 57.7731 76.3497 57.7731 76.7038C57.7731 77.058 57.6372 77.3976 57.3953 77.648C57.1534 77.8984 56.8253 78.0391 56.4832 78.0391Z" fill="url(#paint15_linear_2058_9)"/>
<path d="M51.3208 76.7051C50.9787 76.7051 50.6506 76.5644 50.4087 76.314C50.1668 76.0636 50.0309 75.724 50.0309 75.3698V70.0258C50.0309 69.6717 50.1668 69.332 50.4087 69.0816C50.6506 68.8312 50.9787 68.6905 51.3208 68.6905C51.663 68.6905 51.9911 68.8312 52.233 69.0816C52.4749 69.332 52.6108 69.6717 52.6108 70.0258L52.6095 75.3698C52.6095 75.724 52.4749 76.0636 52.233 76.314C51.9911 76.5644 51.663 76.7051 51.3208 76.7051ZM57.7719 76.7051C57.4297 76.7051 57.1016 76.5644 56.8597 76.314C56.6178 76.0636 56.4819 75.724 56.4819 75.3698V70.0258C56.4819 69.6717 56.6178 69.332 56.8597 69.0816C57.1016 68.8312 57.4297 68.6905 57.7719 68.6905C58.114 68.6905 58.4421 68.8312 58.684 69.0816C58.9259 69.332 59.0618 69.6717 59.0618 70.0258V75.3685C59.0618 75.7226 58.9259 76.0636 58.684 76.314C58.4421 76.5644 58.114 76.7051 57.7719 76.7051ZM61.6404 91.3964C61.2983 91.3964 60.9702 91.2557 60.7283 91.0053C60.4864 90.7549 60.3504 90.4152 60.3504 90.0611V70.0218C60.3504 69.6677 60.4864 69.328 60.7283 69.0776C60.9702 68.8272 61.2983 68.6865 61.6404 68.6865C61.9825 68.6865 62.3106 68.8272 62.5525 69.0776C62.7944 69.328 62.9303 69.6677 62.9303 70.0218V90.0611C62.9303 90.4152 62.7944 90.7549 62.5525 91.0053C62.3106 91.2557 61.9825 91.3964 61.6404 91.3964Z" fill="url(#paint16_linear_2058_9)"/>
<path d="M65.5102 75.3711C65.1681 75.3711 64.84 75.2305 64.5981 74.98C64.3562 74.7296 64.2203 74.39 64.2203 74.0358C64.2196 73.3256 63.9468 72.6447 63.4616 72.1425C62.9765 71.6403 62.3187 71.3579 61.6327 71.3572C61.2905 71.3572 60.9624 71.2165 60.7205 70.966C60.4786 70.7156 60.3427 70.376 60.3427 70.0218C60.3427 69.6677 60.4786 69.328 60.7205 69.0776C60.9624 68.8272 61.2905 68.6865 61.6327 68.6865C63.0027 68.6879 64.3163 69.252 65.2851 70.2548C66.2539 71.2577 66.7988 72.6175 66.8002 74.0358C66.8002 74.39 66.6643 74.7296 66.4224 74.98C66.1804 75.2305 65.8523 75.3711 65.5102 75.3711Z" fill="url(#paint17_linear_2058_9)"/>
<path d="M65.5102 83.3764C65.1681 83.3764 64.84 83.2357 64.5981 82.9853C64.3562 82.7349 64.2203 82.3953 64.2203 82.0411L64.2203 74.0358C64.2203 73.6817 64.3562 73.342 64.5981 73.0916C64.84 72.8412 65.1681 72.7005 65.5102 72.7005C65.8523 72.7005 66.1804 72.8412 66.4224 73.0916C66.6643 73.342 66.8002 73.6817 66.8002 74.0358L66.8002 82.0411C66.8002 82.3953 66.6643 82.7349 66.4224 82.9853C66.1804 83.2357 65.8523 83.3764 65.5102 83.3764Z" fill="url(#paint18_linear_2058_9)"/>
<path d="M65.5102 83.3764H61.6404C61.2983 83.3764 60.9702 83.2357 60.7283 82.9853C60.4864 82.7349 60.3504 82.3953 60.3504 82.0411C60.3504 81.687 60.4864 81.3473 60.7283 81.0969C60.9702 80.8465 61.2983 80.7058 61.6404 80.7058H65.5102C65.8523 80.7058 66.1804 80.8465 66.4224 81.0969C66.6643 81.3473 66.8002 81.687 66.8002 82.0411C66.8002 82.3953 66.6643 82.7349 66.4224 82.9853C66.1804 83.2357 65.8523 83.3764 65.5102 83.3764ZM57.7719 74.0305H51.3208C50.9787 74.0305 50.6506 73.8898 50.4087 73.6394C50.1668 73.3889 50.0309 73.0493 50.0309 72.6952C50.0309 72.341 50.1668 72.0014 50.4087 71.7509C50.6506 71.5005 50.9787 71.3598 51.3208 71.3598H57.7719C58.114 71.3598 58.4421 71.5005 58.684 71.7509C58.9259 72.0014 59.0618 72.341 59.0618 72.6952C59.0618 73.0493 58.9259 73.3889 58.684 73.6394C58.4421 73.8898 58.114 74.0305 57.7719 74.0305Z" fill="url(#paint19_linear_2058_9)"/>
<path d="M54.5444 74.0291C54.2023 74.0291 53.8742 73.8885 53.6323 73.638C53.3904 73.3876 53.2545 73.048 53.2545 72.6938V70.0258C53.2545 69.6717 53.3904 69.332 53.6323 69.0816C53.8742 68.8312 54.2023 68.6905 54.5444 68.6905C54.8865 68.6905 55.2146 68.8312 55.4565 69.0816C55.6984 69.332 55.8344 69.6717 55.8344 70.0258V72.6938C55.8344 73.048 55.6984 73.3876 55.4565 73.638C55.2146 73.8885 54.8865 74.0291 54.5444 74.0291Z" fill="url(#paint20_linear_2058_9)"/>
<path d="M79.7035 98.069H74.5411C74.199 98.069 73.8709 97.9283 73.629 97.6779C73.3871 97.4275 73.2512 97.0879 73.2512 96.7337C73.2512 96.3796 73.3871 96.0399 73.629 95.7895C73.8709 95.5391 74.199 95.3984 74.5411 95.3984H78.4135V64.6819H74.5411C74.199 64.6819 73.8709 64.5412 73.629 64.2907C73.3871 64.0403 73.2512 63.7007 73.2512 63.3465C73.2512 62.9924 73.3871 62.6527 73.629 62.4023C73.8709 62.1519 74.199 62.0112 74.5411 62.0112H79.7035C80.0456 62.0112 80.3737 62.1519 80.6156 62.4023C80.8575 62.6527 80.9934 62.9924 80.9934 63.3465V96.7337C80.9934 97.0879 80.8575 97.4275 80.6156 97.6779C80.3737 97.9283 80.0456 98.069 79.7035 98.069Z" fill="url(#paint21_linear_2058_9)"/>
<path d="M65.5115 58.6756C65.1694 58.6756 64.8413 58.5349 64.5994 58.2844C64.3575 58.034 64.2216 57.6944 64.2216 57.3402C64.2216 54.0259 61.6172 51.3286 58.4168 51.3286C55.2165 51.3286 52.6121 54.0259 52.6121 57.3402C52.6121 57.6944 52.4762 58.034 52.2343 58.2844C51.9923 58.5349 51.6642 58.6756 51.3221 58.6756C50.98 58.6756 50.6519 58.5349 50.41 58.2844C50.1681 58.034 50.0322 57.6944 50.0322 57.3402C50.0322 52.5531 53.7937 48.6579 58.4168 48.6579C63.04 48.6579 66.8015 52.5531 66.8015 57.3402C66.8015 57.6944 66.6656 58.034 66.4236 58.2844C66.1817 58.5349 65.8536 58.6756 65.5115 58.6756Z" fill="url(#paint22_linear_2058_9)"/>
<path d="M51.3221 64.6819C50.98 64.6819 50.6519 64.5412 50.41 64.2907C50.1681 64.0403 50.0322 63.7007 50.0322 63.3465V57.3402C50.0322 56.9861 50.1681 56.6464 50.41 56.396C50.6519 56.1456 50.98 56.0049 51.3221 56.0049C51.6642 56.0049 51.9923 56.1456 52.2343 56.396C52.4762 56.6464 52.6121 56.9861 52.6121 57.3402V63.3465C52.6121 63.7007 52.4762 64.0403 52.2343 64.2907C51.9923 64.5412 51.6642 64.6819 51.3221 64.6819Z" fill="url(#paint23_linear_2058_9)"/>
<path d="M65.5115 64.6819C65.1694 64.6819 64.8413 64.5412 64.5994 64.2907C64.3575 64.0403 64.2216 63.7007 64.2216 63.3465V57.3402C64.2216 56.9861 64.3575 56.6464 64.5994 56.396C64.8413 56.1456 65.1694 56.0049 65.5115 56.0049C65.8536 56.0049 66.1817 56.1456 66.4236 56.396C66.6656 56.6464 66.8015 56.9861 66.8015 57.3402V63.3465C66.8015 63.7007 66.6656 64.0403 66.4236 64.2907C66.1817 64.5412 65.8536 64.6819 65.5115 64.6819Z" fill="url(#paint24_linear_2058_9)"/>
<path d="M70.6764 58.6756C70.3343 58.6756 70.0062 58.5349 69.7643 58.2844C69.5224 58.034 69.3865 57.6944 69.3865 57.3402C69.3865 54.0259 66.7821 51.3286 63.5818 51.3286C60.3814 51.3286 57.777 54.0259 57.777 57.3402C57.777 57.6944 57.6411 58.034 57.3992 58.2844C57.1573 58.5349 56.8292 58.6756 56.4871 58.6756C56.145 58.6756 55.8168 58.5349 55.5749 58.2844C55.333 58.034 55.1971 57.6944 55.1971 57.3402C55.1971 52.5531 58.9586 48.6579 63.5818 48.6579C68.2049 48.6579 71.9664 52.5531 71.9664 57.3402C71.9664 57.6944 71.8305 58.034 71.5886 58.2844C71.3467 58.5349 71.0186 58.6756 70.6764 58.6756Z" fill="url(#paint25_linear_2058_9)"/>
<path d="M56.4871 64.6819C56.145 64.6819 55.8168 64.5412 55.5749 64.2907C55.333 64.0403 55.1971 63.7007 55.1971 63.3465V57.3402C55.1971 56.9861 55.333 56.6464 55.5749 56.396C55.8168 56.1456 56.145 56.0049 56.4871 56.0049C56.8292 56.0049 57.1573 56.1456 57.3992 56.396C57.6411 56.6464 57.777 56.9861 57.777 57.3402V63.3465C57.777 63.7007 57.6411 64.0403 57.3992 64.2907C57.1573 64.5412 56.8292 64.6819 56.4871 64.6819Z" fill="url(#paint26_linear_2058_9)"/>
<path d="M70.6764 64.6819C70.3343 64.6819 70.0062 64.5412 69.7643 64.2907C69.5224 64.0403 69.3865 63.7007 69.3865 63.3465V57.3402C69.3865 56.9861 69.5224 56.6464 69.7643 56.396C70.0062 56.1456 70.3343 56.0049 70.6764 56.0049C71.0186 56.0049 71.3467 56.1456 71.5886 56.396C71.8305 56.6464 71.9664 56.9861 71.9664 57.3402V63.3465C71.9664 63.7007 71.8305 64.0403 71.5886 64.2907C71.3467 64.5412 71.0186 64.6819 70.6764 64.6819Z" fill="url(#paint27_linear_2058_9)"/>
<defs>
<linearGradient id="paint0_linear_2058_9" x1="122.98" y1="134.116" x2="38.3736" y2="134.116" gradientUnits="userSpaceOnUse">
<stop stop-color="#FF5A2F"/>
<stop offset="1" stop-color="#FF6C44"/>
</linearGradient>
<linearGradient id="paint1_linear_2058_9" x1="122.98" y1="134.116" x2="38.3736" y2="134.116" gradientUnits="userSpaceOnUse">
<stop stop-color="#FF5A2F"/>
<stop offset="1" stop-color="#FF6C44"/>
</linearGradient>
<linearGradient id="paint2_linear_2058_9" x1="122.98" y1="134.116" x2="38.3736" y2="134.116" gradientUnits="userSpaceOnUse">
<stop stop-color="#FF5A2F"/>
<stop offset="1" stop-color="#FF6C44"/>
</linearGradient>
<linearGradient id="paint3_linear_2058_9" x1="122.98" y1="134.116" x2="38.3736" y2="134.116" gradientUnits="userSpaceOnUse">
<stop stop-color="#FF5A2F"/>
<stop offset="1" stop-color="#FF6C44"/>
</linearGradient>
<linearGradient id="paint4_linear_2058_9" x1="122.98" y1="134.116" x2="38.3736" y2="134.116" gradientUnits="userSpaceOnUse">
<stop stop-color="#FF5A2F"/>
<stop offset="1" stop-color="#FF6C44"/>
</linearGradient>
<linearGradient id="paint5_linear_2058_9" x1="122.98" y1="134.116" x2="38.3736" y2="134.116" gradientUnits="userSpaceOnUse">
<stop stop-color="#FF5A2F"/>
<stop offset="1" stop-color="#FF6C44"/>
</linearGradient>
<linearGradient id="paint6_linear_2058_9" x1="122.98" y1="134.116" x2="38.3736" y2="134.116" gradientUnits="userSpaceOnUse">
<stop stop-color="#FF5A2F"/>
<stop offset="1" stop-color="#FF6C44"/>
</linearGradient>
<linearGradient id="paint7_linear_2058_9" x1="122.98" y1="134.116" x2="38.3736" y2="134.116" gradientUnits="userSpaceOnUse">
<stop stop-color="#FF5A2F"/>
<stop offset="1" stop-color="#FF6C44"/>
</linearGradient>
<linearGradient id="paint8_linear_2058_9" x1="122.98" y1="134.116" x2="38.3736" y2="134.116" gradientUnits="userSpaceOnUse">
<stop stop-color="#FF5A2F"/>
<stop offset="1" stop-color="#FF6C44"/>
</linearGradient>
<linearGradient id="paint9_linear_2058_9" x1="122.98" y1="134.116" x2="38.3736" y2="134.116" gradientUnits="userSpaceOnUse">
<stop stop-color="#FF5A2F"/>
<stop offset="1" stop-color="#FF6C44"/>
</linearGradient>
<linearGradient id="paint10_linear_2058_9" x1="122.98" y1="134.116" x2="38.3736" y2="134.116" gradientUnits="userSpaceOnUse">
<stop stop-color="#FF5A2F"/>
<stop offset="1" stop-color="#FF6C44"/>
</linearGradient>
<linearGradient id="paint11_linear_2058_9" x1="122.98" y1="134.116" x2="38.3736" y2="134.116" gradientUnits="userSpaceOnUse">
<stop stop-color="#FF5A2F"/>
<stop offset="1" stop-color="#FF6C44"/>
</linearGradient>
<linearGradient id="paint12_linear_2058_9" x1="122.98" y1="134.116" x2="38.3736" y2="134.116" gradientUnits="userSpaceOnUse">
<stop stop-color="#FF5A2F"/>
<stop offset="1" stop-color="#FF6C44"/>
</linearGradient>
<linearGradient id="paint13_linear_2058_9" x1="122.98" y1="134.116" x2="38.3736" y2="134.116" gradientUnits="userSpaceOnUse">
<stop stop-color="#FF5A2F"/>
<stop offset="1" stop-color="#FF6C44"/>
</linearGradient>
<linearGradient id="paint14_linear_2058_9" x1="122.98" y1="134.116" x2="38.3736" y2="134.116" gradientUnits="userSpaceOnUse">
<stop stop-color="#FF5A2F"/>
<stop offset="1" stop-color="#FF6C44"/>
</linearGradient>
<linearGradient id="paint15_linear_2058_9" x1="122.98" y1="134.116" x2="38.3736" y2="134.116" gradientUnits="userSpaceOnUse">
<stop stop-color="#FF5A2F"/>
<stop offset="1" stop-color="#FF6C44"/>
</linearGradient>
<linearGradient id="paint16_linear_2058_9" x1="122.98" y1="134.116" x2="38.3736" y2="134.116" gradientUnits="userSpaceOnUse">
<stop stop-color="#FF5A2F"/>
<stop offset="1" stop-color="#FF6C44"/>
</linearGradient>
<linearGradient id="paint17_linear_2058_9" x1="122.98" y1="134.116" x2="38.3736" y2="134.116" gradientUnits="userSpaceOnUse">
<stop stop-color="#FF5A2F"/>
<stop offset="1" stop-color="#FF6C44"/>
</linearGradient>
<linearGradient id="paint18_linear_2058_9" x1="122.98" y1="134.116" x2="38.3736" y2="134.116" gradientUnits="userSpaceOnUse">
<stop stop-color="#FF5A2F"/>
<stop offset="1" stop-color="#FF6C44"/>
</linearGradient>
<linearGradient id="paint19_linear_2058_9" x1="122.98" y1="134.116" x2="38.3736" y2="134.116" gradientUnits="userSpaceOnUse">
<stop stop-color="#FF5A2F"/>
<stop offset="1" stop-color="#FF6C44"/>
</linearGradient>
<linearGradient id="paint20_linear_2058_9" x1="122.98" y1="134.116" x2="38.3736" y2="134.116" gradientUnits="userSpaceOnUse">
<stop stop-color="#FF5A2F"/>
<stop offset="1" stop-color="#FF6C44"/>
</linearGradient>
<linearGradient id="paint21_linear_2058_9" x1="122.98" y1="134.116" x2="38.3736" y2="134.116" gradientUnits="userSpaceOnUse">
<stop stop-color="#FF5A2F"/>
<stop offset="1" stop-color="#FF6C44"/>
</linearGradient>
<linearGradient id="paint22_linear_2058_9" x1="122.98" y1="134.116" x2="38.3736" y2="134.116" gradientUnits="userSpaceOnUse">
<stop stop-color="#FF5A2F"/>
<stop offset="1" stop-color="#FF6C44"/>
</linearGradient>
<linearGradient id="paint23_linear_2058_9" x1="122.98" y1="134.116" x2="38.3736" y2="134.116" gradientUnits="userSpaceOnUse">
<stop stop-color="#FF5A2F"/>
<stop offset="1" stop-color="#FF6C44"/>
</linearGradient>
<linearGradient id="paint24_linear_2058_9" x1="122.98" y1="134.116" x2="38.3736" y2="134.116" gradientUnits="userSpaceOnUse">
<stop stop-color="#FF5A2F"/>
<stop offset="1" stop-color="#FF6C44"/>
</linearGradient>
<linearGradient id="paint25_linear_2058_9" x1="122.98" y1="134.116" x2="38.3736" y2="134.116" gradientUnits="userSpaceOnUse">
<stop stop-color="#FF5A2F"/>
<stop offset="1" stop-color="#FF6C44"/>
</linearGradient>
<linearGradient id="paint26_linear_2058_9" x1="122.98" y1="134.116" x2="38.3736" y2="134.116" gradientUnits="userSpaceOnUse">
<stop stop-color="#FF5A2F"/>
<stop offset="1" stop-color="#FF6C44"/>
</linearGradient>
<linearGradient id="paint27_linear_2058_9" x1="122.98" y1="134.116" x2="38.3736" y2="134.116" gradientUnits="userSpaceOnUse">
<stop stop-color="#FF5A2F"/>
<stop offset="1" stop-color="#FF6C44"/>
</linearGradient>
</defs>
</svg>
