<svg width="160" height="180" viewBox="0 0 160 180" fill="none" xmlns="http://www.w3.org/2000/svg">
<rect width="160" height="180" rx="25" fill="url(#paint0_linear_2058_6)"/>
<path d="M94.75 126.659H67.25C62.4262 126.659 58.5 122.702 58.5 117.841C58.5 117.507 58.6317 117.186 58.8661 116.95C59.1005 116.714 59.4185 116.581 59.75 116.581C60.0815 116.581 60.3995 116.714 60.6339 116.95C60.8683 117.186 61 117.507 61 117.841C61 121.314 63.8038 124.139 67.25 124.139H94.75C98.1962 124.139 101 121.314 101 117.841C101 117.507 101.132 117.186 101.366 116.95C101.601 116.714 101.918 116.581 102.25 116.581C102.582 116.581 102.899 116.714 103.134 116.95C103.368 117.186 103.5 117.507 103.5 117.841C103.5 122.702 99.5738 126.659 94.75 126.659ZM77.2875 57.375C76.5963 57.375 76.0312 56.8106 76.0312 56.1153C76.0312 55.4199 76.5838 54.8556 77.2738 54.8556H77.2875C77.619 54.8556 77.937 54.9883 78.1714 55.2245C78.4058 55.4608 78.5375 55.7812 78.5375 56.1153C78.5375 56.4494 78.4058 56.7698 78.1714 57.006C77.937 57.2423 77.619 57.375 77.2875 57.375ZM84.75 57.375H81C80.6685 57.375 80.3505 57.2423 80.1161 57.006C79.8817 56.7698 79.75 56.4494 79.75 56.1153C79.75 55.7812 79.8817 55.4608 80.1161 55.2245C80.3505 54.9883 80.6685 54.8556 81 54.8556H84.75C85.0815 54.8556 85.3995 54.9883 85.6339 55.2245C85.8683 55.4608 86 55.7812 86 56.1153C86 56.4494 85.8683 56.7698 85.6339 57.006C85.3995 57.2423 85.0815 57.375 84.75 57.375ZM102.25 59.8969C101.918 59.8969 101.601 59.7642 101.366 59.528C101.132 59.2917 101 58.9713 101 58.6372C101 55.8583 98.7575 53.5984 96 53.5984C95.6685 53.5984 95.3505 53.4657 95.1161 53.2294C94.8817 52.9932 94.75 52.6728 94.75 52.3387C94.75 52.0046 94.8817 51.6842 95.1161 51.448C95.3505 51.2117 95.6685 51.079 96 51.079C100.136 51.079 103.5 54.4689 103.5 58.6372C103.5 58.9713 103.368 59.2917 103.134 59.528C102.899 59.7642 102.582 59.8969 102.25 59.8969ZM59.75 59.8944C59.4185 59.8944 59.1005 59.7617 58.8661 59.5254C58.6317 59.2892 58.5 58.9688 58.5 58.6347C58.5 54.4663 61.8637 51.0765 66 51.0765C66.3315 51.0765 66.6495 51.2092 66.8839 51.4454C67.1183 51.6817 67.25 52.0021 67.25 52.3362C67.25 52.6703 67.1183 52.9907 66.8839 53.2269C66.6495 53.4632 66.3315 53.5959 66 53.5959C63.2425 53.5959 61 55.8558 61 58.6347C61 58.9688 60.8683 59.2892 60.6339 59.5254C60.3995 59.7617 60.0815 59.8944 59.75 59.8944Z" fill="white"/>
<path d="M96 53.5959H66C65.6685 53.5959 65.3505 53.4632 65.1161 53.2269C64.8817 52.9907 64.75 52.6703 64.75 52.3362C64.75 52.0021 64.8817 51.6817 65.1161 51.4454C65.3505 51.2092 65.6685 51.0765 66 51.0765H96C96.3315 51.0765 96.6495 51.2092 96.8839 51.4454C97.1183 51.6817 97.25 52.0021 97.25 52.3362C97.25 52.6703 97.1183 52.9907 96.8839 53.2269C96.6495 53.4632 96.3315 53.5959 96 53.5959ZM102.25 61.1566H59.75C59.4185 61.1566 59.1005 61.0239 58.8661 60.7877C58.6317 60.5514 58.5 60.231 58.5 59.8969C58.5 59.5628 58.6317 59.2424 58.8661 59.0062C59.1005 58.7699 59.4185 58.6372 59.75 58.6372H102.25C102.582 58.6372 102.899 58.7699 103.134 59.0062C103.368 59.2424 103.5 59.5628 103.5 59.8969C103.5 60.231 103.368 60.5514 103.134 60.7877C102.899 61.0239 102.582 61.1566 102.25 61.1566ZM94.75 131.697H67.25C62.4262 131.697 58.5 127.741 58.5 122.88V105.245C58.5 104.911 58.6317 104.59 58.8661 104.354C59.1005 104.118 59.4185 103.985 59.75 103.985C60.0815 103.985 60.3995 104.118 60.6339 104.354C60.8683 104.59 61 104.911 61 105.245V122.88C61 126.353 63.8038 129.178 67.25 129.178H94.75C98.1962 129.178 101 126.353 101 122.88V88.8663C101 88.5322 101.132 88.2118 101.366 87.9756C101.601 87.7393 101.918 87.6066 102.25 87.6066C102.582 87.6066 102.899 87.7393 103.134 87.9756C103.368 88.2118 103.5 88.5322 103.5 88.8663V122.88C103.5 127.741 99.5738 131.697 94.75 131.697Z" fill="white"/>
<path d="M102.25 116.581H59.75C59.4185 116.581 59.1005 116.448 58.8661 116.212C58.6317 115.976 58.5 115.655 58.5 115.321C58.5 114.987 58.6317 114.667 58.8661 114.431C59.1005 114.194 59.4185 114.062 59.75 114.062H102.25C102.582 114.062 102.899 114.194 103.134 114.431C103.368 114.667 103.5 114.987 103.5 115.321C103.5 115.655 103.368 115.976 103.134 116.212C102.899 116.448 102.582 116.581 102.25 116.581ZM81 124.139C78.9325 124.139 77.25 122.444 77.25 120.36C77.25 118.277 78.9325 116.581 81 116.581C83.0675 116.581 84.75 118.277 84.75 120.36C84.75 122.444 83.0675 124.139 81 124.139ZM81 119.1C80.6685 119.1 80.3505 119.233 80.1161 119.469C79.8817 119.706 79.75 120.026 79.75 120.36C79.75 120.694 79.8817 121.015 80.1161 121.251C80.3505 121.487 80.6685 121.62 81 121.62C81.3315 121.62 81.6495 121.487 81.8839 121.251C82.1183 121.015 82.25 120.694 82.25 120.36C82.25 120.026 82.1183 119.706 81.8839 119.469C81.6495 119.233 81.3315 119.1 81 119.1ZM76 110.284C75.7775 110.284 75.555 110.223 75.3563 110.104L69.4025 106.505H46C45.6685 106.505 45.3505 106.372 45.1161 106.136C44.8817 105.899 44.75 105.579 44.75 105.245V76.2655C44.75 75.9314 44.8817 75.611 45.1161 75.3748C45.3505 75.1385 45.6685 75.0058 46 75.0058H76C76.3315 75.0058 76.6495 75.1385 76.8839 75.3748C77.1183 75.611 77.25 75.9314 77.25 76.2655V109.024C77.25 109.358 77.1183 109.679 76.8839 109.915C76.6495 110.151 76.3315 110.284 76 110.284ZM47.25 103.985H69.75C69.9775 103.985 70.1987 104.047 70.3937 104.165L74.75 106.798V77.5252H47.25V103.985ZM86 93.9051C85.6685 93.9051 85.3505 93.7724 85.1161 93.5362C84.8817 93.2999 84.75 92.9795 84.75 92.6454V66.1917C84.75 65.8576 84.8817 65.5371 85.1161 65.3009C85.3505 65.0647 85.6685 64.932 86 64.932H116C116.332 64.932 116.649 65.0647 116.884 65.3009C117.118 65.5371 117.25 65.8576 117.25 66.1917V88.8663C117.25 89.2004 117.118 89.5208 116.884 89.7571C116.649 89.9933 116.332 90.126 116 90.126H92.5975L86.6425 93.725C86.4486 93.8427 86.2264 93.905 86 93.9051ZM87.25 67.4514V90.4208L91.6075 87.7867C91.8012 87.6696 92.0238 87.6066 92.2513 87.6066H114.75V67.4514H87.25Z" fill="white"/>
<path d="M59.75 77.5252C59.4185 77.5252 59.1005 77.3925 58.8661 77.1562C58.6317 76.92 58.5 76.5996 58.5 76.2655V58.6347C58.5 58.3006 58.6317 57.9802 58.8661 57.744C59.1005 57.5077 59.4185 57.375 59.75 57.375C60.0815 57.375 60.3995 57.5077 60.6339 57.744C60.8683 57.9802 61 58.3006 61 58.6347V76.2655C61 76.5996 60.8683 76.92 60.6339 77.1562C60.3995 77.3925 60.0815 77.5252 59.75 77.5252ZM102.25 67.4514C101.918 67.4514 101.601 67.3186 101.366 67.0824C101.132 66.8462 101 66.5257 101 66.1917V58.6372C101 58.3031 101.132 57.9827 101.366 57.7465C101.601 57.5102 101.918 57.3775 102.25 57.3775C102.582 57.3775 102.899 57.5102 103.134 57.7465C103.368 57.9827 103.5 58.3031 103.5 58.6372V66.1917C103.5 66.5257 103.368 66.8462 103.134 67.0824C102.899 67.3186 102.582 67.4514 102.25 67.4514ZM109.75 73.7499H92.25C91.9185 73.7499 91.6005 73.6172 91.3661 73.3809C91.1317 73.1447 91 72.8243 91 72.4902C91 72.1561 91.1317 71.8357 91.3661 71.5994C91.6005 71.3632 91.9185 71.2305 92.25 71.2305H109.75C110.082 71.2305 110.399 71.3632 110.634 71.5994C110.868 71.8357 111 72.1561 111 72.4902C111 72.8243 110.868 73.1447 110.634 73.3809C110.399 73.6172 110.082 73.7499 109.75 73.7499Z" fill="white"/>
<path d="M109.75 78.7887H92.25C91.9185 78.7887 91.6005 78.656 91.3661 78.4197C91.1317 78.1835 91 77.8631 91 77.529C91 77.1949 91.1317 76.8745 91.3661 76.6382C91.6005 76.402 91.9185 76.2693 92.25 76.2693H109.75C110.082 76.2693 110.399 76.402 110.634 76.6382C110.868 76.8745 111 77.1949 111 77.529C111 77.8631 110.868 78.1835 110.634 78.4197C110.399 78.656 110.082 78.7887 109.75 78.7887Z" fill="white"/>
<path d="M101 83.8275H92.25C91.9185 83.8275 91.6005 83.6948 91.3661 83.4585C91.1317 83.2223 91 82.9019 91 82.5678C91 82.2337 91.1317 81.9133 91.3661 81.677C91.6005 81.4408 91.9185 81.3081 92.25 81.3081H101C101.332 81.3081 101.649 81.4408 101.884 81.677C102.118 81.9133 102.25 82.2337 102.25 82.5678C102.25 82.9019 102.118 83.2223 101.884 83.4585C101.649 83.6948 101.332 83.8275 101 83.8275Z" fill="white"/>
<path d="M56.6263 100.206C56.2947 100.206 55.9768 100.073 55.7424 99.8372C55.5079 99.601 55.3763 99.2805 55.3763 98.9465V88.8701C55.3763 88.536 55.5079 88.2156 55.7424 87.9793C55.9768 87.7431 56.2947 87.6104 56.6263 87.6104C56.9578 87.6104 57.2757 87.7431 57.5101 87.9793C57.7446 88.2156 57.8763 88.536 57.8763 88.8701V98.9465C57.8763 99.2805 57.7446 99.601 57.5101 99.8372C57.2757 100.073 56.9578 100.206 56.6263 100.206Z" fill="white"/>
<path d="M54.7463 90.1273C54.0845 90.1263 53.4502 89.8609 52.9822 89.3894C52.5143 88.9178 52.251 88.2785 52.25 87.6116C52.25 86.9427 52.7725 86.4615 53.4337 86.425C54.0762 86.3847 54.6737 86.9465 54.75 87.6079C55.0815 87.6084 55.3993 87.7416 55.6333 87.9782C55.8674 88.2148 55.9986 88.5354 55.9981 88.8695C55.9976 89.2036 55.8655 89.5238 55.6307 89.7597C55.3959 89.9955 55.0778 90.1278 54.7463 90.1273ZM58.5 90.1298C58.1685 90.1298 57.8505 89.9971 57.6161 89.7608C57.3817 89.5246 57.25 89.2042 57.25 88.8701C57.25 88.536 57.3817 88.2156 57.6161 87.9793C57.8505 87.7431 58.1685 87.6104 58.5 87.6104C58.4997 87.276 58.6312 86.9551 58.8656 86.7184C59.1 86.4817 59.4181 86.3485 59.75 86.3482C60.0819 86.3478 60.4002 86.4804 60.6351 86.7166C60.87 86.9528 61.0022 87.2734 61.0025 87.6079C61.0018 88.2765 60.738 88.9176 60.2688 89.3904C59.7996 89.8632 59.1635 90.1291 58.5 90.1298Z" fill="white"/>
<path d="M58.5037 90.1273H54.7463C54.4147 90.1273 54.0968 89.9946 53.8624 89.7583C53.6279 89.5221 53.4963 89.2017 53.4963 88.8676C53.4963 88.5335 53.6279 88.2131 53.8624 87.9768C54.0968 87.7406 54.4147 87.6079 54.7463 87.6079H58.5037C58.8353 87.6079 59.1532 87.7406 59.3876 87.9768C59.6221 88.2131 59.7537 88.5335 59.7537 88.8676C59.7537 89.2017 59.6221 89.5221 59.3876 89.7583C59.1532 89.9946 58.8353 90.1273 58.5037 90.1273Z" fill="white"/>
<path d="M53.5013 88.8688C53.1697 88.8688 52.8518 88.7361 52.6174 88.4999C52.3829 88.2636 52.2513 87.9432 52.2513 87.6091V82.5678C52.2513 82.2337 52.3829 81.9133 52.6174 81.677C52.8518 81.4408 53.1697 81.3081 53.5013 81.3081C53.8328 81.3081 54.1507 81.4408 54.3851 81.677C54.6196 81.9133 54.7513 82.2337 54.7513 82.5678V87.6091C54.7513 87.9432 54.6196 88.2636 54.3851 88.4999C54.1507 88.7361 53.8328 88.8688 53.5013 88.8688ZM59.7525 88.8688C59.421 88.8688 59.103 88.7361 58.8686 88.4999C58.6342 88.2636 58.5025 87.9432 58.5025 87.6091V82.5678C58.5025 82.2337 58.6342 81.9133 58.8686 81.677C59.103 81.4408 59.421 81.3081 59.7525 81.3081C60.084 81.3081 60.402 81.4408 60.6364 81.677C60.8708 81.9133 61.0025 82.2337 61.0025 82.5678V87.6079C61.0025 87.942 60.8708 88.2636 60.6364 88.4999C60.402 88.7361 60.084 88.8688 59.7525 88.8688ZM63.5012 100.206C63.1697 100.206 62.8518 100.073 62.6174 99.8372C62.3829 99.601 62.2512 99.2805 62.2512 98.9465V82.564C62.2512 82.2299 62.3829 81.9095 62.6174 81.6733C62.8518 81.437 63.1697 81.3043 63.5012 81.3043C63.8328 81.3043 64.1507 81.437 64.3851 81.6733C64.6196 81.9095 64.7512 82.2299 64.7512 82.564V98.9465C64.7512 99.2805 64.6196 99.601 64.3851 99.8372C64.1507 100.073 63.8328 100.206 63.5012 100.206Z" fill="white"/>
<path d="M67.2512 87.6104C66.9197 87.6104 66.6018 87.4777 66.3674 87.2414C66.1329 87.0052 66.0012 86.6848 66.0012 86.3507C66.0006 85.6807 65.7362 85.0383 65.2661 84.5646C64.796 84.0908 64.1586 83.8244 63.4938 83.8237C63.1622 83.8237 62.8443 83.691 62.6099 83.4548C62.3754 83.2185 62.2438 82.8981 62.2438 82.564C62.2438 82.2299 62.3754 81.9095 62.6099 81.6733C62.8443 81.437 63.1622 81.3043 63.4938 81.3043C64.8214 81.3056 66.0943 81.8377 67.0331 82.7838C67.9719 83.7299 68.4999 85.0127 68.5012 86.3507C68.5012 86.6848 68.3696 87.0052 68.1351 87.2414C67.9007 87.4777 67.5828 87.6104 67.2512 87.6104Z" fill="white"/>
<path d="M67.2512 93.9013C66.9197 93.9013 66.6018 93.7686 66.3674 93.5324C66.1329 93.2961 66.0012 92.9757 66.0012 92.6416V86.3507C66.0012 86.0166 66.1329 85.6962 66.3674 85.4599C66.6018 85.2237 66.9197 85.091 67.2512 85.091C67.5828 85.091 67.9007 85.2237 68.1351 85.4599C68.3696 85.6962 68.5012 86.0166 68.5012 86.3507V92.6416C68.5012 92.9757 68.3696 93.2961 68.1351 93.5324C67.9007 93.7686 67.5828 93.9013 67.2512 93.9013Z" fill="white"/>
<path d="M67.2512 93.9013H63.5012C63.1697 93.9013 62.8518 93.7686 62.6174 93.5324C62.3829 93.2961 62.2512 92.9757 62.2512 92.6416C62.2512 92.3075 62.3829 91.9871 62.6174 91.7509C62.8518 91.5147 63.1697 91.3819 63.5012 91.3819H67.2512C67.5828 91.3819 67.9007 91.5147 68.1351 91.7509C68.3696 91.9871 68.5012 92.3075 68.5012 92.6416C68.5012 92.9757 68.3696 93.2961 68.1351 93.5324C67.9007 93.7686 67.5828 93.9013 67.2512 93.9013ZM59.7525 86.3456H53.5013C53.1697 86.3456 52.8518 86.2129 52.6174 85.9767C52.3829 85.7404 52.2513 85.42 52.2513 85.0859C52.2513 84.7518 52.3829 84.4314 52.6174 84.1952C52.8518 83.959 53.1697 83.8262 53.5013 83.8262H59.7525C60.084 83.8262 60.402 83.959 60.6364 84.1952C60.8708 84.4314 61.0025 84.7518 61.0025 85.0859C61.0025 85.42 60.8708 85.7404 60.6364 85.9767C60.402 86.2129 60.084 86.3456 59.7525 86.3456Z" fill="white"/>
<path d="M56.625 86.3444C56.2935 86.3444 55.9755 86.2117 55.7411 85.9754C55.5067 85.7392 55.375 85.4188 55.375 85.0847V82.5678C55.375 82.2337 55.5067 81.9133 55.7411 81.677C55.9755 81.4408 56.2935 81.3081 56.625 81.3081C56.9565 81.3081 57.2745 81.4408 57.5089 81.677C57.7433 81.9133 57.875 82.2337 57.875 82.5678V85.0847C57.875 85.4188 57.7433 85.7392 57.5089 85.9754C57.2745 86.2117 56.9565 86.3444 56.625 86.3444Z" fill="white"/>
<defs>
<linearGradient id="paint0_linear_2058_6" x1="163.96" y1="180" x2="-5.25272" y2="180" gradientUnits="userSpaceOnUse">
<stop stop-color="#FF5A2F"/>
<stop offset="1" stop-color="#FF6C44"/>
</linearGradient>
</defs>
</svg>
