<svg width="160" height="180" viewBox="0 0 160 180" fill="none" xmlns="http://www.w3.org/2000/svg">
<rect width="160" height="180" rx="25" fill="white"/>
<path d="M44.1613 118.306C43.8533 118.306 43.5579 118.183 43.3401 117.964C43.1223 117.744 43 117.446 43 117.136C43 111.327 47.6893 106.601 53.4539 106.601C53.7619 106.601 54.0573 106.724 54.2751 106.944C54.4929 107.163 54.6152 107.461 54.6152 107.771C54.6152 108.082 54.4929 108.379 54.2751 108.599C54.0573 108.818 53.7619 108.942 53.4539 108.942C51.2981 108.944 49.2313 109.808 47.7069 111.344C46.1825 112.881 45.325 114.963 45.3226 117.136C45.3226 117.446 45.2002 117.744 44.9824 117.964C44.7647 118.183 44.4693 118.306 44.1613 118.306Z" fill="url(#paint0_linear_2058_7)"/>
<path d="M61.5806 108.944L53.4539 108.942C53.1459 108.942 52.8506 108.818 52.6328 108.599C52.415 108.379 52.2926 108.082 52.2926 107.771C52.2926 107.461 52.415 107.163 52.6328 106.944C52.8506 106.724 53.1459 106.601 53.4539 106.601L61.5806 106.603C61.8886 106.603 62.184 106.727 62.4018 106.946C62.6196 107.166 62.7419 107.463 62.7419 107.774C62.7419 108.084 62.6196 108.382 62.4018 108.601C62.184 108.821 61.8886 108.944 61.5806 108.944ZM82.5059 108.944L77.8387 108.942C77.5307 108.942 77.2353 108.818 77.0176 108.599C76.7998 108.379 76.6774 108.082 76.6774 107.771C76.6774 107.461 76.7998 107.163 77.0176 106.944C77.2353 106.724 77.5307 106.601 77.8387 106.601L82.5071 106.603C82.8151 106.603 83.1104 106.727 83.3281 106.946C83.5458 107.166 83.668 107.464 83.6678 107.774C83.6677 108.085 83.5452 108.382 83.3273 108.602C83.1094 108.821 82.8139 108.944 82.5059 108.944ZM44.1625 126.496C43.8545 126.496 43.5591 126.373 43.3413 126.153C43.1235 125.934 43.0012 125.636 43.0012 125.326L43 117.136C43 116.826 43.1223 116.528 43.3401 116.308C43.5579 116.089 43.8533 115.966 44.1613 115.966C44.4693 115.966 44.7647 116.089 44.9824 116.308C45.2002 116.528 45.3226 116.826 45.3226 117.136L45.3237 125.326C45.3237 125.636 45.2014 125.934 44.9836 126.153C44.7658 126.373 44.4704 126.496 44.1625 126.496Z" fill="url(#paint1_linear_2058_7)"/>
<path d="M45.3237 127.666C44.0428 127.666 43.0012 126.617 43.0012 125.326C43.0012 125.015 43.1235 124.718 43.3413 124.498C43.5591 124.279 43.8545 124.155 44.1625 124.155C44.4704 124.155 44.7658 124.279 44.9836 124.498C45.2014 124.718 45.3237 125.015 45.3237 125.326V125.328C45.6314 125.328 45.9265 125.451 46.1441 125.671C46.3616 125.89 46.4839 126.187 46.4839 126.497C46.4839 126.807 46.3616 127.105 46.1441 127.324C45.9265 127.543 45.6314 127.666 45.3237 127.666Z" fill="url(#paint2_linear_2058_7)"/>
<path d="M102.227 127.666H45.3237C45.0157 127.666 44.7204 127.543 44.5026 127.324C44.2848 127.104 44.1625 126.806 44.1625 126.496C44.1625 126.186 44.2848 125.888 44.5026 125.669C44.7204 125.449 45.0157 125.326 45.3237 125.326H102.227C102.535 125.326 102.83 125.449 103.048 125.669C103.266 125.888 103.388 126.186 103.388 126.496C103.388 126.806 103.266 127.104 103.048 127.324C102.83 127.543 102.535 127.666 102.227 127.666ZM61.5806 108.944C61.2727 108.944 60.9773 108.821 60.7595 108.601C60.5417 108.382 60.4194 108.084 60.4194 107.774V101.065C60.4194 100.755 60.5417 100.457 60.7595 100.238C60.9773 100.018 61.2727 99.8951 61.5806 99.8951C61.8886 99.8951 62.184 100.018 62.4018 100.238C62.6196 100.457 62.7419 100.755 62.7419 101.065V107.774C62.7419 108.084 62.6196 108.382 62.4018 108.601C62.184 108.821 61.8886 108.944 61.5806 108.944ZM77.8387 108.942C77.5307 108.942 77.2353 108.818 77.0176 108.599C76.7998 108.379 76.6774 108.082 76.6774 107.771V101.065C76.6774 100.755 76.7998 100.457 77.0176 100.238C77.2353 100.018 77.5307 99.8951 77.8387 99.8951C78.1467 99.8951 78.4421 100.018 78.6599 100.238C78.8777 100.457 79 100.755 79 101.065V107.771C79 108.082 78.8777 108.379 78.6599 108.599C78.4421 108.818 78.1467 108.942 77.8387 108.942Z" fill="url(#paint3_linear_2058_7)"/>
<path d="M69.7097 104.26C59.4648 104.26 51.129 95.8599 51.129 85.5354C51.129 85.2251 51.2514 84.9274 51.4692 84.7079C51.687 84.4884 51.9823 84.3651 52.2903 84.3651C52.5983 84.3651 52.8937 84.4884 53.1115 84.7079C53.3293 84.9274 53.4516 85.2251 53.4516 85.5354C53.4516 94.5702 60.7445 101.92 69.7097 101.92C78.6748 101.92 85.9677 94.5702 85.9677 85.5354C85.9677 85.2251 86.0901 84.9274 86.3079 84.7079C86.5257 84.4884 86.821 84.3651 87.129 84.3651C87.437 84.3651 87.7324 84.4884 87.9502 84.7079C88.168 84.9274 88.2903 85.2251 88.2903 85.5354C88.2903 95.8599 79.9546 104.26 69.7097 104.26ZM87.129 76.173C86.821 76.173 86.5257 76.0497 86.3079 75.8302C86.0901 75.6108 85.9677 75.3131 85.9677 75.0027C85.9677 65.9679 78.6748 58.6184 69.7097 58.6184C60.7445 58.6184 53.4516 65.9679 53.4516 75.0027C53.4516 75.3131 53.3293 75.6108 53.1115 75.8302C52.8937 76.0497 52.5983 76.173 52.2903 76.173C51.9823 76.173 51.687 76.0497 51.4692 75.8302C51.2514 75.6108 51.129 75.3131 51.129 75.0027C51.129 64.6783 59.4648 56.2778 69.7097 56.2778C79.9546 56.2778 88.2903 64.6783 88.2903 75.0027C88.2903 75.3131 88.168 75.6108 87.9502 75.8302C87.7324 76.0497 87.437 76.173 87.129 76.173Z" fill="url(#paint4_linear_2058_7)"/>
<path d="M52.2903 86.7057C51.9823 86.7057 51.687 86.5824 51.4692 86.363C51.2514 86.1435 51.129 85.8458 51.129 85.5354V79.6839C51.129 79.3735 51.2514 79.0759 51.4692 78.8564C51.687 78.6369 51.9823 78.5136 52.2903 78.5136C52.5983 78.5136 52.8937 78.6369 53.1115 78.8564C53.3293 79.0759 53.4516 79.3735 53.4516 79.6839V85.5354C53.4516 85.8458 53.3293 86.1435 53.1115 86.363C52.8937 86.5824 52.5983 86.7057 52.2903 86.7057ZM87.129 86.7057C86.821 86.7057 86.5257 86.5824 86.3079 86.363C86.0901 86.1435 85.9677 85.8458 85.9677 85.5354V79.6839C85.9677 79.3735 86.0901 79.0759 86.3079 78.8564C86.5257 78.6369 86.821 78.5136 87.129 78.5136C87.437 78.5136 87.7324 78.6369 87.9502 78.8564C88.168 79.0759 88.2903 79.3735 88.2903 79.6839V85.5354C88.2903 85.8458 88.168 86.1435 87.9502 86.363C87.7324 86.5824 87.437 86.7057 87.129 86.7057Z" fill="url(#paint5_linear_2058_7)"/>
<path d="M89.4516 80.8542H49.9677C49.6597 80.8542 49.3644 80.7309 49.1466 80.5114C48.9288 80.292 48.8065 79.9943 48.8065 79.6839C48.8065 79.3735 48.9288 79.0759 49.1466 78.8564C49.3644 78.6369 49.6597 78.5136 49.9677 78.5136H89.4516C89.7596 78.5136 90.055 78.6369 90.2728 78.8564C90.4906 79.0759 90.6129 79.3735 90.6129 79.6839C90.6129 79.9943 90.4906 80.292 90.2728 80.5114C90.055 80.7309 89.7596 80.8542 89.4516 80.8542Z" fill="url(#paint6_linear_2058_7)"/>
<path d="M89.4516 80.8542C89.2895 80.8546 89.1291 80.8206 88.9809 80.7545C88.8326 80.6883 88.6998 80.5915 88.5911 80.4704C88.5597 80.4388 84.3466 76.173 69.7097 76.173C55.0728 76.173 50.8596 80.4388 50.8178 80.4821C50.6063 80.705 50.3165 80.8356 50.0106 80.8457C49.7047 80.8557 49.407 80.7445 49.1815 80.5359C48.9576 80.3279 48.8241 80.0393 48.8102 79.7327C48.7962 79.4261 48.903 79.1263 49.1072 78.8986C49.293 78.6903 53.8453 73.8324 69.7097 73.8324C85.5741 73.8324 90.1263 78.6903 90.3121 78.8975C90.4633 79.0653 90.5628 79.2738 90.5986 79.4976C90.6344 79.7214 90.605 79.9509 90.5138 80.1581C90.4227 80.3653 90.2738 80.5414 90.0852 80.665C89.8967 80.7886 89.6765 80.8543 89.4516 80.8542Z" fill="url(#paint7_linear_2058_7)"/>
<path d="M87.129 79.2837C86.821 79.2837 86.5257 79.1604 86.3079 78.9409C86.0901 78.7214 85.9677 78.4237 85.9677 78.1134V75.0027C85.9677 74.6923 86.0901 74.3946 86.3079 74.1752C86.5257 73.9557 86.821 73.8324 87.129 73.8324C87.437 73.8324 87.7324 73.9557 87.9502 74.1752C88.168 74.3946 88.2903 74.6923 88.2903 75.0027V78.1134C88.2903 78.4237 88.168 78.7214 87.9502 78.9409C87.7324 79.1604 87.437 79.2837 87.129 79.2837ZM52.2903 79.2837C51.9823 79.2837 51.687 79.1604 51.4692 78.9409C51.2514 78.7214 51.129 78.4237 51.129 78.1134V75.0027C51.129 74.6923 51.2514 74.3946 51.4692 74.1752C51.687 73.9557 51.9823 73.8324 52.2903 73.8324C52.5983 73.8324 52.8937 73.9557 53.1115 74.1752C53.3293 74.3946 53.4516 74.6923 53.4516 75.0027V78.1134C53.4516 78.4237 53.3293 78.7214 53.1115 78.9409C52.8937 79.1604 52.5983 79.2837 52.2903 79.2837ZM69.7097 71.4918C67.1479 71.4918 65.0645 69.3923 65.0645 66.8106C65.0645 64.2289 67.1479 62.1293 69.7097 62.1293C72.2715 62.1293 74.3548 64.2289 74.3548 66.8106C74.3548 69.3923 72.2715 71.4918 69.7097 71.4918ZM69.7097 64.47C68.4288 64.47 67.3871 65.5197 67.3871 66.8106C67.3871 68.1014 68.4288 69.1512 69.7097 69.1512C70.9906 69.1512 72.0323 68.1014 72.0323 66.8106C72.0323 65.5197 70.9906 64.47 69.7097 64.47ZM69.7097 58.6184C69.4017 58.6184 69.1063 58.4951 68.8885 58.2757C68.6707 58.0562 68.5484 57.7585 68.5484 57.4481V56.2778C68.5484 55.9674 68.6707 55.6698 68.8885 55.4503C69.1063 55.2308 69.4017 55.1075 69.7097 55.1075C70.0177 55.1075 70.3131 55.2308 70.5308 55.4503C70.7486 55.6698 70.871 55.9674 70.871 56.2778V57.4481C70.871 57.7585 70.7486 58.0562 70.5308 58.2757C70.3131 58.4951 70.0177 58.6184 69.7097 58.6184ZM66.2246 111.28C66.0452 111.28 65.8682 111.238 65.7079 111.157L61.0627 108.821C60.9228 108.755 60.7974 108.661 60.694 108.545C60.5906 108.429 60.5113 108.293 60.4606 108.146C60.4099 107.998 60.389 107.842 60.399 107.687C60.4089 107.531 60.4497 107.379 60.5188 107.24C60.5879 107.1 60.6839 106.976 60.8013 106.874C60.9187 106.773 61.055 106.696 61.2023 106.648C61.3496 106.601 61.5048 106.583 61.6589 106.597C61.813 106.61 61.9629 106.655 62.0997 106.727L66.7449 109.063C66.9787 109.181 67.1661 109.375 67.2767 109.614C67.3874 109.853 67.4149 110.122 67.3547 110.379C67.2945 110.635 67.1502 110.864 66.9451 111.027C66.74 111.191 66.4861 111.28 66.2246 111.28Z" fill="url(#paint8_linear_2058_7)"/>
<path d="M66.2258 111.28C65.9503 111.279 65.6841 111.179 65.4747 110.999C65.2652 110.819 65.1261 110.569 65.0822 110.295C65.0383 110.021 65.0923 109.74 65.2348 109.503C65.3773 109.265 65.5988 109.086 65.86 108.998L69.3439 107.832C69.6334 107.745 69.9453 107.775 70.2135 107.915C70.4816 108.056 70.6849 108.296 70.7802 108.585C70.8755 108.874 70.8553 109.189 70.724 109.463C70.5926 109.738 70.3605 109.95 70.0766 110.054L66.5928 111.22C66.4743 111.259 66.3505 111.279 66.2258 111.28ZM73.1947 111.28C72.9328 111.28 72.6784 111.192 72.4728 111.028C72.2672 110.864 72.1226 110.636 72.0623 110.379C72.0021 110.122 72.0297 109.852 72.1409 109.613C72.252 109.374 72.44 109.18 72.6745 109.062L77.3196 106.726C77.4564 106.653 77.6063 106.609 77.7604 106.595C77.9146 106.582 78.0698 106.599 78.2171 106.647C78.3644 106.695 78.5007 106.772 78.6181 106.873C78.7354 106.975 78.8315 107.099 78.9006 107.239C78.9697 107.378 79.0104 107.53 79.0204 107.686C79.0304 107.841 79.0094 107.997 78.9588 108.145C78.9081 108.292 78.8287 108.427 78.7253 108.543C78.6219 108.659 78.4966 108.753 78.3566 108.82L73.7115 111.156C73.5514 111.238 73.3743 111.28 73.1947 111.28Z" fill="url(#paint9_linear_2058_7)"/>
<path d="M73.1947 111.28C73.0739 111.28 72.9485 111.26 72.8277 111.22L69.3439 110.054C69.0668 109.945 68.842 109.732 68.7158 109.46C68.5896 109.188 68.5716 108.878 68.6655 108.593C68.7594 108.309 68.958 108.071 69.2205 107.929C69.483 107.788 69.7894 107.753 70.0766 107.832L73.5605 108.998C73.8204 109.087 74.0404 109.267 74.1817 109.504C74.323 109.741 74.3764 110.022 74.3324 110.295C74.2885 110.568 74.1501 110.817 73.9416 110.997C73.7332 111.177 73.4694 111.277 73.1947 111.28ZM105.709 92.5257C99.3052 92.5257 94.0956 87.2757 94.0956 80.8226C94.0956 74.3696 99.3052 69.1196 105.709 69.1196C112.112 69.1196 117.321 74.3696 117.321 80.8226C117.321 87.2757 112.112 92.5257 105.709 92.5257ZM105.709 71.4602C100.586 71.4602 96.4182 75.6604 96.4182 80.8226C96.4182 85.9848 100.586 90.1851 105.709 90.1851C110.831 90.1851 114.999 85.9848 114.999 80.8226C114.999 75.6604 110.831 71.4602 105.709 71.4602Z" fill="url(#paint10_linear_2058_7)"/>
<path d="M105.709 71.4649C104.327 71.4633 103.002 70.9095 102.024 69.9249C101.047 68.9402 100.497 67.6052 100.495 66.2125C100.495 63.3149 102.834 60.9579 105.709 60.9579C108.583 60.9579 110.922 63.316 110.922 66.2125C110.92 67.6052 110.37 68.9402 109.393 69.9249C108.415 70.9095 107.09 71.4633 105.709 71.4649ZM105.709 63.2973C104.942 63.2982 104.207 63.6056 103.665 64.1519C103.123 64.6982 102.819 65.4389 102.818 66.2114C102.818 67.817 104.114 69.1231 105.709 69.1231C107.303 69.1231 108.599 67.817 108.599 66.2114C108.598 65.4389 108.294 64.6982 107.752 64.1519C107.21 63.6056 106.475 63.2982 105.709 63.2973Z" fill="url(#paint11_linear_2058_7)"/>
<path d="M105.709 71.4625C105.401 71.4625 105.105 71.3392 104.887 71.1197C104.67 70.9003 104.547 70.6026 104.547 70.2922V66.7813C104.547 66.4709 104.67 66.1732 104.887 65.9538C105.105 65.7343 105.401 65.611 105.709 65.611C106.017 65.611 106.312 65.7343 106.53 65.9538C106.747 66.1732 106.87 66.4709 106.87 66.7813V70.2922C106.87 70.6026 106.747 70.9003 106.53 71.1197C106.312 71.3392 106.017 71.4625 105.709 71.4625Z" fill="url(#paint12_linear_2058_7)"/>
<path d="M106.87 67.9516H104.547C104.239 67.9516 103.944 67.8283 103.726 67.6088C103.508 67.3894 103.386 67.0917 103.386 66.7813C103.386 66.4709 103.508 66.1732 103.726 65.9538C103.944 65.7343 104.239 65.611 104.547 65.611H106.87C107.178 65.611 107.473 65.7343 107.691 65.9538C107.909 66.1732 108.031 66.4709 108.031 66.7813C108.031 67.0917 107.909 67.3894 107.691 67.6088C107.473 67.8283 107.178 67.9516 106.87 67.9516ZM105.71 72.6328C105.402 72.6328 105.106 72.5095 104.889 72.2901C104.671 72.0706 104.548 71.7729 104.548 71.4625L104.547 70.2922C104.547 69.9818 104.671 69.6842 104.889 69.4647C105.106 69.2452 105.402 69.1219 105.71 69.1219C106.018 69.1219 106.313 69.2452 106.531 69.4647C106.749 69.6842 106.87 69.9818 106.87 70.2922L106.871 71.4625C106.871 71.7729 106.749 72.0706 106.531 72.2901C106.313 72.5095 106.018 72.6328 105.71 72.6328ZM105.71 92.5233C105.402 92.5233 105.106 92.4 104.889 92.1806C104.671 91.9611 104.548 91.6634 104.548 91.353V90.1827C104.548 89.8723 104.671 89.5747 104.889 89.3552C105.106 89.1357 105.402 89.0124 105.71 89.0124C106.018 89.0124 106.313 89.1357 106.531 89.3552C106.749 89.5747 106.871 89.8723 106.871 90.1827V91.353C106.871 91.6634 106.749 91.9611 106.531 92.1806C106.313 92.4 106.018 92.5233 105.71 92.5233ZM101.067 73.8851C100.863 73.8855 100.662 73.8316 100.485 73.7289C100.309 73.6261 100.162 73.4781 100.06 73.2999L99.4794 72.2876C99.3278 72.0189 99.2878 71.7008 99.3682 71.4025C99.4485 71.1043 99.6427 70.8502 99.9082 70.6957C100.174 70.5411 100.489 70.4987 100.786 70.5777C101.082 70.6567 101.336 70.8507 101.491 71.1173L102.071 72.1296C102.173 72.3074 102.227 72.5091 102.227 72.7144C102.227 72.9198 102.173 73.1215 102.072 73.2994C101.97 73.4773 101.823 73.625 101.647 73.7278C101.471 73.8306 101.271 73.8848 101.067 73.8851ZM110.935 91.1131C110.731 91.1134 110.531 91.0594 110.354 90.9564C110.177 90.8535 110.03 90.7052 109.929 90.5268L109.348 89.5121C109.266 89.3788 109.211 89.2302 109.187 89.0752C109.164 88.9202 109.171 88.762 109.209 88.6098C109.247 88.4577 109.315 88.3148 109.409 88.1897C109.502 88.0646 109.62 87.9597 109.755 87.8814C109.89 87.8031 110.039 87.7529 110.194 87.7338C110.348 87.7147 110.505 87.7271 110.655 87.7703C110.804 87.8135 110.944 87.8865 111.065 87.9851C111.186 88.0837 111.286 88.2058 111.359 88.3442L111.94 89.3588C112.042 89.5366 112.095 89.7382 112.095 89.9434C112.095 90.1485 112.041 90.35 111.939 90.5277C111.838 90.7054 111.691 90.853 111.515 90.9558C111.339 91.0585 111.139 91.1128 110.935 91.1131ZM97.6643 77.3117C97.4607 77.3119 97.2608 77.2578 97.0848 77.1549L96.0803 76.5697C95.9482 76.4929 95.8324 76.3906 95.7396 76.2687C95.6468 76.1467 95.5787 76.0076 95.5392 75.8591C95.4997 75.7107 95.4897 75.5559 95.5096 75.4035C95.5295 75.2511 95.579 75.1042 95.6552 74.9711C95.7315 74.838 95.833 74.7214 95.954 74.6278C96.075 74.5342 96.2131 74.4656 96.3604 74.4258C96.5077 74.3861 96.6613 74.3759 96.8125 74.396C96.9637 74.416 97.1095 74.4659 97.2416 74.5428L98.2461 75.1279C98.4684 75.2562 98.6424 75.455 98.7408 75.6934C98.8393 75.9318 98.8566 76.1964 98.7902 76.4457C98.7238 76.6951 98.5773 76.9153 98.3736 77.072C98.1699 77.2286 97.9205 77.3129 97.6643 77.3117ZM114.758 87.2593C114.554 87.2597 114.354 87.2051 114.178 87.1013L113.172 86.5138C113.04 86.437 112.924 86.3347 112.832 86.2127C112.739 86.0907 112.671 85.9514 112.631 85.8029C112.592 85.6544 112.582 85.4995 112.603 85.3472C112.623 85.1949 112.673 85.048 112.749 84.9152C112.826 84.7819 112.927 84.6652 113.048 84.5716C113.169 84.478 113.307 84.4094 113.455 84.3699C113.602 84.3303 113.756 84.3204 113.907 84.3409C114.058 84.3614 114.204 84.4118 114.336 84.4892L115.341 85.0767C115.562 85.2059 115.735 85.4049 115.832 85.6429C115.93 85.8809 115.946 86.1446 115.88 86.3932C115.814 86.6418 115.668 86.8614 115.465 87.0179C115.262 87.1745 115.014 87.2594 114.758 87.2593ZM96.4205 81.9906H95.2604C94.9524 81.9906 94.657 81.8673 94.4392 81.6478C94.2214 81.4283 94.0991 81.1307 94.0991 80.8203C94.0991 80.5099 94.2214 80.2122 94.4392 79.9927C94.657 79.7733 94.9524 79.65 95.2604 79.65H96.4205C96.7285 79.65 97.0239 79.7733 97.2417 79.9927C97.4595 80.2122 97.5818 80.5099 97.5818 80.8203C97.5818 81.1307 97.4595 81.4283 97.2417 81.6478C97.0239 81.8673 96.7285 81.9906 96.4205 81.9906ZM116.16 81.9929H116.158L114.995 81.9906C114.687 81.9903 114.392 81.8667 114.175 81.647C113.957 81.4273 113.835 81.1295 113.835 80.8191C113.836 80.5087 113.958 80.2112 114.176 79.9919C114.394 79.7727 114.69 79.6497 114.998 79.65H115L116.162 79.6523C116.47 79.6526 116.766 79.7762 116.983 79.9959C117.201 80.2156 117.323 80.5134 117.323 80.8238C117.322 81.1342 117.2 81.4317 116.982 81.651C116.764 81.8702 116.468 81.9932 116.16 81.9929ZM96.6597 87.2546C96.4034 87.2558 96.1538 87.1713 95.9501 87.0144C95.7464 86.8575 95.6 86.637 95.5338 86.3874C95.4676 86.1377 95.4853 85.8731 95.5842 85.6346C95.683 85.3962 95.8575 85.1976 96.0803 85.0697L97.0859 84.4868C97.3517 84.3496 97.6598 84.3208 97.9461 84.4063C98.2324 84.4918 98.4751 84.685 98.6239 84.946C98.7726 85.207 98.816 85.5156 98.745 85.808C98.674 86.1003 98.4941 86.3539 98.2426 86.5162L97.2369 87.099C97.0614 87.201 96.8624 87.2547 96.6597 87.2546ZM113.755 77.3117C113.499 77.3117 113.251 77.2267 113.048 77.0699C112.845 76.913 112.7 76.6931 112.633 76.4443C112.567 76.1955 112.584 75.9316 112.682 75.6936C112.78 75.4556 112.953 75.2567 113.174 75.1279L114.181 74.5428C114.314 74.4601 114.461 74.4051 114.615 74.381C114.769 74.3569 114.926 74.3642 115.077 74.4025C115.228 74.4407 115.369 74.5092 115.494 74.6038C115.618 74.6984 115.722 74.8172 115.799 74.9531C115.877 75.089 115.927 75.2393 115.946 75.395C115.965 75.5507 115.953 75.7086 115.91 75.8595C115.867 76.0103 115.794 76.1509 115.697 76.2729C115.599 76.3949 115.478 76.4958 115.34 76.5697L114.333 77.1549C114.158 77.2577 113.958 77.3118 113.755 77.3117ZM100.482 91.1108C100.278 91.1109 100.077 91.0569 99.9008 90.9542C99.7242 90.8515 99.5776 90.7037 99.4757 90.5257C99.3739 90.3477 99.3204 90.1458 99.3206 89.9403C99.3208 89.7349 99.3748 89.5331 99.477 89.3553L100.058 88.343C100.133 88.2088 100.235 88.0911 100.356 87.9965C100.477 87.9019 100.615 87.8324 100.763 87.792C100.911 87.7516 101.065 87.741 101.217 87.7609C101.369 87.7808 101.515 87.8308 101.648 87.9079C101.78 87.9851 101.897 88.0879 101.99 88.2105C102.083 88.3331 102.151 88.4731 102.19 88.6223C102.229 88.7715 102.239 88.9271 102.218 89.08C102.197 89.2329 102.146 89.3802 102.069 89.5133L101.488 90.5256C101.387 90.7039 101.24 90.8518 101.063 90.9546C100.886 91.0573 100.686 91.1112 100.482 91.1108ZM110.353 73.8851C110.149 73.8852 109.948 73.8312 109.772 73.7285C109.595 73.6258 109.449 73.478 109.347 73.3C109.245 73.122 109.191 72.9201 109.192 72.7146C109.192 72.5091 109.246 72.3074 109.348 72.1296L109.93 71.1149C110.084 70.8462 110.337 70.65 110.635 70.5697C110.932 70.4894 111.249 70.5314 111.516 70.6866C111.783 70.8418 111.977 71.0974 112.057 71.3972C112.137 71.697 112.095 72.0165 111.941 72.2852L111.359 73.2999C111.258 73.4781 111.111 73.6261 110.934 73.7289C110.757 73.8316 110.557 73.8855 110.353 73.8851ZM105.709 81.9953C105.401 81.9953 105.105 81.872 104.887 81.6525C104.67 81.433 104.547 81.1353 104.547 80.825V74.9734C104.547 74.6631 104.67 74.3654 104.887 74.1459C105.105 73.9264 105.401 73.8031 105.709 73.8031C106.017 73.8031 106.312 73.9264 106.53 74.1459C106.747 74.3654 106.87 74.6631 106.87 74.9734V80.825C106.87 81.1353 106.747 81.433 106.53 81.6525C106.312 81.872 106.017 81.9953 105.709 81.9953Z" fill="url(#paint13_linear_2058_7)"/>
<path d="M81.3226 127.666H60.4182C60.1102 127.666 59.8148 127.543 59.597 127.324C59.3793 127.104 59.2569 126.806 59.2569 126.496C59.2569 126.186 59.3793 125.888 59.597 125.669C59.8148 125.449 60.1102 125.326 60.4182 125.326H81.3226C81.6306 125.326 81.926 125.449 82.1437 125.669C82.3615 125.888 82.4839 126.186 82.4839 126.496C82.4839 126.806 82.3615 127.104 82.1437 127.324C81.926 127.543 81.6306 127.666 81.3226 127.666Z" fill="url(#paint14_linear_2058_7)"/>
<path d="M116.161 123.01H76.6774C76.3694 123.01 76.074 122.886 75.8563 122.667C75.6385 122.448 75.5161 122.15 75.5161 121.839C75.5161 121.529 75.6385 121.231 75.8563 121.012C76.074 120.792 76.3694 120.669 76.6774 120.669H116.161C116.469 120.669 116.765 120.792 116.982 121.012C117.2 121.231 117.323 121.529 117.323 121.839C117.323 122.15 117.2 122.448 116.982 122.667C116.765 122.886 116.469 123.01 116.161 123.01Z" fill="url(#paint15_linear_2058_7)"/>
<path d="M81.3226 127.666C78.7608 127.666 76.6774 125.567 76.6774 122.985C76.6774 122.675 76.7998 122.377 77.0176 122.158C77.2353 121.938 77.5307 121.815 77.8387 121.815C78.1467 121.815 78.4421 121.938 78.6599 122.158C78.8777 122.377 79 122.675 79 122.985C79 124.276 80.0417 125.326 81.3226 125.326C81.6306 125.326 81.926 125.449 82.1437 125.669C82.3615 125.888 82.4839 126.186 82.4839 126.496C82.4839 126.806 82.3615 127.104 82.1437 127.324C81.926 127.543 81.6306 127.666 81.3226 127.666ZM111.516 127.666C111.208 127.666 110.913 127.543 110.695 127.324C110.477 127.104 110.355 126.806 110.355 126.496C110.355 126.186 110.477 125.888 110.695 125.669C110.913 125.449 111.208 125.326 111.516 125.326C112.797 125.326 113.839 124.276 113.839 122.985C113.839 122.675 113.961 122.377 114.179 122.158C114.397 121.938 114.692 121.815 115 121.815C115.308 121.815 115.603 121.938 115.821 122.158C116.039 122.377 116.161 122.675 116.161 122.985C116.161 125.567 114.078 127.666 111.516 127.666Z" fill="url(#paint16_linear_2058_7)"/>
<path d="M77.8387 124.155C77.5307 124.155 77.2353 124.032 77.0176 123.813C76.7998 123.593 76.6774 123.296 76.6774 122.985V121.813C76.6774 121.502 76.7998 121.204 77.0176 120.985C77.2353 120.766 77.5307 120.642 77.8387 120.642C78.1467 120.642 78.4421 120.766 78.6599 120.985C78.8777 121.204 79 121.502 79 121.813V122.985C79 123.296 78.8777 123.593 78.6599 123.813C78.4421 124.032 78.1467 124.155 77.8387 124.155ZM115 124.155C114.692 124.155 114.397 124.032 114.179 123.813C113.961 123.593 113.839 123.296 113.839 122.985V121.813C113.839 121.502 113.961 121.204 114.179 120.985C114.397 120.766 114.692 120.642 115 120.642C115.308 120.642 115.603 120.766 115.821 120.985C116.039 121.204 116.161 121.502 116.161 121.813V122.985C116.161 123.296 116.039 123.593 115.821 123.813C115.603 124.032 115.308 124.155 115 124.155ZM113.826 119.488C113.518 119.488 113.223 119.365 113.005 119.146C112.787 118.926 112.665 118.628 112.665 118.318C112.665 109.29 105.376 101.945 96.4182 101.945C87.46 101.945 80.1729 109.29 80.1729 118.318C80.1729 118.628 80.0506 118.926 79.8328 119.146C79.615 119.365 79.3196 119.488 79.0116 119.488C78.7036 119.488 78.4082 119.365 78.1905 119.146C77.9727 118.926 77.8503 118.628 77.8503 118.318C77.8503 107.999 86.1803 99.6048 96.4182 99.6048C106.657 99.6048 114.987 107.999 114.987 118.318C114.987 118.628 114.865 118.926 114.647 119.146C114.429 119.365 114.134 119.488 113.826 119.488Z" fill="url(#paint17_linear_2058_7)"/>
<path d="M79 122.983C78.692 122.983 78.3966 122.86 78.1788 122.64C77.9611 122.421 77.8387 122.123 77.8387 121.813V118.318C77.8387 118.008 77.9611 117.71 78.1788 117.49C78.3966 117.271 78.692 117.148 79 117.148C79.308 117.148 79.6034 117.271 79.8212 117.49C80.0389 117.71 80.1613 118.008 80.1613 118.318V121.813C80.1613 122.123 80.0389 122.421 79.8212 122.64C79.6034 122.86 79.308 122.983 79 122.983ZM113.839 122.983C113.531 122.983 113.235 122.86 113.018 122.64C112.8 122.421 112.677 122.123 112.677 121.813V118.318C112.677 118.008 112.8 117.71 113.018 117.49C113.235 117.271 113.531 117.148 113.839 117.148C114.147 117.148 114.442 117.271 114.66 117.49C114.878 117.71 115 118.008 115 118.318V121.813C115 122.123 114.878 122.421 114.66 122.64C114.442 122.86 114.147 122.983 113.839 122.983ZM96.4194 101.944C94.4986 101.944 92.9355 100.369 92.9355 98.4334C92.9355 96.4977 94.4986 94.9225 96.4194 94.9225C98.3401 94.9225 99.9032 96.4977 99.9032 98.4334C99.9032 100.369 98.3401 101.944 96.4194 101.944ZM96.4194 97.2631C96.1114 97.2631 95.816 97.3864 95.5982 97.6058C95.3804 97.8253 95.2581 98.123 95.2581 98.4334C95.2581 98.7438 95.3804 99.0414 95.5982 99.2609C95.816 99.4804 96.1114 99.6037 96.4194 99.6037C96.7274 99.6037 97.0227 99.4804 97.2405 99.2609C97.4583 99.0414 97.5806 98.7438 97.5806 98.4334C97.5806 98.123 97.4583 97.8253 97.2405 97.6058C97.0227 97.3864 96.7274 97.2631 96.4194 97.2631ZM111.516 127.666H81.3226C81.0146 127.666 80.7192 127.543 80.5014 127.324C80.2836 127.104 80.1613 126.806 80.1613 126.496C80.1613 126.186 80.2836 125.888 80.5014 125.669C80.7192 125.449 81.0146 125.326 81.3226 125.326H111.516C111.824 125.326 112.12 125.449 112.337 125.669C112.555 125.888 112.677 126.186 112.677 126.496C112.677 126.806 112.555 127.104 112.337 127.324C112.12 127.543 111.824 127.666 111.516 127.666Z" fill="url(#paint18_linear_2058_7)"/>
<defs>
<linearGradient id="paint0_linear_2058_7" x1="119.162" y1="127.666" x2="40.56" y2="127.666" gradientUnits="userSpaceOnUse">
<stop stop-color="#FF5A2F"/>
<stop offset="1" stop-color="#FF6C44"/>
</linearGradient>
<linearGradient id="paint1_linear_2058_7" x1="119.162" y1="127.666" x2="40.56" y2="127.666" gradientUnits="userSpaceOnUse">
<stop stop-color="#FF5A2F"/>
<stop offset="1" stop-color="#FF6C44"/>
</linearGradient>
<linearGradient id="paint2_linear_2058_7" x1="119.162" y1="127.666" x2="40.56" y2="127.666" gradientUnits="userSpaceOnUse">
<stop stop-color="#FF5A2F"/>
<stop offset="1" stop-color="#FF6C44"/>
</linearGradient>
<linearGradient id="paint3_linear_2058_7" x1="119.162" y1="127.666" x2="40.56" y2="127.666" gradientUnits="userSpaceOnUse">
<stop stop-color="#FF5A2F"/>
<stop offset="1" stop-color="#FF6C44"/>
</linearGradient>
<linearGradient id="paint4_linear_2058_7" x1="119.162" y1="127.666" x2="40.56" y2="127.666" gradientUnits="userSpaceOnUse">
<stop stop-color="#FF5A2F"/>
<stop offset="1" stop-color="#FF6C44"/>
</linearGradient>
<linearGradient id="paint5_linear_2058_7" x1="119.162" y1="127.666" x2="40.56" y2="127.666" gradientUnits="userSpaceOnUse">
<stop stop-color="#FF5A2F"/>
<stop offset="1" stop-color="#FF6C44"/>
</linearGradient>
<linearGradient id="paint6_linear_2058_7" x1="119.162" y1="127.666" x2="40.56" y2="127.666" gradientUnits="userSpaceOnUse">
<stop stop-color="#FF5A2F"/>
<stop offset="1" stop-color="#FF6C44"/>
</linearGradient>
<linearGradient id="paint7_linear_2058_7" x1="119.162" y1="127.666" x2="40.56" y2="127.666" gradientUnits="userSpaceOnUse">
<stop stop-color="#FF5A2F"/>
<stop offset="1" stop-color="#FF6C44"/>
</linearGradient>
<linearGradient id="paint8_linear_2058_7" x1="119.162" y1="127.666" x2="40.56" y2="127.666" gradientUnits="userSpaceOnUse">
<stop stop-color="#FF5A2F"/>
<stop offset="1" stop-color="#FF6C44"/>
</linearGradient>
<linearGradient id="paint9_linear_2058_7" x1="119.162" y1="127.666" x2="40.56" y2="127.666" gradientUnits="userSpaceOnUse">
<stop stop-color="#FF5A2F"/>
<stop offset="1" stop-color="#FF6C44"/>
</linearGradient>
<linearGradient id="paint10_linear_2058_7" x1="119.162" y1="127.666" x2="40.56" y2="127.666" gradientUnits="userSpaceOnUse">
<stop stop-color="#FF5A2F"/>
<stop offset="1" stop-color="#FF6C44"/>
</linearGradient>
<linearGradient id="paint11_linear_2058_7" x1="119.162" y1="127.666" x2="40.56" y2="127.666" gradientUnits="userSpaceOnUse">
<stop stop-color="#FF5A2F"/>
<stop offset="1" stop-color="#FF6C44"/>
</linearGradient>
<linearGradient id="paint12_linear_2058_7" x1="119.162" y1="127.666" x2="40.56" y2="127.666" gradientUnits="userSpaceOnUse">
<stop stop-color="#FF5A2F"/>
<stop offset="1" stop-color="#FF6C44"/>
</linearGradient>
<linearGradient id="paint13_linear_2058_7" x1="119.162" y1="127.666" x2="40.56" y2="127.666" gradientUnits="userSpaceOnUse">
<stop stop-color="#FF5A2F"/>
<stop offset="1" stop-color="#FF6C44"/>
</linearGradient>
<linearGradient id="paint14_linear_2058_7" x1="119.162" y1="127.666" x2="40.56" y2="127.666" gradientUnits="userSpaceOnUse">
<stop stop-color="#FF5A2F"/>
<stop offset="1" stop-color="#FF6C44"/>
</linearGradient>
<linearGradient id="paint15_linear_2058_7" x1="119.162" y1="127.666" x2="40.56" y2="127.666" gradientUnits="userSpaceOnUse">
<stop stop-color="#FF5A2F"/>
<stop offset="1" stop-color="#FF6C44"/>
</linearGradient>
<linearGradient id="paint16_linear_2058_7" x1="119.162" y1="127.666" x2="40.56" y2="127.666" gradientUnits="userSpaceOnUse">
<stop stop-color="#FF5A2F"/>
<stop offset="1" stop-color="#FF6C44"/>
</linearGradient>
<linearGradient id="paint17_linear_2058_7" x1="119.162" y1="127.666" x2="40.56" y2="127.666" gradientUnits="userSpaceOnUse">
<stop stop-color="#FF5A2F"/>
<stop offset="1" stop-color="#FF6C44"/>
</linearGradient>
<linearGradient id="paint18_linear_2058_7" x1="119.162" y1="127.666" x2="40.56" y2="127.666" gradientUnits="userSpaceOnUse">
<stop stop-color="#FF5A2F"/>
<stop offset="1" stop-color="#FF6C44"/>
</linearGradient>
</defs>
</svg>
