<svg width="160" height="180" viewBox="0 0 160 180" fill="none" xmlns="http://www.w3.org/2000/svg">
<rect width="160" height="180" rx="25" fill="white"/>
<path d="M118.75 118.723H41.2504C41.0603 118.723 40.8727 118.68 40.7018 118.596C40.5309 118.512 40.3813 118.39 40.2643 118.239C40.1474 118.088 40.0661 117.912 40.0269 117.725C39.9876 117.538 39.9914 117.344 40.0379 117.158L48.7879 81.8863C48.8742 81.569 49.0803 81.2983 49.3622 81.1321C49.644 80.966 49.9791 80.9175 50.2959 80.9972C50.6127 81.0768 50.886 81.2782 51.0574 81.5583C51.2287 81.8384 51.2845 82.175 51.2129 82.496L42.8516 116.203H117.149L111.81 94.6824C111.77 94.5219 111.762 94.355 111.786 94.1914C111.81 94.0277 111.866 93.8704 111.951 93.7286C112.035 93.5867 112.147 93.4631 112.279 93.3648C112.411 93.2665 112.561 93.1954 112.72 93.1556C112.88 93.1153 113.045 93.107 113.208 93.1313C113.37 93.1556 113.526 93.2119 113.667 93.2971C113.808 93.3823 113.93 93.4947 114.028 93.6278C114.125 93.7609 114.196 93.912 114.235 94.0727L119.963 117.158C120.009 117.344 120.013 117.538 119.974 117.725C119.935 117.912 119.853 118.088 119.736 118.239C119.619 118.39 119.47 118.512 119.299 118.596C119.128 118.68 118.94 118.723 118.75 118.723Z" fill="url(#paint0_linear_2058_4)"/>
<path d="M80 118.722C79.6685 118.722 79.3505 118.59 79.1161 118.354C78.8817 118.117 78.75 117.797 78.75 117.463C78.75 108.126 85.8662 104.091 93.4012 99.8181L94.5288 99.1782C94.6716 99.0968 94.8289 99.0445 94.9917 99.0244C95.1546 99.0043 95.3198 99.0167 95.4779 99.0609C95.6359 99.1051 95.7838 99.1803 95.9131 99.2821C96.0424 99.3839 96.1505 99.5104 96.2312 99.6543C96.312 99.7983 96.3639 99.9568 96.3838 100.121C96.4038 100.285 96.3915 100.451 96.3476 100.611C96.3037 100.77 96.2291 100.919 96.1281 101.049C96.0271 101.18 95.9016 101.289 95.7587 101.37L94.6262 102.014C87.1537 106.253 81.25 109.598 81.25 117.463C81.25 117.797 81.1183 118.117 80.8839 118.354C80.6495 118.59 80.3315 118.722 80 118.722ZM41.25 123.761C40.9185 123.761 40.6005 123.629 40.3661 123.392C40.1317 123.156 40 122.836 40 122.502V117.463C40 117.129 40.1317 116.808 40.3661 116.572C40.6005 116.336 40.9185 116.203 41.25 116.203C41.5815 116.203 41.8995 116.336 42.1339 116.572C42.3683 116.808 42.5 117.129 42.5 117.463V122.502C42.5 122.836 42.3683 123.156 42.1339 123.392C41.8995 123.629 41.5815 123.761 41.25 123.761Z" fill="url(#paint1_linear_2058_4)"/>
<path d="M118.75 123.761L41.25 123.761C40.9185 123.761 40.6005 123.629 40.3661 123.392C40.1317 123.156 40 122.836 40 122.502C40 122.167 40.1317 121.847 40.3661 121.611C40.6005 121.375 40.9185 121.242 41.25 121.242H118.75C119.082 121.242 119.399 121.375 119.634 121.611C119.868 121.847 120 122.168 120 122.502C120 122.836 119.868 123.156 119.634 123.392C119.399 123.629 119.082 123.761 118.75 123.761Z" fill="url(#paint2_linear_2058_4)"/>
<path d="M118.751 123.237C118.419 123.237 118.101 123.104 117.867 122.868C117.632 122.632 117.501 122.312 117.501 121.977V117.463C117.501 117.129 117.632 116.808 117.867 116.572C118.101 116.336 118.419 116.203 118.751 116.203C119.082 116.203 119.4 116.336 119.634 116.572C119.869 116.808 120.001 117.129 120.001 117.463V121.977C120.001 122.312 119.869 122.632 119.634 122.868C119.4 123.104 119.082 123.237 118.751 123.237ZM80.0005 123.761C79.669 123.761 79.3511 123.628 79.1167 123.392C78.8822 123.156 78.7505 122.836 78.7505 122.502L78.75 117.463C78.75 117.129 78.8822 116.808 79.1167 116.572C79.3511 116.336 79.669 116.203 80.0005 116.203C80.3321 116.203 80.65 116.336 80.8844 116.572C81.1189 116.808 81.25 117.129 81.25 117.463L81.2505 122.502C81.2505 122.836 81.1189 123.156 80.8844 123.392C80.65 123.628 80.3321 123.761 80.0005 123.761ZM42.5018 113.684C42.2312 113.685 41.9676 113.597 41.7505 113.435C41.5335 113.272 41.3748 113.042 41.2984 112.781C41.222 112.519 41.2319 112.239 41.3268 111.984C41.4216 111.729 41.5962 111.511 41.8243 111.364C47.8955 107.43 53.8093 105.673 59.0268 104.124C69.4243 101.035 77.6368 98.5936 83.8293 81.7526C83.8841 81.5947 83.9697 81.4493 84.0809 81.325C84.1922 81.2007 84.3269 81.1 84.4772 81.0288C84.6275 80.9575 84.7903 80.9172 84.9563 80.9101C85.1222 80.903 85.2879 80.9293 85.4436 80.9875C85.5993 81.0457 85.742 81.1345 85.8633 81.2489C85.9845 81.3633 86.082 81.5009 86.1499 81.6536C86.2178 81.8063 86.2548 81.9712 86.2588 82.1385C86.2628 82.3058 86.2336 82.4723 86.173 82.6281C79.5455 100.653 70.3655 103.382 59.7343 106.539C54.4318 108.114 48.9481 109.743 43.1781 113.482C42.9768 113.614 42.7418 113.684 42.5018 113.684Z" fill="url(#paint3_linear_2058_4)"/>
<path d="M65 94.7882C61.3775 94.7882 51.25 79.2522 51.25 72.1135C51.25 64.4734 57.4187 58.2568 65 58.2568C72.5812 58.2568 78.75 64.4734 78.75 72.1135C78.75 79.2522 68.6225 94.7882 65 94.7882ZM65 60.7762C58.7962 60.7762 53.75 65.8616 53.75 72.1135C53.75 78.48 62.7862 91.2837 65 92.2423C67.2137 91.2824 76.25 78.4788 76.25 72.1135C76.25 65.8616 71.2037 60.7762 65 60.7762ZM102.5 109.905C98.8775 109.905 88.75 94.3687 88.75 87.2299C88.75 79.5898 94.9187 73.3732 102.5 73.3732C110.081 73.3732 116.25 79.5898 116.25 87.2299C116.25 94.3687 106.122 109.905 102.5 109.905ZM102.5 75.8926C96.2962 75.8926 91.25 80.978 91.25 87.2299C91.25 93.5965 100.286 106.4 102.5 107.359C104.714 106.399 113.75 93.5952 113.75 87.2299C113.75 80.978 108.704 75.8926 102.5 75.8926Z" fill="url(#paint4_linear_2058_4)"/>
<path d="M55.9275 83.4508H50C49.6685 83.4508 49.3505 83.3181 49.1161 83.0819C48.8817 82.8456 48.75 82.5252 48.75 82.1911C48.75 81.857 48.8817 81.5366 49.1161 81.3004C49.3505 81.0641 49.6685 80.9314 50 80.9314H55.9275C56.259 80.9314 56.577 81.0641 56.8114 81.3004C57.0458 81.5366 57.1775 81.857 57.1775 82.1911C57.1775 82.5252 57.0458 82.8456 56.8114 83.0819C56.577 83.3181 56.259 83.4508 55.9275 83.4508ZM91.0425 83.4508H74.075C73.7435 83.4508 73.4255 83.3181 73.1911 83.0819C72.9567 82.8456 72.825 82.5252 72.825 82.1911C72.825 81.857 72.9567 81.5366 73.1911 81.3004C73.4255 81.0641 73.7435 80.9314 74.075 80.9314H91.0425C91.374 80.9314 91.692 81.0641 91.9264 81.3004C92.1608 81.5366 92.2925 81.857 92.2925 82.1911C92.2925 82.5252 92.1608 82.8456 91.9264 83.0819C91.692 83.3181 91.374 83.4508 91.0425 83.4508Z" fill="url(#paint5_linear_2058_4)"/>
<path d="M72.4915 75.8889H57.494C57.1625 75.8889 56.8446 75.7562 56.6102 75.5199C56.3757 75.2837 56.244 74.9633 56.244 74.6292C56.244 74.2951 56.3757 73.9747 56.6102 73.7384C56.8446 73.5022 57.1625 73.3695 57.494 73.3695H72.4915C72.8231 73.3695 73.141 73.5022 73.3754 73.7384C73.6098 73.9747 73.7415 74.2951 73.7415 74.6292C73.7415 74.9633 73.6098 75.2837 73.3754 75.5199C73.141 75.7562 72.8231 75.8889 72.4915 75.8889Z" fill="url(#paint6_linear_2058_4)"/>
<path d="M71.2416 73.3719C70.91 73.3719 70.5921 73.2392 70.3577 73.0029C70.1233 72.7667 69.9916 72.4463 69.9916 72.1122C69.9899 70.7767 69.4627 69.4963 68.5256 68.552C67.5886 67.6076 66.3181 67.0763 64.9928 67.0746C62.2353 67.0746 59.9928 69.3346 59.9928 72.1122C59.9928 72.4463 59.8611 72.7667 59.6267 73.0029C59.3923 73.2392 59.0743 73.3719 58.7428 73.3719C58.4113 73.3719 58.0934 73.2392 57.8589 73.0029C57.6245 72.7667 57.4928 72.4463 57.4928 72.1122C57.4951 70.1085 58.2861 68.1875 59.6922 66.7708C61.0982 65.354 63.0045 64.5572 64.9928 64.5552C66.9809 64.5576 68.8869 65.3545 70.2927 66.7712C71.6985 68.1879 72.4893 70.1087 72.4916 72.1122C72.4916 72.4463 72.3599 72.7667 72.1255 73.0029C71.891 73.2392 71.5731 73.3719 71.2416 73.3719Z" fill="url(#paint7_linear_2058_4)"/>
<path d="M58.744 75.8888C58.4125 75.8888 58.0946 75.7561 57.8602 75.5199C57.6257 75.2836 57.494 74.9632 57.494 74.6291V72.1097C57.494 71.7756 57.6257 71.4552 57.8602 71.219C58.0946 70.9827 58.4125 70.85 58.744 70.85C59.0756 70.85 59.3935 70.9827 59.6279 71.219C59.8623 71.4552 59.994 71.7756 59.994 72.1097V74.6291C59.994 74.9632 59.8623 75.2836 59.6279 75.5199C59.3935 75.7561 59.0756 75.8888 58.744 75.8888ZM71.2415 75.8888C70.91 75.8888 70.5921 75.7561 70.3577 75.5199C70.1232 75.2836 69.9915 74.9632 69.9915 74.6291V72.1097C69.9915 71.7756 70.1232 71.4552 70.3577 71.219C70.5921 70.9827 70.91 70.85 71.2415 70.85C71.5731 70.85 71.891 70.9827 72.1254 71.219C72.3598 71.4552 72.4915 71.7756 72.4915 72.1097V74.6291C72.4915 74.9632 72.3598 75.2836 72.1254 75.5199C71.891 75.7561 71.5731 75.8888 71.2415 75.8888ZM64.9928 67.0734C64.6613 67.0734 64.3433 66.9407 64.1089 66.7045C63.8745 66.4682 63.7428 66.1478 63.7428 65.8137V64.554C63.7428 64.2199 63.8745 63.8995 64.1089 63.6633C64.3433 63.427 64.6613 63.2943 64.9928 63.2943C65.3243 63.2943 65.6423 63.427 65.8767 63.6633C66.1111 63.8995 66.2428 64.2199 66.2428 64.554V65.8137C66.2428 66.1478 66.1111 66.4682 65.8767 66.7045C65.6423 66.9407 65.3243 67.0734 64.9928 67.0734Z" fill="url(#paint8_linear_2058_4)"/>
<path d="M109.998 91.0079H95.0009C94.6694 91.0079 94.3514 90.8752 94.117 90.6389C93.8826 90.4027 93.7509 90.0823 93.7509 89.7482C93.7509 89.4141 93.8826 89.0937 94.117 88.8574C94.3514 88.6212 94.6694 88.4885 95.0009 88.4885H109.998C110.33 88.4885 110.648 88.6212 110.882 88.8574C111.117 89.0937 111.248 89.4141 111.248 89.7482C111.248 90.0823 111.117 90.4027 110.882 90.6389C110.648 90.8752 110.33 91.0079 109.998 91.0079Z" fill="url(#paint9_linear_2058_4)"/>
<path d="M108.748 88.4909C108.417 88.4909 108.099 88.3582 107.865 88.1219C107.63 87.8857 107.498 87.5653 107.498 87.2312C107.497 85.8957 106.97 84.6153 106.032 83.6709C105.095 82.7266 103.825 82.1953 102.5 82.1936C99.7422 82.1936 97.4997 84.4535 97.4997 87.2312C97.4997 87.5653 97.368 87.8857 97.1335 88.1219C96.8991 88.3582 96.5812 88.4909 96.2497 88.4909C95.9181 88.4909 95.6002 88.3582 95.3658 88.1219C95.1313 87.8857 94.9997 87.5653 94.9997 87.2312C95.002 85.2275 95.7929 83.3065 97.199 81.8898C98.605 80.473 100.511 79.6762 102.5 79.6742C104.488 79.6766 106.394 80.4735 107.8 81.8902C109.205 83.3069 109.996 85.2277 109.998 87.2312C109.998 87.5653 109.867 87.8857 109.632 88.1219C109.398 88.3582 109.08 88.4909 108.748 88.4909Z" fill="url(#paint10_linear_2058_4)"/>
<path d="M96.2509 91.0078C95.9194 91.0078 95.6014 90.8751 95.367 90.6389C95.1326 90.4026 95.0009 90.0822 95.0009 89.7481V87.2287C95.0009 86.8946 95.1326 86.5742 95.367 86.338C95.6014 86.1017 95.9194 85.969 96.2509 85.969C96.5824 85.969 96.9003 86.1017 97.1348 86.338C97.3692 86.5742 97.5009 86.8946 97.5009 87.2287V89.7481C97.5009 90.0822 97.3692 90.4026 97.1348 90.6389C96.9003 90.8751 96.5824 91.0078 96.2509 91.0078ZM108.748 91.0078C108.417 91.0078 108.099 90.8751 107.864 90.6389C107.63 90.4026 107.498 90.0822 107.498 89.7481V87.2287C107.498 86.8946 107.63 86.5742 107.864 86.338C108.099 86.1017 108.417 85.969 108.748 85.969C109.08 85.969 109.398 86.1017 109.632 86.338C109.867 86.5742 109.998 86.8946 109.998 87.2287V89.7481C109.998 90.0822 109.867 90.4026 109.632 90.6389C109.398 90.8751 109.08 91.0078 108.748 91.0078ZM102.5 82.1924C102.168 82.1924 101.85 82.0597 101.616 81.8235C101.381 81.5872 101.25 81.2668 101.25 80.9327V79.673C101.25 79.3389 101.381 79.0185 101.616 78.7823C101.85 78.546 102.168 78.4133 102.5 78.4133C102.831 78.4133 103.149 78.546 103.384 78.7823C103.618 79.0185 103.75 79.3389 103.75 79.673V80.9327C103.75 81.2668 103.618 81.5872 103.384 81.8235C103.149 82.0597 102.831 82.1924 102.5 82.1924Z" fill="url(#paint11_linear_2058_4)"/>
<defs>
<linearGradient id="paint0_linear_2058_4" x1="121.981" y1="123.761" x2="37.3736" y2="123.761" gradientUnits="userSpaceOnUse">
<stop stop-color="#FF5A2F"/>
<stop offset="1" stop-color="#FF6C44"/>
</linearGradient>
<linearGradient id="paint1_linear_2058_4" x1="121.981" y1="123.761" x2="37.3736" y2="123.761" gradientUnits="userSpaceOnUse">
<stop stop-color="#FF5A2F"/>
<stop offset="1" stop-color="#FF6C44"/>
</linearGradient>
<linearGradient id="paint2_linear_2058_4" x1="121.981" y1="123.761" x2="37.3736" y2="123.761" gradientUnits="userSpaceOnUse">
<stop stop-color="#FF5A2F"/>
<stop offset="1" stop-color="#FF6C44"/>
</linearGradient>
<linearGradient id="paint3_linear_2058_4" x1="121.981" y1="123.761" x2="37.3736" y2="123.761" gradientUnits="userSpaceOnUse">
<stop stop-color="#FF5A2F"/>
<stop offset="1" stop-color="#FF6C44"/>
</linearGradient>
<linearGradient id="paint4_linear_2058_4" x1="121.981" y1="123.761" x2="37.3736" y2="123.761" gradientUnits="userSpaceOnUse">
<stop stop-color="#FF5A2F"/>
<stop offset="1" stop-color="#FF6C44"/>
</linearGradient>
<linearGradient id="paint5_linear_2058_4" x1="121.981" y1="123.761" x2="37.3736" y2="123.761" gradientUnits="userSpaceOnUse">
<stop stop-color="#FF5A2F"/>
<stop offset="1" stop-color="#FF6C44"/>
</linearGradient>
<linearGradient id="paint6_linear_2058_4" x1="121.981" y1="123.761" x2="37.3736" y2="123.761" gradientUnits="userSpaceOnUse">
<stop stop-color="#FF5A2F"/>
<stop offset="1" stop-color="#FF6C44"/>
</linearGradient>
<linearGradient id="paint7_linear_2058_4" x1="121.981" y1="123.761" x2="37.3736" y2="123.761" gradientUnits="userSpaceOnUse">
<stop stop-color="#FF5A2F"/>
<stop offset="1" stop-color="#FF6C44"/>
</linearGradient>
<linearGradient id="paint8_linear_2058_4" x1="121.981" y1="123.761" x2="37.3736" y2="123.761" gradientUnits="userSpaceOnUse">
<stop stop-color="#FF5A2F"/>
<stop offset="1" stop-color="#FF6C44"/>
</linearGradient>
<linearGradient id="paint9_linear_2058_4" x1="121.981" y1="123.761" x2="37.3736" y2="123.761" gradientUnits="userSpaceOnUse">
<stop stop-color="#FF5A2F"/>
<stop offset="1" stop-color="#FF6C44"/>
</linearGradient>
<linearGradient id="paint10_linear_2058_4" x1="121.981" y1="123.761" x2="37.3736" y2="123.761" gradientUnits="userSpaceOnUse">
<stop stop-color="#FF5A2F"/>
<stop offset="1" stop-color="#FF6C44"/>
</linearGradient>
<linearGradient id="paint11_linear_2058_4" x1="121.981" y1="123.761" x2="37.3736" y2="123.761" gradientUnits="userSpaceOnUse">
<stop stop-color="#FF5A2F"/>
<stop offset="1" stop-color="#FF6C44"/>
</linearGradient>
</defs>
</svg>
