<svg width="160" height="180" viewBox="0 0 160 180" fill="none" xmlns="http://www.w3.org/2000/svg">
<rect width="160" height="180" rx="25" fill="white"/>
<path d="M100.25 131.697H45.25C44.9185 131.697 44.6005 131.565 44.3661 131.329C44.1317 131.092 44 130.772 44 130.438V67.4526C44 67.1185 44.1317 66.7981 44.3661 66.5619C44.6005 66.3256 44.9185 66.1929 45.25 66.1929H100.25C100.582 66.1929 100.899 66.3256 101.134 66.5619C101.368 66.7981 101.5 67.1185 101.5 67.4526V130.438C101.5 130.772 101.368 131.092 101.134 131.329C100.899 131.565 100.582 131.697 100.25 131.697ZM46.5 129.178H99V68.7123H46.5V129.178Z" fill="url(#paint0_linear_2058_8)"/>
<path d="M115.25 131.697H100.25C99.9185 131.697 99.6005 131.565 99.3661 131.329C99.1317 131.092 99 130.772 99 130.438V67.4526C99 67.1185 99.1317 66.7981 99.3661 66.5619C99.6005 66.3256 99.9185 66.1929 100.25 66.1929H115.25C115.582 66.1929 115.899 66.3256 116.134 66.5619C116.368 66.7981 116.5 67.1185 116.5 67.4526V130.438C116.5 130.772 116.368 131.092 116.134 131.329C115.899 131.565 115.582 131.697 115.25 131.697ZM101.5 129.178H114V68.7123H101.5V129.178ZM82.75 63.6735C82.4185 63.6735 82.1005 63.5408 81.8661 63.3045C81.6317 63.0683 81.5 62.7479 81.5 62.4138C81.5 57.5526 77.5738 53.5959 72.75 53.5959C67.9263 53.5959 64 57.5526 64 62.4138C64 62.7479 63.8683 63.0683 63.6339 63.3045C63.3995 63.5408 63.0815 63.6735 62.75 63.6735C62.4185 63.6735 62.1005 63.5408 61.8661 63.3045C61.6317 63.0683 61.5 62.7479 61.5 62.4138C61.5 56.1619 66.5463 51.0765 72.75 51.0765C78.9538 51.0765 84 56.1619 84 62.4138C84 62.7479 83.8683 63.0683 83.6339 63.3045C83.3995 63.5408 83.0815 63.6735 82.75 63.6735Z" fill="url(#paint1_linear_2058_8)"/>
<path d="M62.75 77.5302C62.4185 77.5302 62.1005 77.3975 61.8661 77.1613C61.6317 76.925 61.5 76.6046 61.5 76.2705V62.4138C61.5 62.0797 61.6317 61.7593 61.8661 61.5231C62.1005 61.2868 62.4185 61.1541 62.75 61.1541C63.0815 61.1541 63.3995 61.2868 63.6339 61.5231C63.8683 61.7593 64 62.0797 64 62.4138V76.2705C64 76.6046 63.8683 76.925 63.6339 77.1613C63.3995 77.3975 63.0815 77.5302 62.75 77.5302ZM82.75 77.5302C82.4185 77.5302 82.1005 77.3975 81.8661 77.1613C81.6317 76.925 81.5 76.6046 81.5 76.2705V62.4138C81.5 62.0797 81.6317 61.7593 81.8661 61.5231C82.1005 61.2868 82.4185 61.1541 82.75 61.1541C83.0815 61.1541 83.3995 61.2868 83.6339 61.5231C83.8683 61.7593 84 62.0797 84 62.4138V76.2705C84 76.6046 83.8683 76.925 83.6339 77.1613C83.3995 77.3975 83.0815 77.5302 82.75 77.5302Z" fill="url(#paint2_linear_2058_8)"/>
<path d="M97.75 63.6735C97.4185 63.6735 97.1005 63.5408 96.8661 63.3045C96.6317 63.0683 96.5 62.7479 96.5 62.4138C96.5 57.5526 92.5738 53.5959 87.75 53.5959C82.9263 53.5959 79 57.5526 79 62.4138C79 62.7479 78.8683 63.0683 78.6339 63.3045C78.3995 63.5408 78.0815 63.6735 77.75 63.6735C77.4185 63.6735 77.1005 63.5408 76.8661 63.3045C76.6317 63.0683 76.5 62.7479 76.5 62.4138C76.5 56.1619 81.5463 51.0765 87.75 51.0765C93.9538 51.0765 99 56.1619 99 62.4138C99 62.7479 98.8683 63.0683 98.6339 63.3045C98.3995 63.5408 98.0815 63.6735 97.75 63.6735Z" fill="url(#paint3_linear_2058_8)"/>
<path d="M77.75 68.7123C77.4185 68.7123 77.1005 68.5796 76.8661 68.3434C76.6317 68.1071 76.5 67.7867 76.5 67.4526V62.4138C76.5 62.0797 76.6317 61.7593 76.8661 61.5231C77.1005 61.2868 77.4185 61.1541 77.75 61.1541C78.0815 61.1541 78.3995 61.2868 78.6339 61.5231C78.8683 61.7593 79 62.0797 79 62.4138V67.4526C79 67.7867 78.8683 68.1071 78.6339 68.3434C78.3995 68.5796 78.0815 68.7123 77.75 68.7123ZM97.75 68.7123C97.4185 68.7123 97.1005 68.5796 96.8661 68.3434C96.6317 68.1071 96.5 67.7867 96.5 67.4526V62.4138C96.5 62.0797 96.6317 61.7593 96.8661 61.5231C97.1005 61.2868 97.4185 61.1541 97.75 61.1541C98.0815 61.1541 98.3995 61.2868 98.6339 61.5231C98.8683 61.7593 99 62.0797 99 62.4138V67.4526C99 67.7867 98.8683 68.1071 98.6339 68.3434C98.3995 68.5796 98.0815 68.7123 97.75 68.7123ZM107.75 125.399C107.418 125.399 107.101 125.266 106.866 125.03C106.632 124.794 106.5 124.473 106.5 124.139V67.4526C106.5 67.1185 106.632 66.7981 106.866 66.5619C107.101 66.3256 107.418 66.1929 107.75 66.1929C108.082 66.1929 108.399 66.3256 108.634 66.5619C108.868 66.7981 109 67.1185 109 67.4526V124.139C109 124.473 108.868 124.794 108.634 125.03C108.399 125.266 108.082 125.399 107.75 125.399Z" fill="url(#paint4_linear_2058_8)"/>
<path d="M100.25 131.697C99.993 131.698 99.7428 131.619 99.5322 131.47C99.3216 131.322 99.1616 131.111 99.0738 130.868C98.9861 130.624 98.975 130.36 99.042 130.11C99.109 129.86 99.2508 129.636 99.4482 129.47L106.948 123.172C107.204 122.971 107.528 122.879 107.85 122.914C108.173 122.949 108.469 123.109 108.677 123.36C108.885 123.611 108.988 123.934 108.964 124.26C108.94 124.586 108.791 124.89 108.549 125.108L101.049 131.407C100.825 131.595 100.542 131.698 100.25 131.697Z" fill="url(#paint5_linear_2058_8)"/>
<path d="M115.248 131.698C114.966 131.698 114.683 131.602 114.448 131.407L106.948 125.108C106.706 124.89 106.558 124.586 106.534 124.26C106.51 123.934 106.613 123.611 106.821 123.36C107.028 123.109 107.325 122.949 107.647 122.914C107.97 122.879 108.293 122.971 108.55 123.172L116.05 129.47C116.246 129.637 116.387 129.86 116.454 130.109C116.521 130.359 116.509 130.623 116.422 130.866C116.334 131.11 116.175 131.32 115.965 131.468C115.755 131.617 115.505 131.697 115.248 131.698Z" fill="url(#paint6_linear_2058_8)"/>
<path d="M62.7551 101.468C60.6876 101.468 59.0051 99.7727 59.0051 97.6892C59.0051 97.3551 59.1368 97.0347 59.3712 96.7984C59.6056 96.5622 59.9236 96.4295 60.2551 96.4295C60.5866 96.4295 60.9045 96.5622 61.139 96.7984C61.3734 97.0347 61.5051 97.3551 61.5051 97.6892C61.5051 98.0233 61.6368 98.3437 61.8712 98.5799C62.1056 98.8162 62.4236 98.9489 62.7551 98.9489C63.0866 98.9489 63.4045 99.0816 63.639 99.3178C63.8734 99.5541 64.0051 99.8745 64.0051 100.209C64.0051 100.543 63.8734 100.863 63.639 101.099C63.4045 101.336 63.0866 101.468 62.7551 101.468ZM69.0088 101.468C68.6773 101.468 68.3594 101.336 68.1249 101.099C67.8905 100.863 67.7588 100.543 67.7588 100.209C67.7588 99.8745 67.8905 99.5541 68.1249 99.3178C68.3594 99.0816 68.6773 98.9489 69.0088 98.9489C69.3403 98.9489 69.6583 98.8162 69.8927 98.5799C70.1271 98.3437 70.2588 98.0233 70.2588 97.6892C70.2588 97.3551 70.3905 97.0347 70.6249 96.7984C70.8594 96.5622 71.1773 96.4295 71.5088 96.4295C71.8403 96.4295 72.1583 96.5622 72.3927 96.7984C72.6271 97.0347 72.7588 97.3551 72.7588 97.6892C72.7588 99.7727 71.0763 101.468 69.0088 101.468Z" fill="url(#paint7_linear_2058_8)"/>
<path d="M60.2551 98.9487C59.9236 98.9487 59.6056 98.816 59.3712 98.5798C59.1368 98.3435 59.0051 98.0233 59.0051 97.6892V85.0845C59.0051 84.7504 59.1368 84.43 59.3712 84.1937C59.6056 83.9575 59.9236 83.8247 60.2551 83.8247C60.5866 83.8247 60.9045 83.9575 61.139 84.1937C61.3734 84.43 61.5051 84.7504 61.5051 85.0845V97.6892C61.5051 98.0233 61.3734 98.3435 61.139 98.5798C60.9045 98.816 60.5866 98.9487 60.2551 98.9487ZM71.5088 98.9487C71.1773 98.9487 70.8594 98.816 70.6249 98.5798C70.3905 98.3435 70.2588 98.0233 70.2588 97.6892V85.0845C70.2588 84.7504 70.3905 84.43 70.6249 84.1937C70.8594 83.9575 71.1773 83.8247 71.5088 83.8247C71.8403 83.8247 72.1583 83.9575 72.3927 84.1937C72.6271 84.43 72.7588 84.7504 72.7588 85.0845V97.6892C72.7588 98.0233 72.6271 98.3435 72.3927 98.5798C72.1583 98.816 71.8403 98.9487 71.5088 98.9487ZM64.0051 96.4268C63.6736 96.4268 63.3556 96.2941 63.1212 96.0579C62.8868 95.8216 62.7551 95.5012 62.7551 95.1671V85.0845C62.7551 84.7504 62.8868 84.43 63.1212 84.1937C63.3556 83.9575 63.6736 83.8247 64.0051 83.8247C64.3366 83.8247 64.6545 83.9575 64.889 84.1937C65.1234 84.43 65.2551 84.7504 65.2551 85.0845V95.1671C65.2551 95.5012 65.1234 95.8216 64.889 96.0579C64.6545 96.2941 64.3366 96.4268 64.0051 96.4268ZM67.7588 96.4268C67.4273 96.4268 67.1094 96.2941 66.8749 96.0579C66.6405 95.8216 66.5088 95.5012 66.5088 95.1671V85.0845C66.5088 84.7504 66.6405 84.43 66.8749 84.1937C67.1094 83.9575 67.4273 83.8247 67.7588 83.8247C68.0903 83.8247 68.4083 83.9575 68.6427 84.1937C68.8771 84.43 69.0088 84.7504 69.0088 85.0845V95.1671C69.0088 95.5012 68.8771 95.8216 68.6427 96.0579C68.4083 96.2941 68.0903 96.4268 67.7588 96.4268Z" fill="url(#paint8_linear_2058_8)"/>
<path d="M71.5088 96.427H60.2551C59.9236 96.427 59.6056 96.2943 59.3712 96.0581C59.1368 95.8218 59.0051 95.5014 59.0051 95.1673C59.0051 94.8332 59.1368 94.5128 59.3712 94.2766C59.6056 94.0403 59.9236 93.9076 60.2551 93.9076H71.5088C71.8403 93.9076 72.1583 94.0403 72.3927 94.2766C72.6271 94.5128 72.7588 94.8332 72.7588 95.1673C72.7588 95.5014 72.6271 95.8218 72.3927 96.0581C72.1583 96.2943 71.8403 96.427 71.5088 96.427ZM69.0088 101.468H62.7551C62.4236 101.468 62.1056 101.336 61.8712 101.099C61.6368 100.863 61.5051 100.543 61.5051 100.209C61.5051 99.8745 61.6368 99.5541 61.8712 99.3179C62.1056 99.0817 62.4236 98.9489 62.7551 98.9489H69.0088C69.3403 98.9489 69.6583 99.0817 69.8927 99.3179C70.1271 99.5541 70.2588 99.8745 70.2588 100.209C70.2588 100.543 70.1271 100.863 69.8927 101.099C69.6583 101.336 69.3403 101.468 69.0088 101.468Z" fill="url(#paint9_linear_2058_8)"/>
<path d="M64.0051 122.254C63.6736 122.254 63.3556 122.122 63.1212 121.885C62.8868 121.649 62.7551 121.329 62.7551 120.995V100.203C62.7551 99.8693 62.8868 99.5488 63.1212 99.3126C63.3556 99.0764 63.6736 98.9436 64.0051 98.9436C64.3366 98.9436 64.6545 99.0764 64.889 99.3126C65.1234 99.5488 65.2551 99.8693 65.2551 100.203V120.995C65.2551 121.329 65.1234 121.649 64.889 121.885C64.6545 122.122 64.3366 122.254 64.0051 122.254ZM67.7588 122.254C67.4273 122.254 67.1094 122.122 66.8749 121.885C66.6405 121.649 66.5088 121.329 66.5088 120.995V100.203C66.5088 99.8693 66.6405 99.5488 66.8749 99.3126C67.1094 99.0764 67.4273 98.9436 67.7588 98.9436C68.0903 98.9436 68.4083 99.0764 68.6427 99.3126C68.8771 99.5488 69.0088 99.8693 69.0088 100.203V120.995C69.0088 121.329 68.8771 121.649 68.6427 121.885C68.4083 122.122 68.0903 122.254 67.7588 122.254Z" fill="url(#paint10_linear_2058_8)"/>
<path d="M65.8826 124.145C65.0535 124.145 64.2586 123.813 63.6723 123.222C63.0859 122.631 62.7561 121.83 62.7551 120.995C62.7551 120.661 62.8868 120.34 63.1212 120.104C63.3556 119.868 63.6736 119.735 64.0051 119.735C64.3366 119.735 64.6545 119.868 64.889 120.104C65.1234 120.34 65.2551 120.661 65.2551 120.995C65.2673 121.154 65.3386 121.303 65.4549 121.411C65.5711 121.519 65.7236 121.58 65.882 121.58C66.0403 121.58 66.1928 121.519 66.309 121.411C66.4253 121.303 66.4966 121.154 66.5088 120.995C66.5088 120.661 66.6405 120.34 66.8749 120.104C67.1094 119.868 67.4273 119.735 67.7588 119.735C68.0903 119.735 68.4083 119.868 68.6427 120.104C68.8771 120.34 69.0088 120.661 69.0088 120.995C69.0078 121.83 68.6781 122.631 68.0921 123.222C67.506 123.812 66.7114 124.144 65.8826 124.145Z" fill="url(#paint11_linear_2058_8)"/>
<path d="M77.7468 122.255C77.4153 122.255 77.0973 122.122 76.8629 121.886C76.6285 121.65 76.4968 121.329 76.4968 120.995V85.0897C76.4968 84.7556 76.6285 84.4352 76.8629 84.199C77.0973 83.9627 77.4153 83.83 77.7468 83.83C78.0783 83.83 78.3962 83.9627 78.6307 84.199C78.8651 84.4352 78.9968 84.7556 78.9968 85.0897V120.995C78.9968 121.329 78.8651 121.65 78.6307 121.886C78.3962 122.122 78.0783 122.255 77.7468 122.255Z" fill="url(#paint12_linear_2058_8)"/>
<path d="M81.5002 122.255C81.1687 122.255 80.8507 122.122 80.6163 121.886C80.3819 121.649 80.2502 121.329 80.2502 120.995V106.508C80.2502 106.174 80.3819 105.854 80.6163 105.618C80.8507 105.381 81.1687 105.249 81.5002 105.249C81.8317 105.249 82.1497 105.381 82.3841 105.618C82.6185 105.854 82.7502 106.174 82.7502 106.508V120.995C82.7502 121.329 82.6185 121.649 82.3841 121.886C82.1497 122.122 81.8317 122.255 81.5002 122.255Z" fill="url(#paint13_linear_2058_8)"/>
<path d="M79.6243 124.145C78.7952 124.145 78.0003 123.813 77.414 123.222C76.8276 122.631 76.4978 121.831 76.4968 120.995C76.4968 120.661 76.6285 120.34 76.8629 120.104C77.0973 119.868 77.4153 119.735 77.7468 119.735C78.0783 119.735 78.3962 119.868 78.6307 120.104C78.8651 120.34 78.9968 120.661 78.9968 120.995C79.009 121.154 79.0803 121.303 79.1966 121.411C79.3128 121.519 79.4653 121.58 79.6237 121.58C79.782 121.58 79.9345 121.519 80.0507 121.411C80.167 121.303 80.238 121.154 80.2502 120.995C80.2502 120.661 80.3822 120.34 80.6166 120.104C80.8511 119.868 81.169 119.735 81.5005 119.735C81.832 119.735 82.15 119.868 82.3844 120.104C82.6188 120.34 82.7502 120.661 82.7502 120.995C82.7492 121.83 82.4198 122.631 81.8338 123.222C81.2477 123.812 80.4531 124.144 79.6243 124.145Z" fill="url(#paint14_linear_2058_8)"/>
<path d="M86.4968 107.768H77.7468C77.4153 107.768 77.0973 107.635 76.8629 107.399C76.6285 107.163 76.4968 106.842 76.4968 106.508C76.4968 106.174 76.6285 105.854 76.8629 105.618C77.0973 105.381 77.4153 105.249 77.7468 105.249H86.4968C86.8283 105.249 87.1462 105.381 87.3807 105.618C87.6151 105.854 87.7468 106.174 87.7468 106.508C87.7468 106.842 87.6151 107.163 87.3807 107.399C87.1462 107.635 86.8283 107.768 86.4968 107.768Z" fill="url(#paint15_linear_2058_8)"/>
<path d="M86.4968 95.1584C86.1653 95.1584 85.8473 95.0257 85.6129 94.7894C85.3785 94.5532 85.2468 94.2328 85.2468 93.8987C85.2468 89.7303 81.883 86.3405 77.7468 86.3405C77.4153 86.3405 77.0973 86.2077 76.8629 85.9715C76.6285 85.7353 76.4968 85.4148 76.4968 85.0807C76.4968 84.7467 76.6285 84.4262 76.8629 84.19C77.0973 83.9538 77.4153 83.821 77.7468 83.821C83.2605 83.821 87.7468 88.3421 87.7468 93.8987C87.7468 94.2328 87.6151 94.5532 87.3807 94.7894C87.1462 95.0257 86.8283 95.1584 86.4968 95.1584Z" fill="url(#paint16_linear_2058_8)"/>
<path d="M86.4968 107.768C86.1653 107.768 85.8473 107.635 85.6129 107.399C85.3785 107.163 85.2468 106.842 85.2468 106.508L85.2468 93.8987C85.2468 93.5646 85.3785 93.2442 85.6129 93.0079C85.8473 92.7717 86.1653 92.639 86.4968 92.639C86.8283 92.639 87.1462 92.7717 87.3807 93.0079C87.6151 93.2442 87.7468 93.5646 87.7468 93.8987V106.508C87.7468 106.842 87.6151 107.163 87.3807 107.399C87.1462 107.635 86.8283 107.768 86.4968 107.768Z" fill="url(#paint17_linear_2058_8)"/>
<defs>
<linearGradient id="paint0_linear_2058_8" x1="118.294" y1="131.698" x2="41.6199" y2="131.698" gradientUnits="userSpaceOnUse">
<stop stop-color="#FF5A2F"/>
<stop offset="1" stop-color="#FF6C44"/>
</linearGradient>
<linearGradient id="paint1_linear_2058_8" x1="118.294" y1="131.698" x2="41.6199" y2="131.698" gradientUnits="userSpaceOnUse">
<stop stop-color="#FF5A2F"/>
<stop offset="1" stop-color="#FF6C44"/>
</linearGradient>
<linearGradient id="paint2_linear_2058_8" x1="118.294" y1="131.698" x2="41.6199" y2="131.698" gradientUnits="userSpaceOnUse">
<stop stop-color="#FF5A2F"/>
<stop offset="1" stop-color="#FF6C44"/>
</linearGradient>
<linearGradient id="paint3_linear_2058_8" x1="118.294" y1="131.698" x2="41.6199" y2="131.698" gradientUnits="userSpaceOnUse">
<stop stop-color="#FF5A2F"/>
<stop offset="1" stop-color="#FF6C44"/>
</linearGradient>
<linearGradient id="paint4_linear_2058_8" x1="118.294" y1="131.698" x2="41.6199" y2="131.698" gradientUnits="userSpaceOnUse">
<stop stop-color="#FF5A2F"/>
<stop offset="1" stop-color="#FF6C44"/>
</linearGradient>
<linearGradient id="paint5_linear_2058_8" x1="118.294" y1="131.698" x2="41.6199" y2="131.698" gradientUnits="userSpaceOnUse">
<stop stop-color="#FF5A2F"/>
<stop offset="1" stop-color="#FF6C44"/>
</linearGradient>
<linearGradient id="paint6_linear_2058_8" x1="118.294" y1="131.698" x2="41.6199" y2="131.698" gradientUnits="userSpaceOnUse">
<stop stop-color="#FF5A2F"/>
<stop offset="1" stop-color="#FF6C44"/>
</linearGradient>
<linearGradient id="paint7_linear_2058_8" x1="118.294" y1="131.698" x2="41.6199" y2="131.698" gradientUnits="userSpaceOnUse">
<stop stop-color="#FF5A2F"/>
<stop offset="1" stop-color="#FF6C44"/>
</linearGradient>
<linearGradient id="paint8_linear_2058_8" x1="118.294" y1="131.698" x2="41.6199" y2="131.698" gradientUnits="userSpaceOnUse">
<stop stop-color="#FF5A2F"/>
<stop offset="1" stop-color="#FF6C44"/>
</linearGradient>
<linearGradient id="paint9_linear_2058_8" x1="118.294" y1="131.698" x2="41.6199" y2="131.698" gradientUnits="userSpaceOnUse">
<stop stop-color="#FF5A2F"/>
<stop offset="1" stop-color="#FF6C44"/>
</linearGradient>
<linearGradient id="paint10_linear_2058_8" x1="118.294" y1="131.698" x2="41.6199" y2="131.698" gradientUnits="userSpaceOnUse">
<stop stop-color="#FF5A2F"/>
<stop offset="1" stop-color="#FF6C44"/>
</linearGradient>
<linearGradient id="paint11_linear_2058_8" x1="118.294" y1="131.698" x2="41.6199" y2="131.698" gradientUnits="userSpaceOnUse">
<stop stop-color="#FF5A2F"/>
<stop offset="1" stop-color="#FF6C44"/>
</linearGradient>
<linearGradient id="paint12_linear_2058_8" x1="118.294" y1="131.698" x2="41.6199" y2="131.698" gradientUnits="userSpaceOnUse">
<stop stop-color="#FF5A2F"/>
<stop offset="1" stop-color="#FF6C44"/>
</linearGradient>
<linearGradient id="paint13_linear_2058_8" x1="118.294" y1="131.698" x2="41.6199" y2="131.698" gradientUnits="userSpaceOnUse">
<stop stop-color="#FF5A2F"/>
<stop offset="1" stop-color="#FF6C44"/>
</linearGradient>
<linearGradient id="paint14_linear_2058_8" x1="118.294" y1="131.698" x2="41.6199" y2="131.698" gradientUnits="userSpaceOnUse">
<stop stop-color="#FF5A2F"/>
<stop offset="1" stop-color="#FF6C44"/>
</linearGradient>
<linearGradient id="paint15_linear_2058_8" x1="118.294" y1="131.698" x2="41.6199" y2="131.698" gradientUnits="userSpaceOnUse">
<stop stop-color="#FF5A2F"/>
<stop offset="1" stop-color="#FF6C44"/>
</linearGradient>
<linearGradient id="paint16_linear_2058_8" x1="118.294" y1="131.698" x2="41.6199" y2="131.698" gradientUnits="userSpaceOnUse">
<stop stop-color="#FF5A2F"/>
<stop offset="1" stop-color="#FF6C44"/>
</linearGradient>
<linearGradient id="paint17_linear_2058_8" x1="118.294" y1="131.698" x2="41.6199" y2="131.698" gradientUnits="userSpaceOnUse">
<stop stop-color="#FF5A2F"/>
<stop offset="1" stop-color="#FF6C44"/>
</linearGradient>
</defs>
</svg>
