<svg width="33" height="30" viewBox="0 0 33 30" fill="none" xmlns="http://www.w3.org/2000/svg">
<path d="M31.1229 11.7384C30.3841 10.9383 29.3134 10.4793 28.1845 10.4793H28.073C27.4262 5.00685 22.475 0.737549 16.4803 0.737549C10.4856 0.737549 5.53435 5.00685 4.88757 10.4793H4.81499C3.68734 10.4793 2.61802 10.9383 1.87792 11.7384C1.13782 12.5384 0.80601 13.599 0.965436 14.6499L2.34065 23.6902C2.88503 27.2666 6.19538 29.9627 10.0398 29.9627H22.961C26.8054 29.9627 30.1157 27.2654 30.6601 23.6902L32.0353 14.6499C32.1948 13.6003 31.8617 12.5396 31.1229 11.7384ZM16.4803 3.17297C21.0427 3.17297 24.8288 6.35486 25.46 10.4793H7.5006C8.13182 6.35486 11.9179 3.17297 16.4803 3.17297ZM11.2957 23.8741C11.2957 24.5475 10.7163 25.0918 9.99957 25.0918C9.2828 25.0918 8.70342 24.5475 8.70342 23.8741V16.5678C8.70342 15.8944 9.2828 15.3501 9.99957 15.3501C10.7163 15.3501 11.2957 15.8944 11.2957 16.5678V23.8741ZM17.7764 23.8741C17.7764 24.5475 17.1971 25.0918 16.4803 25.0918C15.7635 25.0918 15.1842 24.5475 15.1842 23.8741V16.5678C15.1842 15.8944 15.7635 15.3501 16.4803 15.3501C17.1971 15.3501 17.7764 15.8944 17.7764 16.5678V23.8741ZM24.2572 23.8741C24.2572 24.5475 23.6778 25.0918 22.961 25.0918C22.2443 25.0918 21.6649 24.5475 21.6649 23.8741V16.5678C21.6649 15.8944 22.2443 15.3501 22.961 15.3501C23.6778 15.3501 24.2572 15.8944 24.2572 16.5678V23.8741Z" fill="#FBFBFB"/>
</svg>
