<svg width="80" height="87" viewBox="0 0 80 87" fill="none" xmlns="http://www.w3.org/2000/svg">
<path d="M78.7098 78.0975C78.7012 78.0989 78.6925 78.0989 78.684 78.0975H39.9831C39.641 78.0975 39.3129 77.9569 39.071 77.7064C38.8291 77.456 38.6932 77.1164 38.6932 76.7622V52.7343C38.6932 52.3802 38.8291 52.0406 39.071 51.7901C39.3129 51.5397 39.641 51.399 39.9831 51.399H78.6763C79.0184 51.399 79.3465 51.5397 79.5884 51.7901C79.8303 52.0406 79.9662 52.3802 79.9662 52.7343L79.9739 76.4952C80.0122 76.6892 80.0083 76.8896 79.9625 77.0819C79.9167 77.2742 79.8302 77.4535 79.7092 77.6069C79.5882 77.7602 79.4357 77.8839 79.2629 77.9687C79.09 78.0536 78.9011 78.0976 78.7098 78.0975ZM41.273 75.4269H77.3941L77.3863 54.0697H41.273V75.4269Z" fill="url(#paint0_linear_1_86)"/>
<path d="M59.3297 71.4209C55.7733 71.4209 52.88 68.4258 52.88 64.7443C52.88 61.0628 55.7733 58.0676 59.3297 58.0676C62.8848 58.0676 65.7768 61.0628 65.7768 64.7443C65.7768 68.4258 62.8848 71.4209 59.3297 71.4209ZM59.3297 60.7383C57.1961 60.7383 55.4598 62.5356 55.4598 64.7443C55.4598 66.9529 57.1961 68.7503 59.3297 68.7503C61.462 68.7503 63.1969 66.9529 63.1969 64.7443C63.1969 62.5356 61.462 60.7383 59.3297 60.7383ZM78.6763 58.065C77.31 58.0629 76.0004 57.4999 75.0346 56.4996C74.0687 55.4993 73.5256 54.1433 73.5242 52.729C73.5242 52.3749 73.6601 52.0352 73.902 51.7848C74.1439 51.5344 74.472 51.3937 74.8142 51.3937C75.1563 51.3937 75.4844 51.5344 75.7263 51.7848C75.9682 52.0352 76.1041 52.3749 76.1041 52.729C76.1041 54.1992 77.2586 55.3943 78.6763 55.3943C79.0184 55.3943 79.3465 55.535 79.5884 55.7854C79.8303 56.0359 79.9662 56.3755 79.9662 56.7296C79.9662 57.0838 79.8303 57.4234 79.5884 57.6739C79.3465 57.9243 79.0184 58.065 78.6763 58.065ZM74.8142 78.0975C74.472 78.0975 74.1439 77.9569 73.902 77.7064C73.6601 77.456 73.5242 77.1164 73.5242 76.7622C73.5256 75.3479 74.0687 73.9919 75.0346 72.9916C76.0004 71.9913 77.31 71.4284 78.6763 71.4263C79.0184 71.4263 79.3465 71.5669 79.5884 71.8174C79.8303 72.0678 79.9662 72.4074 79.9662 72.7616C79.9662 73.1157 79.8303 73.4554 79.5884 73.7058C79.3465 73.9562 79.0184 74.0969 78.6763 74.0969C77.2573 74.0969 76.1041 75.2934 76.1041 76.7622C76.1041 77.1164 75.9682 77.456 75.7263 77.7064C75.4844 77.9569 75.1563 78.0975 74.8142 78.0975ZM43.8503 78.0975C43.5082 78.0975 43.1801 77.9569 42.9382 77.7064C42.6963 77.456 42.5604 77.1164 42.5604 76.7622C42.5597 76.0556 42.2882 75.378 41.8055 74.8783C41.3228 74.3787 40.6683 74.0976 39.9857 74.0969C39.6436 74.0969 39.3155 73.9562 39.0736 73.7058C38.8316 73.4554 38.6957 73.1157 38.6957 72.7616C38.6957 72.4074 38.8316 72.0678 39.0736 71.8174C39.3155 71.5669 39.6436 71.4263 39.9857 71.4263C41.3522 71.428 42.6624 71.9908 43.6287 72.9911C44.595 73.9914 45.1386 75.3476 45.1403 76.7622C45.1403 77.1164 45.0044 77.456 44.7625 77.7064C44.5206 77.9569 44.1925 78.0975 43.8503 78.0975ZM39.9805 58.0703C39.6384 58.0703 39.3103 57.9296 39.0684 57.6792C38.8265 57.4288 38.6906 57.0891 38.6906 56.735C38.6906 56.3808 38.8265 56.0412 39.0684 55.7908C39.3103 55.5403 39.6384 55.3997 39.9805 55.3997C40.6649 55.3993 41.3212 55.1179 41.8053 54.6172C42.2895 54.1165 42.562 53.4374 42.563 52.729C42.563 52.3749 42.6989 52.0352 42.9408 51.7848C43.1827 51.5344 43.5108 51.3937 43.8529 51.3937C44.195 51.3937 44.5231 51.5344 44.7651 51.7848C45.007 52.0352 45.1429 52.3749 45.1429 52.729C45.1429 55.6747 42.8274 58.0703 39.9805 58.0703Z" fill="url(#paint1_linear_1_86)"/>
<path d="M39.9831 86.1162C39.641 86.1162 39.3129 85.9755 39.071 85.7251C38.8291 85.4747 38.6932 85.135 38.6932 84.7809V76.7622C38.6932 76.4081 38.8291 76.0684 39.071 75.818C39.3129 75.5676 39.641 75.4269 39.9831 75.4269C40.3252 75.4269 40.6533 75.5676 40.8952 75.818C41.1371 76.0684 41.273 76.4081 41.273 76.7622V84.7809C41.273 85.135 41.1371 85.4747 40.8952 85.7251C40.6533 85.9755 40.3252 86.1162 39.9831 86.1162Z" fill="url(#paint2_linear_1_86)"/>
<path d="M78.684 82.1062H39.9831C39.641 82.1062 39.3129 81.9655 39.071 81.7151C38.8291 81.4647 38.6932 81.125 38.6932 80.7709C38.6932 80.4167 38.8291 80.0771 39.071 79.8267C39.3129 79.5762 39.641 79.4355 39.9831 79.4355H78.684C79.0261 79.4355 79.3542 79.5762 79.5961 79.8267C79.838 80.0771 79.9739 80.4167 79.9739 80.7709C79.9739 81.125 79.838 81.4647 79.5961 81.7151C79.3542 81.9655 79.0261 82.1062 78.684 82.1062ZM78.684 86.1122H39.9831C39.641 86.1122 39.3129 85.9715 39.071 85.7211C38.8291 85.4706 38.6932 85.131 38.6932 84.7769C38.6932 84.4227 38.8291 84.0831 39.071 83.8326C39.3129 83.5822 39.641 83.4415 39.9831 83.4415H78.684C79.0261 83.4415 79.3542 83.5822 79.5961 83.8326C79.838 84.0831 79.9739 84.4227 79.9739 84.7769C79.9739 85.131 79.838 85.4706 79.5961 85.7211C79.3542 85.9715 79.0261 86.1122 78.684 86.1122Z" fill="url(#paint3_linear_1_86)"/>
<path d="M78.684 86.1162C78.3419 86.1162 78.0138 85.9755 77.7719 85.7251C77.53 85.4747 77.3941 85.135 77.3941 84.7809V76.7622C77.3941 76.4081 77.53 76.0684 77.7719 75.818C78.0138 75.5676 78.3419 75.4269 78.684 75.4269C79.0261 75.4269 79.3542 75.5676 79.5961 75.818C79.838 76.0684 79.9739 76.4081 79.9739 76.7622V84.7809C79.9739 85.135 79.838 85.4747 79.5961 85.7251C79.3542 85.9755 79.0261 86.1162 78.684 86.1162ZM59.3323 50.065C58.9901 50.065 58.662 49.9243 58.4201 49.6739C58.1782 49.4235 58.0423 49.0839 58.0423 48.7297V30.0351C58.0423 29.681 58.1782 29.3413 58.4201 29.0909C58.662 28.8405 58.9901 28.6998 59.3323 28.6998C59.6744 28.6998 60.0025 28.8405 60.2444 29.0909C60.4863 29.3413 60.6222 29.681 60.6222 30.0351V48.7297C60.6222 49.0839 60.4863 49.4235 60.2444 49.6739C60.0025 49.9243 59.6744 50.065 59.3323 50.065Z" fill="url(#paint4_linear_1_86)"/>
<path d="M59.3323 31.3705H42.5656C42.2235 31.3705 41.8954 31.2298 41.6534 30.9793C41.4115 30.7289 41.2756 30.3893 41.2756 30.0351C41.2756 29.681 41.4115 29.3413 41.6534 29.0909C41.8954 28.8405 42.2235 28.6998 42.5656 28.6998H59.3323C59.6744 28.6998 60.0025 28.8405 60.2444 29.0909C60.4863 29.3413 60.6222 29.681 60.6222 30.0351C60.6222 30.3893 60.4863 30.7289 60.2444 30.9793C60.0025 31.2298 59.6744 31.3705 59.3323 31.3705Z" fill="url(#paint5_linear_1_86)"/>
<path d="M45.1455 34.0438C44.976 34.044 44.8083 34.0095 44.6518 33.9423C44.4952 33.8752 44.3531 33.7767 44.2335 33.6525L41.6534 30.9793C41.4115 30.7289 41.2756 30.3893 41.2756 30.0351C41.2756 29.681 41.4115 29.3413 41.6534 29.0909C41.8953 28.8407 42.2241 28.701 42.566 28.7011C42.908 28.7013 43.2359 28.842 43.4776 29.0924L46.0574 31.7657C46.238 31.9523 46.361 32.1901 46.4108 32.4491C46.4607 32.7081 46.4351 32.9765 46.3375 33.2205C46.2398 33.4645 46.0744 33.6729 45.8622 33.8195C45.65 33.966 45.4006 34.0441 45.1455 34.0438Z" fill="url(#paint6_linear_1_86)"/>
<path d="M42.5656 31.3705C42.3102 31.371 42.0604 31.2931 41.8479 31.1464C41.6355 30.9998 41.4699 30.7911 41.3721 30.5469C41.2744 30.3027 41.249 30.0339 41.2991 29.7747C41.3492 29.5155 41.4725 29.2774 41.6534 29.0909L44.2335 26.4231C44.3532 26.299 44.4955 26.2007 44.652 26.1336C44.8085 26.0665 44.9763 26.0321 45.1457 26.0322C45.3151 26.0323 45.4829 26.067 45.6393 26.1343C45.7957 26.2016 45.9378 26.3002 46.0574 26.4244C46.1773 26.5483 46.2725 26.6955 46.3374 26.8575C46.4023 27.0195 46.4357 27.1931 46.4357 27.3685C46.4357 27.5438 46.4023 27.7175 46.3374 27.8795C46.2725 28.0415 46.1773 28.1887 46.0574 28.3126L43.4776 30.9805C43.2355 31.2305 42.9075 31.3707 42.5656 31.3705Z" fill="url(#paint7_linear_1_86)"/>
<path d="M19.3388 72.7723C18.9967 72.7723 18.6686 72.6316 18.4267 72.3812C18.1848 72.1307 18.0489 71.7911 18.0489 71.4369V52.7437C18.0489 52.3895 18.1848 52.0499 18.4267 51.7995C18.6686 51.5491 18.9967 51.4084 19.3388 51.4084C19.681 51.4084 20.0091 51.5491 20.251 51.7995C20.4929 52.0499 20.6288 52.3895 20.6288 52.7437V71.4369C20.6288 71.7911 20.4929 72.1307 20.251 72.3812C20.0091 72.6316 19.681 72.7723 19.3388 72.7723Z" fill="url(#paint8_linear_1_86)"/>
<path d="M36.1055 72.7723H19.3388C18.9967 72.7723 18.6686 72.6316 18.4267 72.3812C18.1848 72.1307 18.0489 71.7911 18.0489 71.4369C18.0489 71.0828 18.1848 70.7431 18.4267 70.4927C18.6686 70.2423 18.9967 70.1016 19.3388 70.1016H36.1055C36.4476 70.1016 36.7757 70.2423 37.0177 70.4927C37.2596 70.7431 37.3955 71.0828 37.3955 71.4369C37.3955 71.7911 37.2596 72.1307 37.0177 72.3812C36.7757 72.6316 36.4476 72.7723 36.1055 72.7723Z" fill="url(#paint9_linear_1_86)"/>
<path d="M36.1055 72.7723C35.9361 72.7724 35.7683 72.738 35.6118 72.6708C35.4553 72.6037 35.3132 72.5052 35.1935 72.381L32.6137 69.7104C32.4939 69.5864 32.3989 69.4392 32.3341 69.2772C32.2693 69.1152 32.2359 68.9416 32.2359 68.7663C32.2359 68.591 32.2693 68.4173 32.3341 68.2554C32.3989 68.0934 32.4939 67.9462 32.6137 67.8222C32.7334 67.6982 32.8756 67.5999 33.0321 67.5328C33.1886 67.4657 33.3563 67.4312 33.5256 67.4312C33.695 67.4312 33.8627 67.4657 34.0192 67.5328C34.1757 67.5999 34.3179 67.6982 34.4376 67.8222L37.0177 70.4927C37.1986 70.6792 37.3219 70.9173 37.372 71.1765C37.4221 71.4357 37.3967 71.7045 37.299 71.9487C37.2012 72.193 37.0356 72.4016 36.8231 72.5483C36.6107 72.6949 36.3609 72.7729 36.1055 72.7723Z" fill="url(#paint10_linear_1_86)"/>
<path d="M33.5256 75.4429C33.2703 75.4435 33.0205 75.3655 32.808 75.2189C32.5955 75.0723 32.4299 74.8636 32.3322 74.6194C32.2345 74.3752 32.2091 74.1064 32.2592 73.8472C32.3093 73.588 32.4327 73.35 32.6137 73.1635L35.1935 70.4929C35.3133 70.3689 35.4555 70.2705 35.612 70.2034C35.7684 70.1363 35.9362 70.1016 36.1055 70.1016C36.2749 70.1016 36.4426 70.1363 36.5991 70.2034C36.7556 70.2705 36.8979 70.3687 37.0177 70.4927C37.1374 70.6167 37.2323 70.764 37.2971 70.926C37.3619 71.088 37.3955 71.2616 37.3955 71.4369C37.3955 71.6123 37.3619 71.7859 37.2971 71.9479C37.2323 72.1099 37.1374 72.2572 37.0177 72.3812L34.4376 75.0517C34.318 75.1758 34.1759 75.2743 34.0193 75.3415C33.8628 75.4086 33.6951 75.4431 33.5256 75.4429Z" fill="url(#paint11_linear_1_86)"/>
<path d="M33.5411 50.069H1.28994C0.947829 50.069 0.619727 49.9283 0.377816 49.6779C0.135904 49.4275 0 49.0879 0 48.7337V15.3465C0 14.9924 0.135904 14.6527 0.377816 14.4023C0.619727 14.1519 0.947829 14.0112 1.28994 14.0112H33.5411C33.8832 14.0112 34.2113 14.1519 34.4532 14.4023C34.6952 14.6527 34.8311 14.9924 34.8311 15.3465V48.7337C34.8311 49.0879 34.6952 49.4275 34.4532 49.6779C34.2113 49.9283 33.8832 50.069 33.5411 50.069ZM2.57989 47.3984H32.2512V16.6819H2.57989V47.3984Z" fill="url(#paint12_linear_1_86)"/>
<path d="M13.5457 43.3964C13.2036 43.3964 12.8755 43.2557 12.6336 43.0053C12.3917 42.7549 12.2558 42.4152 12.2558 42.0611V28.7065C12.2558 28.3523 12.3917 28.0127 12.6336 27.7623C12.8755 27.5118 13.2036 27.3711 13.5457 27.3711C13.8878 27.3711 14.2159 27.5118 14.4578 27.7623C14.6997 28.0127 14.8356 28.3523 14.8356 28.7065V42.0611C14.8356 42.4152 14.6997 42.7549 14.4578 43.0053C14.2159 43.2557 13.8878 43.3964 13.5457 43.3964Z" fill="url(#paint13_linear_1_86)"/>
<path d="M11.6056 30.0391C10.9226 30.0384 10.2678 29.7572 9.78486 29.2573C9.30191 28.7574 9.03029 28.0795 9.02961 27.3725C9.02961 26.6634 9.5688 26.1533 10.2512 26.1146C10.9232 26.0572 11.5308 26.6674 11.6095 27.3698C11.7788 27.3701 11.9464 27.4049 12.1027 27.4722C12.2591 27.5395 12.4011 27.638 12.5206 27.7621C12.6401 27.8863 12.7349 28.0335 12.7995 28.1956C12.864 28.3576 12.8971 28.5312 12.8969 28.7065C12.8966 28.8817 12.863 29.0552 12.798 29.2171C12.7329 29.3789 12.6378 29.5259 12.5179 29.6496C12.398 29.7734 12.2557 29.8715 12.0992 29.9383C11.9426 30.0051 11.7749 30.0394 11.6056 30.0391ZM15.4793 30.0418C15.1372 30.0418 14.8091 29.9011 14.5672 29.6507C14.3253 29.4003 14.1894 29.0606 14.1894 28.7065C14.1894 28.3523 14.3253 28.0127 14.5672 27.7623C14.8091 27.5118 15.1372 27.3711 15.4793 27.3711C15.479 27.0166 15.6147 26.6765 15.8566 26.4256C16.0985 26.1747 16.4268 26.0335 16.7693 26.0331C17.1117 26.0328 17.4403 26.1733 17.6827 26.4237C17.9251 26.6741 18.0615 27.014 18.0618 27.3685C18.0608 28.0772 17.7884 28.7565 17.3043 29.2576C16.8202 29.7587 16.1639 30.0407 15.4793 30.0418Z" fill="url(#paint14_linear_1_86)"/>
<path d="M15.4832 30.0391H11.6056C11.2635 30.0391 10.9354 29.8984 10.6935 29.648C10.4516 29.3976 10.3157 29.058 10.3157 28.7038C10.3157 28.3497 10.4516 28.01 10.6935 27.7596C10.9354 27.5092 11.2635 27.3685 11.6056 27.3685H15.4832C15.8253 27.3685 16.1534 27.5092 16.3953 27.7596C16.6372 28.01 16.7731 28.3497 16.7731 28.7038C16.7731 29.058 16.6372 29.3976 16.3953 29.648C16.1534 29.8984 15.8253 30.0391 15.4832 30.0391Z" fill="url(#paint15_linear_1_86)"/>
<path d="M10.3208 28.7051C9.97873 28.7051 9.65062 28.5644 9.40871 28.314C9.1668 28.0636 9.0309 27.724 9.0309 27.3698V22.0258C9.0309 21.6717 9.1668 21.332 9.40871 21.0816C9.65062 20.8312 9.97873 20.6905 10.3208 20.6905C10.663 20.6905 10.9911 20.8312 11.233 21.0816C11.4749 21.332 11.6108 21.6717 11.6108 22.0258L11.6095 27.3698C11.6095 27.724 11.4749 28.0636 11.233 28.314C10.9911 28.5644 10.663 28.7051 10.3208 28.7051ZM16.7719 28.7051C16.4297 28.7051 16.1016 28.5644 15.8597 28.314C15.6178 28.0636 15.4819 27.724 15.4819 27.3698V22.0258C15.4819 21.6717 15.6178 21.332 15.8597 21.0816C16.1016 20.8312 16.4297 20.6905 16.7719 20.6905C17.114 20.6905 17.4421 20.8312 17.684 21.0816C17.9259 21.332 18.0618 21.6717 18.0618 22.0258V27.3685C18.0618 27.7226 17.9259 28.0636 17.684 28.314C17.4421 28.5644 17.114 28.7051 16.7719 28.7051ZM20.6404 43.3964C20.2983 43.3964 19.9702 43.2557 19.7283 43.0053C19.4864 42.7549 19.3504 42.4152 19.3504 42.0611V22.0218C19.3504 21.6677 19.4864 21.328 19.7283 21.0776C19.9702 20.8272 20.2983 20.6865 20.6404 20.6865C20.9825 20.6865 21.3106 20.8272 21.5525 21.0776C21.7944 21.328 21.9303 21.6677 21.9303 22.0218V42.0611C21.9303 42.4152 21.7944 42.7549 21.5525 43.0053C21.3106 43.2557 20.9825 43.3964 20.6404 43.3964Z" fill="url(#paint16_linear_1_86)"/>
<path d="M24.5102 27.3711C24.1681 27.3711 23.84 27.2305 23.5981 26.98C23.3562 26.7296 23.2203 26.39 23.2203 26.0358C23.2196 25.3256 22.9468 24.6447 22.4616 24.1425C21.9765 23.6403 21.3187 23.3579 20.6327 23.3572C20.2905 23.3572 19.9624 23.2165 19.7205 22.966C19.4786 22.7156 19.3427 22.376 19.3427 22.0218C19.3427 21.6677 19.4786 21.328 19.7205 21.0776C19.9624 20.8272 20.2905 20.6865 20.6327 20.6865C22.0027 20.6879 23.3163 21.252 24.2851 22.2548C25.2539 23.2577 25.7988 24.6175 25.8002 26.0358C25.8002 26.39 25.6643 26.7296 25.4223 26.98C25.1804 27.2305 24.8523 27.3711 24.5102 27.3711Z" fill="url(#paint17_linear_1_86)"/>
<path d="M24.5102 35.3764C24.1681 35.3764 23.84 35.2357 23.5981 34.9853C23.3562 34.7349 23.2203 34.3953 23.2203 34.0411L23.2203 26.0358C23.2203 25.6817 23.3562 25.342 23.5981 25.0916C23.84 24.8412 24.1681 24.7005 24.5102 24.7005C24.8523 24.7005 25.1804 24.8412 25.4223 25.0916C25.6643 25.342 25.8002 25.6817 25.8002 26.0358L25.8002 34.0411C25.8002 34.3953 25.6643 34.7349 25.4223 34.9853C25.1804 35.2357 24.8523 35.3764 24.5102 35.3764Z" fill="url(#paint18_linear_1_86)"/>
<path d="M24.5102 35.3764H20.6404C20.2983 35.3764 19.9702 35.2357 19.7283 34.9853C19.4864 34.7349 19.3504 34.3953 19.3504 34.0411C19.3504 33.687 19.4864 33.3473 19.7283 33.0969C19.9702 32.8465 20.2983 32.7058 20.6404 32.7058H24.5102C24.8523 32.7058 25.1804 32.8465 25.4223 33.0969C25.6643 33.3473 25.8002 33.687 25.8002 34.0411C25.8002 34.3953 25.6643 34.7349 25.4223 34.9853C25.1804 35.2357 24.8523 35.3764 24.5102 35.3764ZM16.7719 26.0305H10.3208C9.97873 26.0305 9.65062 25.8898 9.40871 25.6394C9.1668 25.3889 9.0309 25.0493 9.0309 24.6952C9.0309 24.341 9.1668 24.0014 9.40871 23.7509C9.65062 23.5005 9.97873 23.3598 10.3208 23.3598H16.7719C17.114 23.3598 17.4421 23.5005 17.684 23.7509C17.9259 24.0014 18.0618 24.341 18.0618 24.6952C18.0618 25.0493 17.9259 25.3889 17.684 25.6394C17.4421 25.8898 17.114 26.0305 16.7719 26.0305Z" fill="url(#paint19_linear_1_86)"/>
<path d="M13.5444 26.0291C13.2023 26.0291 12.8742 25.8885 12.6323 25.638C12.3904 25.3876 12.2545 25.048 12.2545 24.6938V22.0258C12.2545 21.6717 12.3904 21.332 12.6323 21.0816C12.8742 20.8312 13.2023 20.6905 13.5444 20.6905C13.8865 20.6905 14.2146 20.8312 14.4565 21.0816C14.6984 21.332 14.8344 21.6717 14.8344 22.0258V24.6938C14.8344 25.048 14.6984 25.3876 14.4565 25.638C14.2146 25.8885 13.8865 26.0291 13.5444 26.0291Z" fill="url(#paint20_linear_1_86)"/>
<path d="M38.7035 50.069H33.5411C33.199 50.069 32.8709 49.9283 32.629 49.6779C32.3871 49.4275 32.2512 49.0879 32.2512 48.7337C32.2512 48.3796 32.3871 48.0399 32.629 47.7895C32.8709 47.5391 33.199 47.3984 33.5411 47.3984H37.4135V16.6819H33.5411C33.199 16.6819 32.8709 16.5412 32.629 16.2907C32.3871 16.0403 32.2512 15.7007 32.2512 15.3465C32.2512 14.9924 32.3871 14.6527 32.629 14.4023C32.8709 14.1519 33.199 14.0112 33.5411 14.0112H38.7035C39.0456 14.0112 39.3737 14.1519 39.6156 14.4023C39.8575 14.6527 39.9934 14.9924 39.9934 15.3465V48.7337C39.9934 49.0879 39.8575 49.4275 39.6156 49.6779C39.3737 49.9283 39.0456 50.069 38.7035 50.069Z" fill="url(#paint21_linear_1_86)"/>
<path d="M24.5115 10.6756C24.1694 10.6756 23.8413 10.5349 23.5994 10.2844C23.3575 10.034 23.2216 9.69438 23.2216 9.34022C23.2216 6.02594 20.6172 3.32858 17.4168 3.32858C14.2165 3.32858 11.6121 6.02594 11.6121 9.34022C11.6121 9.69438 11.4762 10.034 11.2343 10.2844C10.9923 10.5349 10.6642 10.6756 10.3221 10.6756C9.98002 10.6756 9.65191 10.5349 9.41 10.2844C9.16809 10.034 9.03219 9.69438 9.03219 9.34022C9.03219 4.55308 12.7937 0.657928 17.4168 0.657928C22.04 0.657928 25.8015 4.55308 25.8015 9.34022C25.8015 9.69438 25.6656 10.034 25.4236 10.2844C25.1817 10.5349 24.8536 10.6756 24.5115 10.6756Z" fill="url(#paint22_linear_1_86)"/>
<path d="M10.3221 16.6819C9.98002 16.6819 9.65191 16.5412 9.41 16.2907C9.16809 16.0403 9.03219 15.7007 9.03219 15.3465V9.34022C9.03219 8.98607 9.16809 8.64643 9.41 8.39601C9.65191 8.14558 9.98002 8.0049 10.3221 8.0049C10.6642 8.0049 10.9923 8.14558 11.2343 8.39601C11.4762 8.64643 11.6121 8.98607 11.6121 9.34022V15.3465C11.6121 15.7007 11.4762 16.0403 11.2343 16.2907C10.9923 16.5412 10.6642 16.6819 10.3221 16.6819Z" fill="url(#paint23_linear_1_86)"/>
<path d="M24.5115 16.6819C24.1694 16.6819 23.8413 16.5412 23.5994 16.2907C23.3575 16.0403 23.2216 15.7007 23.2216 15.3465V9.34022C23.2216 8.98607 23.3575 8.64643 23.5994 8.39601C23.8413 8.14558 24.1694 8.0049 24.5115 8.0049C24.8536 8.0049 25.1817 8.14558 25.4236 8.39601C25.6656 8.64643 25.8015 8.98607 25.8015 9.34022V15.3465C25.8015 15.7007 25.6656 16.0403 25.4236 16.2907C25.1817 16.5412 24.8536 16.6819 24.5115 16.6819Z" fill="url(#paint24_linear_1_86)"/>
<path d="M29.6764 10.6756C29.3343 10.6756 29.0062 10.5349 28.7643 10.2844C28.5224 10.034 28.3865 9.69438 28.3865 9.34022C28.3865 6.02594 25.7821 3.32858 22.5818 3.32858C19.3814 3.32858 16.777 6.02594 16.777 9.34022C16.777 9.69438 16.6411 10.034 16.3992 10.2844C16.1573 10.5349 15.8292 10.6756 15.4871 10.6756C15.145 10.6756 14.8168 10.5349 14.5749 10.2844C14.333 10.034 14.1971 9.69438 14.1971 9.34022C14.1971 4.55308 17.9586 0.657928 22.5818 0.657928C27.2049 0.657928 30.9664 4.55308 30.9664 9.34022C30.9664 9.69438 30.8305 10.034 30.5886 10.2844C30.3467 10.5349 30.0186 10.6756 29.6764 10.6756Z" fill="url(#paint25_linear_1_86)"/>
<path d="M15.4871 16.6819C15.145 16.6819 14.8168 16.5412 14.5749 16.2907C14.333 16.0403 14.1971 15.7007 14.1971 15.3465V9.34022C14.1971 8.98607 14.333 8.64643 14.5749 8.39601C14.8168 8.14558 15.145 8.0049 15.4871 8.0049C15.8292 8.0049 16.1573 8.14558 16.3992 8.39601C16.6411 8.64643 16.777 8.98607 16.777 9.34022V15.3465C16.777 15.7007 16.6411 16.0403 16.3992 16.2907C16.1573 16.5412 15.8292 16.6819 15.4871 16.6819Z" fill="url(#paint26_linear_1_86)"/>
<path d="M29.6764 16.6819C29.3343 16.6819 29.0062 16.5412 28.7643 16.2907C28.5224 16.0403 28.3865 15.7007 28.3865 15.3465V9.34022C28.3865 8.98607 28.5224 8.64643 28.7643 8.39601C29.0062 8.14558 29.3343 8.0049 29.6764 8.0049C30.0186 8.0049 30.3467 8.14558 30.5886 8.39601C30.8305 8.64643 30.9664 8.98607 30.9664 9.34022V15.3465C30.9664 15.7007 30.8305 16.0403 30.5886 16.2907C30.3467 16.5412 30.0186 16.6819 29.6764 16.6819Z" fill="url(#paint27_linear_1_86)"/>
<defs>
<linearGradient id="paint0_linear_1_86" x1="81.98" y1="86.1162" x2="-2.62636" y2="86.1162" gradientUnits="userSpaceOnUse">
<stop stop-color="#FF5A2F"/>
<stop offset="1" stop-color="#FF6C44"/>
</linearGradient>
<linearGradient id="paint1_linear_1_86" x1="81.98" y1="86.1162" x2="-2.62636" y2="86.1162" gradientUnits="userSpaceOnUse">
<stop stop-color="#FF5A2F"/>
<stop offset="1" stop-color="#FF6C44"/>
</linearGradient>
<linearGradient id="paint2_linear_1_86" x1="81.98" y1="86.1162" x2="-2.62636" y2="86.1162" gradientUnits="userSpaceOnUse">
<stop stop-color="#FF5A2F"/>
<stop offset="1" stop-color="#FF6C44"/>
</linearGradient>
<linearGradient id="paint3_linear_1_86" x1="81.98" y1="86.1162" x2="-2.62636" y2="86.1162" gradientUnits="userSpaceOnUse">
<stop stop-color="#FF5A2F"/>
<stop offset="1" stop-color="#FF6C44"/>
</linearGradient>
<linearGradient id="paint4_linear_1_86" x1="81.98" y1="86.1162" x2="-2.62636" y2="86.1162" gradientUnits="userSpaceOnUse">
<stop stop-color="#FF5A2F"/>
<stop offset="1" stop-color="#FF6C44"/>
</linearGradient>
<linearGradient id="paint5_linear_1_86" x1="81.98" y1="86.1162" x2="-2.62636" y2="86.1162" gradientUnits="userSpaceOnUse">
<stop stop-color="#FF5A2F"/>
<stop offset="1" stop-color="#FF6C44"/>
</linearGradient>
<linearGradient id="paint6_linear_1_86" x1="81.98" y1="86.1162" x2="-2.62636" y2="86.1162" gradientUnits="userSpaceOnUse">
<stop stop-color="#FF5A2F"/>
<stop offset="1" stop-color="#FF6C44"/>
</linearGradient>
<linearGradient id="paint7_linear_1_86" x1="81.98" y1="86.1162" x2="-2.62636" y2="86.1162" gradientUnits="userSpaceOnUse">
<stop stop-color="#FF5A2F"/>
<stop offset="1" stop-color="#FF6C44"/>
</linearGradient>
<linearGradient id="paint8_linear_1_86" x1="81.98" y1="86.1162" x2="-2.62636" y2="86.1162" gradientUnits="userSpaceOnUse">
<stop stop-color="#FF5A2F"/>
<stop offset="1" stop-color="#FF6C44"/>
</linearGradient>
<linearGradient id="paint9_linear_1_86" x1="81.98" y1="86.1162" x2="-2.62636" y2="86.1162" gradientUnits="userSpaceOnUse">
<stop stop-color="#FF5A2F"/>
<stop offset="1" stop-color="#FF6C44"/>
</linearGradient>
<linearGradient id="paint10_linear_1_86" x1="81.98" y1="86.1162" x2="-2.62636" y2="86.1162" gradientUnits="userSpaceOnUse">
<stop stop-color="#FF5A2F"/>
<stop offset="1" stop-color="#FF6C44"/>
</linearGradient>
<linearGradient id="paint11_linear_1_86" x1="81.98" y1="86.1162" x2="-2.62636" y2="86.1162" gradientUnits="userSpaceOnUse">
<stop stop-color="#FF5A2F"/>
<stop offset="1" stop-color="#FF6C44"/>
</linearGradient>
<linearGradient id="paint12_linear_1_86" x1="81.98" y1="86.1162" x2="-2.62636" y2="86.1162" gradientUnits="userSpaceOnUse">
<stop stop-color="#FF5A2F"/>
<stop offset="1" stop-color="#FF6C44"/>
</linearGradient>
<linearGradient id="paint13_linear_1_86" x1="81.98" y1="86.1162" x2="-2.62636" y2="86.1162" gradientUnits="userSpaceOnUse">
<stop stop-color="#FF5A2F"/>
<stop offset="1" stop-color="#FF6C44"/>
</linearGradient>
<linearGradient id="paint14_linear_1_86" x1="81.98" y1="86.1162" x2="-2.62636" y2="86.1162" gradientUnits="userSpaceOnUse">
<stop stop-color="#FF5A2F"/>
<stop offset="1" stop-color="#FF6C44"/>
</linearGradient>
<linearGradient id="paint15_linear_1_86" x1="81.98" y1="86.1162" x2="-2.62636" y2="86.1162" gradientUnits="userSpaceOnUse">
<stop stop-color="#FF5A2F"/>
<stop offset="1" stop-color="#FF6C44"/>
</linearGradient>
<linearGradient id="paint16_linear_1_86" x1="81.98" y1="86.1162" x2="-2.62636" y2="86.1162" gradientUnits="userSpaceOnUse">
<stop stop-color="#FF5A2F"/>
<stop offset="1" stop-color="#FF6C44"/>
</linearGradient>
<linearGradient id="paint17_linear_1_86" x1="81.98" y1="86.1162" x2="-2.62636" y2="86.1162" gradientUnits="userSpaceOnUse">
<stop stop-color="#FF5A2F"/>
<stop offset="1" stop-color="#FF6C44"/>
</linearGradient>
<linearGradient id="paint18_linear_1_86" x1="81.98" y1="86.1162" x2="-2.62636" y2="86.1162" gradientUnits="userSpaceOnUse">
<stop stop-color="#FF5A2F"/>
<stop offset="1" stop-color="#FF6C44"/>
</linearGradient>
<linearGradient id="paint19_linear_1_86" x1="81.98" y1="86.1162" x2="-2.62636" y2="86.1162" gradientUnits="userSpaceOnUse">
<stop stop-color="#FF5A2F"/>
<stop offset="1" stop-color="#FF6C44"/>
</linearGradient>
<linearGradient id="paint20_linear_1_86" x1="81.98" y1="86.1162" x2="-2.62636" y2="86.1162" gradientUnits="userSpaceOnUse">
<stop stop-color="#FF5A2F"/>
<stop offset="1" stop-color="#FF6C44"/>
</linearGradient>
<linearGradient id="paint21_linear_1_86" x1="81.98" y1="86.1162" x2="-2.62636" y2="86.1162" gradientUnits="userSpaceOnUse">
<stop stop-color="#FF5A2F"/>
<stop offset="1" stop-color="#FF6C44"/>
</linearGradient>
<linearGradient id="paint22_linear_1_86" x1="81.98" y1="86.1162" x2="-2.62636" y2="86.1162" gradientUnits="userSpaceOnUse">
<stop stop-color="#FF5A2F"/>
<stop offset="1" stop-color="#FF6C44"/>
</linearGradient>
<linearGradient id="paint23_linear_1_86" x1="81.98" y1="86.1162" x2="-2.62636" y2="86.1162" gradientUnits="userSpaceOnUse">
<stop stop-color="#FF5A2F"/>
<stop offset="1" stop-color="#FF6C44"/>
</linearGradient>
<linearGradient id="paint24_linear_1_86" x1="81.98" y1="86.1162" x2="-2.62636" y2="86.1162" gradientUnits="userSpaceOnUse">
<stop stop-color="#FF5A2F"/>
<stop offset="1" stop-color="#FF6C44"/>
</linearGradient>
<linearGradient id="paint25_linear_1_86" x1="81.98" y1="86.1162" x2="-2.62636" y2="86.1162" gradientUnits="userSpaceOnUse">
<stop stop-color="#FF5A2F"/>
<stop offset="1" stop-color="#FF6C44"/>
</linearGradient>
<linearGradient id="paint26_linear_1_86" x1="81.98" y1="86.1162" x2="-2.62636" y2="86.1162" gradientUnits="userSpaceOnUse">
<stop stop-color="#FF5A2F"/>
<stop offset="1" stop-color="#FF6C44"/>
</linearGradient>
<linearGradient id="paint27_linear_1_86" x1="81.98" y1="86.1162" x2="-2.62636" y2="86.1162" gradientUnits="userSpaceOnUse">
<stop stop-color="#FF5A2F"/>
<stop offset="1" stop-color="#FF6C44"/>
</linearGradient>
</defs>
</svg>
