<svg width="74" height="81" viewBox="0 0 74 81" fill="none" xmlns="http://www.w3.org/2000/svg">
<path d="M50.75 75.6587H23.25C18.4263 75.6587 14.5 71.7019 14.5 66.8407C14.5 66.5066 14.6317 66.1862 14.8661 65.95C15.1005 65.7138 15.4185 65.581 15.75 65.581C16.0815 65.581 16.3995 65.7138 16.6339 65.95C16.8683 66.1862 17 66.5066 17 66.8407C17 70.3137 19.8037 73.1393 23.25 73.1393H50.75C54.1963 73.1393 57 70.3137 57 66.8407C57 66.5066 57.1317 66.1862 57.3661 65.95C57.6005 65.7138 57.9185 65.581 58.25 65.581C58.5815 65.581 58.8995 65.7138 59.1339 65.95C59.3683 66.1862 59.5 66.5066 59.5 66.8407C59.5 71.7019 55.5737 75.6587 50.75 75.6587ZM33.2875 6.37499C32.5963 6.37499 32.0312 5.81065 32.0312 5.11529C32.0312 4.41993 32.5837 3.85559 33.2738 3.85559H33.2875C33.619 3.85559 33.937 3.9883 34.1714 4.22454C34.4058 4.46078 34.5375 4.7812 34.5375 5.11529C34.5375 5.44938 34.4058 5.76979 34.1714 6.00603C33.937 6.24227 33.619 6.37499 33.2875 6.37499ZM40.75 6.37499H37C36.6685 6.37499 36.3505 6.24227 36.1161 6.00603C35.8817 5.76979 35.75 5.44938 35.75 5.11529C35.75 4.7812 35.8817 4.46078 36.1161 4.22454C36.3505 3.9883 36.6685 3.85559 37 3.85559H40.75C41.0815 3.85559 41.3995 3.9883 41.6339 4.22454C41.8683 4.46078 42 4.7812 42 5.11529C42 5.44938 41.8683 5.76979 41.6339 6.00603C41.3995 6.24227 41.0815 6.37499 40.75 6.37499ZM58.25 8.89692C57.9185 8.89692 57.6005 8.7642 57.3661 8.52796C57.1317 8.29172 57 7.97131 57 7.63721C57 4.85831 54.7575 2.5984 52 2.5984C51.6685 2.5984 51.3505 2.46568 51.1161 2.22944C50.8817 1.9932 50.75 1.67279 50.75 1.3387C50.75 1.00461 50.8817 0.684195 51.1161 0.447955C51.3505 0.211715 51.6685 0.0789965 52 0.0789965C56.1362 0.0789965 59.5 3.46886 59.5 7.63721C59.5 7.97131 59.3683 8.29172 59.1339 8.52796C58.8995 8.7642 58.5815 8.89692 58.25 8.89692ZM15.75 8.8944C15.4185 8.8944 15.1005 8.76168 14.8661 8.52544C14.6317 8.2892 14.5 7.96879 14.5 7.6347C14.5 3.46634 17.8638 0.0764771 22 0.0764771C22.3315 0.0764771 22.6495 0.209195 22.8839 0.445436C23.1183 0.681676 23.25 1.00209 23.25 1.33618C23.25 1.67027 23.1183 1.99068 22.8839 2.22692C22.6495 2.46316 22.3315 2.59588 22 2.59588C19.2425 2.59588 17 4.85579 17 7.6347C17 7.96879 16.8683 8.2892 16.6339 8.52544C16.3995 8.76168 16.0815 8.8944 15.75 8.8944Z" fill="url(#paint0_linear_1_102)"/>
<path d="M52 2.59588H22C21.6685 2.59588 21.3505 2.46316 21.1161 2.22692C20.8817 1.99068 20.75 1.67027 20.75 1.33618C20.75 1.00209 20.8817 0.681676 21.1161 0.445436C21.3505 0.209195 21.6685 0.0764771 22 0.0764771H52C52.3315 0.0764771 52.6495 0.209195 52.8839 0.445436C53.1183 0.681676 53.25 1.00209 53.25 1.33618C53.25 1.67027 53.1183 1.99068 52.8839 2.22692C52.6495 2.46316 52.3315 2.59588 52 2.59588ZM58.25 10.1566H15.75C15.4185 10.1566 15.1005 10.0239 14.8661 9.78766C14.6317 9.55142 14.5 9.23101 14.5 8.89692C14.5 8.56282 14.6317 8.24241 14.8661 8.00617C15.1005 7.76993 15.4185 7.63721 15.75 7.63721H58.25C58.5815 7.63721 58.8995 7.76993 59.1339 8.00617C59.3683 8.24241 59.5 8.56282 59.5 8.89692C59.5 9.23101 59.3683 9.55142 59.1339 9.78766C58.8995 10.0239 58.5815 10.1566 58.25 10.1566ZM50.75 80.6975H23.25C18.4263 80.6975 14.5 76.7407 14.5 71.8795V54.245C14.5 53.9109 14.6317 53.5905 14.8661 53.3542C15.1005 53.118 15.4185 52.9853 15.75 52.9853C16.0815 52.9853 16.3995 53.118 16.6339 53.3542C16.8683 53.5905 17 53.9109 17 54.245V71.8795C17 75.3526 19.8037 78.1781 23.25 78.1781H50.75C54.1963 78.1781 57 75.3526 57 71.8795V37.8663C57 37.5322 57.1317 37.2118 57.3661 36.9756C57.6005 36.7393 57.9185 36.6066 58.25 36.6066C58.5815 36.6066 58.8995 36.7393 59.1339 36.9756C59.3683 37.2118 59.5 37.5322 59.5 37.8663V71.8795C59.5 76.7407 55.5737 80.6975 50.75 80.6975Z" fill="url(#paint1_linear_1_102)"/>
<path d="M58.25 65.581H15.75C15.4185 65.581 15.1005 65.4483 14.8661 65.2121C14.6317 64.9758 14.5 64.6554 14.5 64.3213C14.5 63.9872 14.6317 63.6668 14.8661 63.4306C15.1005 63.1943 15.4185 63.0616 15.75 63.0616H58.25C58.5815 63.0616 58.8995 63.1943 59.1339 63.4306C59.3683 63.6668 59.5 63.9872 59.5 64.3213C59.5 64.6554 59.3683 64.9758 59.1339 65.2121C58.8995 65.4483 58.5815 65.581 58.25 65.581ZM37 73.1393C34.9325 73.1393 33.25 71.4437 33.25 69.3601C33.25 67.2766 34.9325 65.581 37 65.581C39.0675 65.581 40.75 67.2766 40.75 69.3601C40.75 71.4437 39.0675 73.1393 37 73.1393ZM37 68.1004C36.6685 68.1004 36.3505 68.2332 36.1161 68.4694C35.8817 68.7056 35.75 69.026 35.75 69.3601C35.75 69.6942 35.8817 70.0146 36.1161 70.2509C36.3505 70.4871 36.6685 70.6199 37 70.6199C37.3315 70.6199 37.6495 70.4871 37.8839 70.2509C38.1183 70.0146 38.25 69.6942 38.25 69.3601C38.25 69.026 38.1183 68.7056 37.8839 68.4694C37.6495 68.2332 37.3315 68.1004 37 68.1004ZM32 59.2838C31.7775 59.2838 31.555 59.2233 31.3563 59.1036L25.4025 55.5047H2C1.66848 55.5047 1.35054 55.372 1.11612 55.1357C0.881696 54.8995 0.75 54.5791 0.75 54.245V25.2655C0.75 24.9314 0.881696 24.611 1.11612 24.3748C1.35054 24.1385 1.66848 24.0058 2 24.0058H32C32.3315 24.0058 32.6495 24.1385 32.8839 24.3748C33.1183 24.611 33.25 24.9314 33.25 25.2655V58.0241C33.25 58.3582 33.1183 58.6786 32.8839 58.9148C32.6495 59.1511 32.3315 59.2838 32 59.2838ZM3.25 52.9853H25.75C25.9775 52.9853 26.1987 53.047 26.3937 53.1654L30.75 55.7982V26.5252H3.25V52.9853ZM42 42.9051C41.6685 42.9051 41.3505 42.7724 41.1161 42.5362C40.8817 42.2999 40.75 41.9795 40.75 41.6454V15.1917C40.75 14.8576 40.8817 14.5371 41.1161 14.3009C41.3505 14.0647 41.6685 13.932 42 13.932H72C72.3315 13.932 72.6495 14.0647 72.8839 14.3009C73.1183 14.5371 73.25 14.8576 73.25 15.1917V37.8663C73.25 38.2004 73.1183 38.5208 72.8839 38.7571C72.6495 38.9933 72.3315 39.126 72 39.126H48.5975L42.6425 42.725C42.4485 42.8427 42.2264 42.905 42 42.9051ZM43.25 16.4514V39.4208L47.6075 36.7867C47.8013 36.6696 48.0238 36.6066 48.2513 36.6066H70.75V16.4514H43.25Z" fill="url(#paint2_linear_1_102)"/>
<path d="M15.75 26.5252C15.4185 26.5252 15.1005 26.3925 14.8661 26.1562C14.6317 25.92 14.5 25.5996 14.5 25.2655V7.6347C14.5 7.3006 14.6317 6.98019 14.8661 6.74395C15.1005 6.50771 15.4185 6.37499 15.75 6.37499C16.0815 6.37499 16.3995 6.50771 16.6339 6.74395C16.8683 6.98019 17 7.3006 17 7.6347V25.2655C17 25.5996 16.8683 25.92 16.6339 26.1562C16.3995 26.3925 16.0815 26.5252 15.75 26.5252ZM58.25 16.4514C57.9185 16.4514 57.6005 16.3186 57.3661 16.0824C57.1317 15.8462 57 15.5257 57 15.1917V7.63721C57 7.30312 57.1317 6.98271 57.3661 6.74647C57.6005 6.51023 57.9185 6.37751 58.25 6.37751C58.5815 6.37751 58.8995 6.51023 59.1339 6.74647C59.3683 6.98271 59.5 7.30312 59.5 7.63721V15.1917C59.5 15.5257 59.3683 15.8462 59.1339 16.0824C58.8995 16.3186 58.5815 16.4514 58.25 16.4514ZM65.75 22.7499H48.25C47.9185 22.7499 47.6005 22.6172 47.3661 22.3809C47.1317 22.1447 47 21.8243 47 21.4902C47 21.1561 47.1317 20.8357 47.3661 20.5994C47.6005 20.3632 47.9185 20.2305 48.25 20.2305H65.75C66.0815 20.2305 66.3995 20.3632 66.6339 20.5994C66.8683 20.8357 67 21.1561 67 21.4902C67 21.8243 66.8683 22.1447 66.6339 22.3809C66.3995 22.6172 66.0815 22.7499 65.75 22.7499Z" fill="url(#paint3_linear_1_102)"/>
<path d="M65.75 27.7887H48.25C47.9185 27.7887 47.6005 27.656 47.3661 27.4197C47.1317 27.1835 47 26.8631 47 26.529C47 26.1949 47.1317 25.8745 47.3661 25.6382C47.6005 25.402 47.9185 25.2693 48.25 25.2693H65.75C66.0815 25.2693 66.3995 25.402 66.6339 25.6382C66.8683 25.8745 67 26.1949 67 26.529C67 26.8631 66.8683 27.1835 66.6339 27.4197C66.3995 27.656 66.0815 27.7887 65.75 27.7887Z" fill="url(#paint4_linear_1_102)"/>
<path d="M57 32.8275H48.25C47.9185 32.8275 47.6005 32.6948 47.3661 32.4585C47.1317 32.2223 47 31.9019 47 31.5678C47 31.2337 47.1317 30.9133 47.3661 30.677C47.6005 30.4408 47.9185 30.3081 48.25 30.3081H57C57.3315 30.3081 57.6495 30.4408 57.8839 30.677C58.1183 30.9133 58.25 31.2337 58.25 31.5678C58.25 31.9019 58.1183 32.2223 57.8839 32.4585C57.6495 32.6948 57.3315 32.8275 57 32.8275Z" fill="url(#paint5_linear_1_102)"/>
<path d="M12.6263 49.2062C12.2947 49.2062 11.9768 49.0734 11.7424 48.8372C11.5079 48.601 11.3763 48.2805 11.3763 47.9465V37.8701C11.3763 37.536 11.5079 37.2156 11.7424 36.9793C11.9768 36.7431 12.2947 36.6104 12.6263 36.6104C12.9578 36.6104 13.2757 36.7431 13.5101 36.9793C13.7446 37.2156 13.8763 37.536 13.8763 37.8701V47.9465C13.8763 48.2805 13.7446 48.601 13.5101 48.8372C13.2757 49.0734 12.9578 49.2062 12.6263 49.2062Z" fill="url(#paint6_linear_1_102)"/>
<path d="M10.7463 39.1273C10.0845 39.1263 9.45015 38.8609 8.98223 38.3894C8.51431 37.9178 8.25099 37.2785 8.25 36.6116C8.25 35.9427 8.7725 35.4615 9.43375 35.425C10.0762 35.3847 10.6737 35.9465 10.75 36.6079C11.0815 36.6084 11.3993 36.7416 11.6333 36.9782C11.8674 37.2148 11.9986 37.5354 11.9981 37.8695C11.9976 38.2036 11.8655 38.5238 11.6307 38.7597C11.3959 38.9955 11.0778 39.1278 10.7463 39.1273ZM14.5 39.1298C14.1685 39.1298 13.8505 38.9971 13.6161 38.7608C13.3817 38.5246 13.25 38.2042 13.25 37.8701C13.25 37.536 13.3817 37.2156 13.6161 36.9793C13.8505 36.7431 14.1685 36.6104 14.5 36.6104C14.4997 36.276 14.6312 35.9551 14.8656 35.7184C15.1 35.4817 15.4181 35.3485 15.75 35.3482C16.0819 35.3478 16.4002 35.4804 16.6351 35.7166C16.87 35.9528 17.0022 36.2734 17.0025 36.6079C17.0018 37.2765 16.738 37.9176 16.2688 38.3904C15.7996 38.8632 15.1635 39.1291 14.5 39.1298Z" fill="url(#paint7_linear_1_102)"/>
<path d="M14.5037 39.1273H10.7463C10.4147 39.1273 10.0968 38.9946 9.86237 38.7583C9.62795 38.5221 9.49625 38.2017 9.49625 37.8676C9.49625 37.5335 9.62795 37.2131 9.86237 36.9768C10.0968 36.7406 10.4147 36.6079 10.7463 36.6079H14.5037C14.8353 36.6079 15.1532 36.7406 15.3876 36.9768C15.6221 37.2131 15.7537 37.5335 15.7537 37.8676C15.7537 38.2017 15.6221 38.5221 15.3876 38.7583C15.1532 38.9946 14.8353 39.1273 14.5037 39.1273Z" fill="url(#paint8_linear_1_102)"/>
<path d="M9.50125 37.8688C9.16973 37.8688 8.85179 37.7361 8.61737 37.4999C8.38295 37.2636 8.25125 36.9432 8.25125 36.6091V31.5678C8.25125 31.2337 8.38295 30.9133 8.61737 30.677C8.85179 30.4408 9.16973 30.3081 9.50125 30.3081C9.83277 30.3081 10.1507 30.4408 10.3851 30.677C10.6196 30.9133 10.7513 31.2337 10.7513 31.5678V36.6091C10.7513 36.9432 10.6196 37.2636 10.3851 37.4999C10.1507 37.7361 9.83277 37.8688 9.50125 37.8688ZM15.7525 37.8688C15.421 37.8688 15.103 37.7361 14.8686 37.4999C14.6342 37.2636 14.5025 36.9432 14.5025 36.6091V31.5678C14.5025 31.2337 14.6342 30.9133 14.8686 30.677C15.103 30.4408 15.421 30.3081 15.7525 30.3081C16.084 30.3081 16.402 30.4408 16.6364 30.677C16.8708 30.9133 17.0025 31.2337 17.0025 31.5678V36.6079C17.0025 36.942 16.8708 37.2636 16.6364 37.4999C16.402 37.7361 16.084 37.8688 15.7525 37.8688ZM19.5012 49.2062C19.1697 49.2062 18.8518 49.0734 18.6174 48.8372C18.3829 48.601 18.2512 48.2805 18.2512 47.9465V31.564C18.2512 31.2299 18.3829 30.9095 18.6174 30.6733C18.8518 30.437 19.1697 30.3043 19.5012 30.3043C19.8328 30.3043 20.1507 30.437 20.3851 30.6733C20.6196 30.9095 20.7512 31.2299 20.7512 31.564V47.9465C20.7512 48.2805 20.6196 48.601 20.3851 48.8372C20.1507 49.0734 19.8328 49.2062 19.5012 49.2062Z" fill="url(#paint9_linear_1_102)"/>
<path d="M23.2512 36.6104C22.9197 36.6104 22.6018 36.4777 22.3674 36.2414C22.1329 36.0052 22.0012 35.6848 22.0012 35.3507C22.0006 34.6807 21.7362 34.0383 21.2661 33.5646C20.796 33.0908 20.1586 32.8244 19.4938 32.8237C19.1622 32.8237 18.8443 32.691 18.6099 32.4548C18.3754 32.2185 18.2438 31.8981 18.2438 31.564C18.2438 31.2299 18.3754 30.9095 18.6099 30.6733C18.8443 30.437 19.1622 30.3043 19.4938 30.3043C20.8214 30.3056 22.0943 30.8377 23.0331 31.7838C23.9719 32.7299 24.4999 34.0127 24.5012 35.3507C24.5012 35.6848 24.3696 36.0052 24.1351 36.2414C23.9007 36.4777 23.5828 36.6104 23.2512 36.6104Z" fill="url(#paint10_linear_1_102)"/>
<path d="M23.2512 42.9013C22.9197 42.9013 22.6018 42.7686 22.3674 42.5324C22.1329 42.2961 22.0012 41.9757 22.0012 41.6416V35.3507C22.0012 35.0166 22.1329 34.6962 22.3674 34.4599C22.6018 34.2237 22.9197 34.091 23.2512 34.091C23.5828 34.091 23.9007 34.2237 24.1351 34.4599C24.3696 34.6962 24.5012 35.0166 24.5012 35.3507V41.6416C24.5012 41.9757 24.3696 42.2961 24.1351 42.5324C23.9007 42.7686 23.5828 42.9013 23.2512 42.9013Z" fill="url(#paint11_linear_1_102)"/>
<path d="M23.2512 42.9013H19.5012C19.1697 42.9013 18.8518 42.7686 18.6174 42.5324C18.3829 42.2961 18.2512 41.9757 18.2512 41.6416C18.2512 41.3075 18.3829 40.9871 18.6174 40.7509C18.8518 40.5147 19.1697 40.3819 19.5012 40.3819H23.2512C23.5828 40.3819 23.9007 40.5147 24.1351 40.7509C24.3696 40.9871 24.5012 41.3075 24.5012 41.6416C24.5012 41.9757 24.3696 42.2961 24.1351 42.5324C23.9007 42.7686 23.5828 42.9013 23.2512 42.9013ZM15.7525 35.3456H9.50125C9.16973 35.3456 8.85179 35.2129 8.61737 34.9767C8.38295 34.7404 8.25125 34.42 8.25125 34.0859C8.25125 33.7518 8.38295 33.4314 8.61737 33.1952C8.85179 32.959 9.16973 32.8262 9.50125 32.8262H15.7525C16.084 32.8262 16.402 32.959 16.6364 33.1952C16.8708 33.4314 17.0025 33.7518 17.0025 34.0859C17.0025 34.42 16.8708 34.7404 16.6364 34.9767C16.402 35.2129 16.084 35.3456 15.7525 35.3456Z" fill="url(#paint12_linear_1_102)"/>
<path d="M12.625 35.3444C12.2935 35.3444 11.9755 35.2117 11.7411 34.9754C11.5067 34.7392 11.375 34.4188 11.375 34.0847V31.5678C11.375 31.2337 11.5067 30.9133 11.7411 30.677C11.9755 30.4408 12.2935 30.3081 12.625 30.3081C12.9565 30.3081 13.2745 30.4408 13.5089 30.677C13.7433 30.9133 13.875 31.2337 13.875 31.5678V34.0847C13.875 34.4188 13.7433 34.7392 13.5089 34.9754C13.2745 35.2117 12.9565 35.3444 12.625 35.3444Z" fill="url(#paint13_linear_1_102)"/>
<defs>
<linearGradient id="paint0_linear_1_102" x1="75.0443" y1="80.6975" x2="-1.63014" y2="80.6975" gradientUnits="userSpaceOnUse">
<stop stop-color="#FF5A2F"/>
<stop offset="1" stop-color="#FF6C44"/>
</linearGradient>
<linearGradient id="paint1_linear_1_102" x1="75.0443" y1="80.6975" x2="-1.63014" y2="80.6975" gradientUnits="userSpaceOnUse">
<stop stop-color="#FF5A2F"/>
<stop offset="1" stop-color="#FF6C44"/>
</linearGradient>
<linearGradient id="paint2_linear_1_102" x1="75.0443" y1="80.6975" x2="-1.63014" y2="80.6975" gradientUnits="userSpaceOnUse">
<stop stop-color="#FF5A2F"/>
<stop offset="1" stop-color="#FF6C44"/>
</linearGradient>
<linearGradient id="paint3_linear_1_102" x1="75.0443" y1="80.6975" x2="-1.63014" y2="80.6975" gradientUnits="userSpaceOnUse">
<stop stop-color="#FF5A2F"/>
<stop offset="1" stop-color="#FF6C44"/>
</linearGradient>
<linearGradient id="paint4_linear_1_102" x1="75.0443" y1="80.6975" x2="-1.63014" y2="80.6975" gradientUnits="userSpaceOnUse">
<stop stop-color="#FF5A2F"/>
<stop offset="1" stop-color="#FF6C44"/>
</linearGradient>
<linearGradient id="paint5_linear_1_102" x1="75.0443" y1="80.6975" x2="-1.63014" y2="80.6975" gradientUnits="userSpaceOnUse">
<stop stop-color="#FF5A2F"/>
<stop offset="1" stop-color="#FF6C44"/>
</linearGradient>
<linearGradient id="paint6_linear_1_102" x1="75.0443" y1="80.6975" x2="-1.63014" y2="80.6975" gradientUnits="userSpaceOnUse">
<stop stop-color="#FF5A2F"/>
<stop offset="1" stop-color="#FF6C44"/>
</linearGradient>
<linearGradient id="paint7_linear_1_102" x1="75.0443" y1="80.6975" x2="-1.63014" y2="80.6975" gradientUnits="userSpaceOnUse">
<stop stop-color="#FF5A2F"/>
<stop offset="1" stop-color="#FF6C44"/>
</linearGradient>
<linearGradient id="paint8_linear_1_102" x1="75.0443" y1="80.6975" x2="-1.63014" y2="80.6975" gradientUnits="userSpaceOnUse">
<stop stop-color="#FF5A2F"/>
<stop offset="1" stop-color="#FF6C44"/>
</linearGradient>
<linearGradient id="paint9_linear_1_102" x1="75.0443" y1="80.6975" x2="-1.63014" y2="80.6975" gradientUnits="userSpaceOnUse">
<stop stop-color="#FF5A2F"/>
<stop offset="1" stop-color="#FF6C44"/>
</linearGradient>
<linearGradient id="paint10_linear_1_102" x1="75.0443" y1="80.6975" x2="-1.63014" y2="80.6975" gradientUnits="userSpaceOnUse">
<stop stop-color="#FF5A2F"/>
<stop offset="1" stop-color="#FF6C44"/>
</linearGradient>
<linearGradient id="paint11_linear_1_102" x1="75.0443" y1="80.6975" x2="-1.63014" y2="80.6975" gradientUnits="userSpaceOnUse">
<stop stop-color="#FF5A2F"/>
<stop offset="1" stop-color="#FF6C44"/>
</linearGradient>
<linearGradient id="paint12_linear_1_102" x1="75.0443" y1="80.6975" x2="-1.63014" y2="80.6975" gradientUnits="userSpaceOnUse">
<stop stop-color="#FF5A2F"/>
<stop offset="1" stop-color="#FF6C44"/>
</linearGradient>
<linearGradient id="paint13_linear_1_102" x1="75.0443" y1="80.6975" x2="-1.63014" y2="80.6975" gradientUnits="userSpaceOnUse">
<stop stop-color="#FF5A2F"/>
<stop offset="1" stop-color="#FF6C44"/>
</linearGradient>
</defs>
</svg>
