<svg width="80" height="66" viewBox="0 0 80 66" fill="none" xmlns="http://www.w3.org/2000/svg">
<path d="M78.7504 60.7225H1.25036C1.06033 60.723 0.872706 60.6796 0.701817 60.5959C0.530929 60.5121 0.381289 60.3901 0.26432 60.2392C0.14735 60.0882 0.0661427 59.9124 0.0268954 59.725C-0.0123519 59.5376 -0.00860167 59.3437 0.0378599 59.158L8.78786 23.8863C8.87421 23.569 9.08034 23.2983 9.36216 23.1321C9.64399 22.966 9.97914 22.9175 10.2959 22.9972C10.6127 23.0768 10.886 23.2782 11.0574 23.5583C11.2287 23.8384 11.2845 24.175 11.2129 24.496L2.85161 58.2031H77.1491L71.8104 36.6824C71.7703 36.5219 71.7621 36.355 71.7862 36.1914C71.8103 36.0277 71.8663 35.8704 71.9508 35.7286C72.0354 35.5867 72.1469 35.4631 72.2789 35.3648C72.411 35.2665 72.561 35.1954 72.7204 35.1556C72.8796 35.1153 73.0452 35.107 73.2076 35.1313C73.37 35.1556 73.526 35.2119 73.6668 35.2971C73.8075 35.3823 73.9302 35.4947 74.0278 35.6278C74.1253 35.7609 74.1959 35.912 74.2354 36.0727L79.9629 59.158C80.0093 59.3437 80.0131 59.5376 79.9738 59.725C79.9346 59.9124 79.8534 60.0882 79.7364 60.2392C79.6194 60.3901 79.4698 60.5121 79.2989 60.5959C79.128 60.6796 78.9404 60.723 78.7504 60.7225Z" fill="white"/>
<path d="M40 60.7225C39.6685 60.7225 39.3505 60.5897 39.1161 60.3535C38.8817 60.1173 38.75 59.7969 38.75 59.4628C38.75 50.1258 45.8662 46.091 53.4012 41.8181L54.5288 41.1782C54.6716 41.0968 54.8289 41.0445 54.9917 41.0244C55.1546 41.0043 55.3198 41.0167 55.4779 41.0609C55.6359 41.1051 55.7838 41.1803 55.9131 41.2821C56.0424 41.3839 56.1505 41.5104 56.2312 41.6543C56.312 41.7983 56.3639 41.9568 56.3838 42.1209C56.4038 42.285 56.3915 42.4515 56.3476 42.6108C56.3037 42.7701 56.2291 42.9192 56.1281 43.0494C56.0271 43.1797 55.9016 43.2887 55.7587 43.37L54.6262 44.0138C47.1537 48.2527 41.25 51.5984 41.25 59.4628C41.25 59.7969 41.1183 60.1173 40.8839 60.3535C40.6495 60.5897 40.3315 60.7225 40 60.7225ZM1.25 65.7613C0.918479 65.7613 0.600537 65.6286 0.366117 65.3923C0.131696 65.1561 5.82077e-10 64.8357 5.82077e-10 64.5016V59.4628C5.82077e-10 59.1287 0.131696 58.8083 0.366117 58.572C0.600537 58.3358 0.918479 58.2031 1.25 58.2031C1.58152 58.2031 1.89946 58.3358 2.13388 58.572C2.3683 58.8083 2.5 59.1287 2.5 59.4628V64.5016C2.5 64.8357 2.3683 65.1561 2.13388 65.3923C1.89946 65.6286 1.58152 65.7613 1.25 65.7613Z" fill="white"/>
<path d="M78.75 65.7613L1.25 65.7613C0.918479 65.7613 0.600537 65.6286 0.366117 65.3923C0.131696 65.1561 5.82077e-10 64.8357 5.82077e-10 64.5016C5.82077e-10 64.1675 0.131696 63.8471 0.366117 63.6109C0.600537 63.3746 0.918479 63.2419 1.25 63.2419H78.75C79.0815 63.2419 79.3995 63.3746 79.6339 63.6109C79.8683 63.8471 80 64.1675 80 64.5016C80 64.8357 79.8683 65.1561 79.6339 65.3924C79.3995 65.6286 79.0815 65.7613 78.75 65.7613Z" fill="white"/>
<path d="M78.7505 65.2372C78.419 65.2372 78.1011 65.1045 77.8667 64.8682C77.6322 64.632 77.5005 64.3116 77.5005 63.9775V59.4627C77.5005 59.1286 77.6322 58.8082 77.8667 58.572C78.1011 58.3357 78.419 58.203 78.7505 58.203C79.0821 58.203 79.4 58.3357 79.6344 58.572C79.8688 58.8082 80.0005 59.1286 80.0005 59.4627V63.9775C80.0005 64.3116 79.8688 64.632 79.6344 64.8682C79.4 65.1045 79.0821 65.2372 78.7505 65.2372ZM40.0005 65.7612C39.669 65.7612 39.3511 65.6285 39.1167 65.3923C38.8822 65.156 38.7505 64.8356 38.7505 64.5015L38.75 59.4628C38.75 59.1287 38.8822 58.8082 39.1167 58.572C39.3511 58.3357 39.669 58.203 40.0005 58.203C40.3321 58.203 40.65 58.3357 40.8844 58.572C41.1189 58.8082 41.25 59.1287 41.25 59.4628L41.2505 64.5015C41.2505 64.8356 41.1189 65.156 40.8844 65.3923C40.65 65.6285 40.3321 65.7612 40.0005 65.7612ZM2.5018 55.6836C2.23121 55.6848 1.96755 55.5974 1.75052 55.4345C1.53348 55.2717 1.37482 55.0422 1.29839 54.7806C1.22197 54.519 1.23194 54.2394 1.32678 53.9841C1.42163 53.7287 1.59623 53.5112 1.8243 53.3645C7.89555 49.4304 13.8093 47.6731 19.0268 46.1237C29.4243 43.0349 37.6368 40.5936 43.8293 23.7526C43.8841 23.5947 43.9697 23.4493 44.0809 23.325C44.1922 23.2007 44.3269 23.1 44.4772 23.0288C44.6275 22.9575 44.7903 22.9172 44.9563 22.9101C45.1222 22.903 45.2879 22.9293 45.4436 22.9875C45.5993 23.0457 45.742 23.1345 45.8633 23.2489C45.9845 23.3633 46.082 23.5009 46.1499 23.6536C46.2178 23.8063 46.2548 23.9712 46.2588 24.1385C46.2628 24.3058 46.2336 24.4723 46.173 24.6281C39.5455 42.6532 30.3655 45.3817 19.7343 48.5386C14.4318 50.1144 8.94805 51.7432 3.17805 55.482C2.9768 55.6139 2.74184 55.6839 2.5018 55.6836Z" fill="white"/>
<path d="M25 36.7882C21.3775 36.7882 11.25 21.2522 11.25 14.1135C11.25 6.47341 17.4187 0.256775 25 0.256775C32.5812 0.256775 38.75 6.47341 38.75 14.1135C38.75 21.2522 28.6225 36.7882 25 36.7882ZM25 2.77618C18.7962 2.77618 13.75 7.8616 13.75 14.1135C13.75 20.48 22.7862 33.2837 25 34.2423C27.2137 33.2824 36.25 20.4788 36.25 14.1135C36.25 7.8616 31.2037 2.77618 25 2.77618ZM62.5 51.9046C58.8775 51.9046 48.75 36.3687 48.75 29.2299C48.75 21.5898 54.9187 15.3732 62.5 15.3732C70.0812 15.3732 76.25 21.5898 76.25 29.2299C76.25 36.3687 66.1225 51.9046 62.5 51.9046ZM62.5 17.8926C56.2962 17.8926 51.25 22.978 51.25 29.2299C51.25 35.5965 60.2862 48.4001 62.5 49.3587C64.7137 48.3988 73.75 35.5952 73.75 29.2299C73.75 22.978 68.7037 17.8926 62.5 17.8926Z" fill="white"/>
<path d="M15.9275 25.4508H10C9.66848 25.4508 9.35054 25.3181 9.11612 25.0819C8.8817 24.8456 8.75 24.5252 8.75 24.1911C8.75 23.857 8.8817 23.5366 9.11612 23.3004C9.35054 23.0641 9.66848 22.9314 10 22.9314H15.9275C16.259 22.9314 16.577 23.0641 16.8114 23.3004C17.0458 23.5366 17.1775 23.857 17.1775 24.1911C17.1775 24.5252 17.0458 24.8456 16.8114 25.0819C16.577 25.3181 16.259 25.4508 15.9275 25.4508ZM51.0425 25.4508H34.075C33.7435 25.4508 33.4255 25.3181 33.1911 25.0819C32.9567 24.8456 32.825 24.5252 32.825 24.1911C32.825 23.857 32.9567 23.5366 33.1911 23.3004C33.4255 23.0641 33.7435 22.9314 34.075 22.9314H51.0425C51.374 22.9314 51.692 23.0641 51.9264 23.3004C52.1608 23.5366 52.2925 23.857 52.2925 24.1911C52.2925 24.5252 52.1608 24.8456 51.9264 25.0819C51.692 25.3181 51.374 25.4508 51.0425 25.4508Z" fill="white"/>
<path d="M32.4915 17.8889H17.494C17.1625 17.8889 16.8446 17.7562 16.6102 17.5199C16.3757 17.2837 16.244 16.9633 16.244 16.6292C16.244 16.2951 16.3757 15.9747 16.6102 15.7384C16.8446 15.5022 17.1625 15.3695 17.494 15.3695H32.4915C32.8231 15.3695 33.141 15.5022 33.3754 15.7384C33.6098 15.9747 33.7415 16.2951 33.7415 16.6292C33.7415 16.9633 33.6098 17.2837 33.3754 17.5199C33.141 17.7562 32.8231 17.8889 32.4915 17.8889Z" fill="white"/>
<path d="M31.2416 15.3719C30.91 15.3719 30.5921 15.2392 30.3577 15.0029C30.1233 14.7667 29.9916 14.4463 29.9916 14.1122C29.9899 12.7767 29.4627 11.4963 28.5256 10.552C27.5886 9.60759 26.3181 9.07631 24.9928 9.07465C22.2353 9.07465 19.9928 11.3346 19.9928 14.1122C19.9928 14.4463 19.8611 14.7667 19.6267 15.0029C19.3923 15.2392 19.0743 15.3719 18.7428 15.3719C18.4113 15.3719 18.0934 15.2392 17.8589 15.0029C17.6245 14.7667 17.4928 14.4463 17.4928 14.1122C17.4951 12.1085 18.2861 10.1875 19.6922 8.77076C21.0982 7.35402 23.0045 6.55724 24.9928 6.55524C26.9809 6.55757 28.8869 7.3545 30.2927 8.7712C31.6985 10.1879 32.4893 12.1087 32.4916 14.1122C32.4916 14.4463 32.3599 14.7667 32.1255 15.0029C31.891 15.2392 31.5731 15.3719 31.2416 15.3719Z" fill="white"/>
<path d="M18.744 17.8888C18.4125 17.8888 18.0946 17.7561 17.8602 17.5199C17.6257 17.2836 17.494 16.9632 17.494 16.6291V14.1097C17.494 13.7756 17.6257 13.4552 17.8602 13.219C18.0946 12.9827 18.4125 12.85 18.744 12.85C19.0756 12.85 19.3935 12.9827 19.6279 13.219C19.8623 13.4552 19.994 13.7756 19.994 14.1097V16.6291C19.994 16.9632 19.8623 17.2836 19.6279 17.5199C19.3935 17.7561 19.0756 17.8888 18.744 17.8888ZM31.2415 17.8888C30.91 17.8888 30.5921 17.7561 30.3577 17.5199C30.1232 17.2836 29.9915 16.9632 29.9915 16.6291V14.1097C29.9915 13.7756 30.1232 13.4552 30.3577 13.219C30.5921 12.9827 30.91 12.85 31.2415 12.85C31.5731 12.85 31.891 12.9827 32.1254 13.219C32.3598 13.4552 32.4915 13.7756 32.4915 14.1097V16.6291C32.4915 16.9632 32.3598 17.2836 32.1254 17.5199C31.891 17.7561 31.5731 17.8888 31.2415 17.8888ZM24.9928 9.07342C24.6613 9.07342 24.3433 8.9407 24.1089 8.70446C23.8745 8.46822 23.7428 8.14781 23.7428 7.81371V6.55401C23.7428 6.21992 23.8745 5.89951 24.1089 5.66327C24.3433 5.42703 24.6613 5.29431 24.9928 5.29431C25.3243 5.29431 25.6423 5.42703 25.8767 5.66327C26.1111 5.89951 26.2428 6.21992 26.2428 6.55401V7.81371C26.2428 8.14781 26.1111 8.46822 25.8767 8.70446C25.6423 8.9407 25.3243 9.07342 24.9928 9.07342Z" fill="white"/>
<path d="M69.9984 33.0079H55.0009C54.6694 33.0079 54.3514 32.8752 54.117 32.6389C53.8826 32.4027 53.7509 32.0823 53.7509 31.7482C53.7509 31.4141 53.8826 31.0937 54.117 30.8574C54.3514 30.6212 54.6694 30.4885 55.0009 30.4885H69.9984C70.3299 30.4885 70.6478 30.6212 70.8823 30.8574C71.1167 31.0937 71.2484 31.4141 71.2484 31.7482C71.2484 32.0823 71.1167 32.4027 70.8823 32.6389C70.6478 32.8752 70.3299 33.0079 69.9984 33.0079Z" fill="white"/>
<path d="M68.7484 30.4909C68.4169 30.4909 68.0989 30.3582 67.8645 30.1219C67.6301 29.8857 67.4984 29.5653 67.4984 29.2312C67.4967 27.8957 66.9696 26.6153 66.0325 25.6709C65.0954 24.7266 63.8249 24.1953 62.4997 24.1936C59.7422 24.1936 57.4997 26.4536 57.4997 29.2312C57.4997 29.5653 57.368 29.8857 57.1335 30.1219C56.8991 30.3582 56.5812 30.4909 56.2497 30.4909C55.9181 30.4909 55.6002 30.3582 55.3658 30.1219C55.1313 29.8857 54.9997 29.5653 54.9997 29.2312C55.002 27.2275 55.7929 25.3065 57.199 23.8898C58.605 22.473 60.5114 21.6762 62.4997 21.6742C64.4877 21.6766 66.3937 22.4735 67.7995 23.8902C69.2053 25.3069 69.9961 27.2277 69.9984 29.2312C69.9984 29.5653 69.8667 29.8857 69.6323 30.1219C69.3979 30.3582 69.0799 30.4909 68.7484 30.4909Z" fill="white"/>
<path d="M56.2509 33.0078C55.9194 33.0078 55.6014 32.8751 55.367 32.6389C55.1326 32.4026 55.0009 32.0822 55.0009 31.7481V29.2287C55.0009 28.8946 55.1326 28.5742 55.367 28.338C55.6014 28.1017 55.9194 27.969 56.2509 27.969C56.5824 27.969 56.9003 28.1017 57.1348 28.338C57.3692 28.5742 57.5009 28.8946 57.5009 29.2287V31.7481C57.5009 32.0822 57.3692 32.4026 57.1348 32.6389C56.9003 32.8751 56.5824 33.0078 56.2509 33.0078ZM68.7484 33.0078C68.4169 33.0078 68.0989 32.8751 67.8645 32.6389C67.6301 32.4026 67.4984 32.0822 67.4984 31.7481V29.2287C67.4984 28.8946 67.6301 28.5742 67.8645 28.338C68.0989 28.1017 68.4169 27.969 68.7484 27.969C69.0799 27.969 69.3978 28.1017 69.6323 28.338C69.8667 28.5742 69.9984 28.8946 69.9984 29.2287V31.7481C69.9984 32.0822 69.8667 32.4026 69.6323 32.6389C69.3978 32.8751 69.0799 33.0078 68.7484 33.0078ZM62.4996 24.1924C62.1681 24.1924 61.8502 24.0597 61.6157 23.8235C61.3813 23.5872 61.2496 23.2668 61.2496 22.9327V21.673C61.2496 21.3389 61.3813 21.0185 61.6157 20.7823C61.8502 20.546 62.1681 20.4133 62.4996 20.4133C62.8311 20.4133 63.1491 20.546 63.3835 20.7823C63.6179 21.0185 63.7496 21.3389 63.7496 21.673V22.9327C63.7496 23.2668 63.6179 23.5872 63.3835 23.8235C63.1491 24.0597 62.8311 24.1924 62.4996 24.1924Z" fill="white"/>
</svg>
