<svg width="75" height="73" viewBox="0 0 75 73" fill="none" xmlns="http://www.w3.org/2000/svg">
<path d="M1.16129 63.3063C0.853297 63.3063 0.557918 63.183 0.340134 62.9635C0.12235 62.7441 0 62.4464 0 62.136C0 56.3266 4.68929 51.6009 10.4539 51.6009C10.7619 51.6009 11.0573 51.7242 11.2751 51.9437C11.4929 52.1632 11.6152 52.4608 11.6152 52.7712C11.6152 53.0816 11.4929 53.3793 11.2751 53.5988C11.0573 53.8182 10.7619 53.9415 10.4539 53.9415C8.29812 53.944 6.23131 54.8082 4.70692 56.3444C3.18252 57.8806 2.32504 59.9635 2.32258 62.136C2.32258 62.4464 2.20023 62.7441 1.98245 62.9635C1.76466 63.183 1.46928 63.3063 1.16129 63.3063Z" fill="white"/>
<path d="M18.5806 53.9439L10.4539 53.9415C10.1459 53.9415 9.85056 53.8182 9.63278 53.5988C9.415 53.3793 9.29265 53.0816 9.29265 52.7712C9.29265 52.4608 9.415 52.1632 9.63278 51.9437C9.85056 51.7242 10.1459 51.6009 10.4539 51.6009L18.5806 51.6033C18.8886 51.6033 19.184 51.7266 19.4018 51.946C19.6196 52.1655 19.7419 52.4632 19.7419 52.7736C19.7419 53.084 19.6196 53.3816 19.4018 53.6011C19.184 53.8206 18.8886 53.9439 18.5806 53.9439ZM39.5059 53.9439L34.8387 53.9415C34.5307 53.9415 34.2353 53.8182 34.0176 53.5988C33.7998 53.3793 33.6774 53.0816 33.6774 52.7712C33.6774 52.4608 33.7998 52.1632 34.0176 51.9437C34.2353 51.7242 34.5307 51.6009 34.8387 51.6009L39.5071 51.6033C39.8151 51.6034 40.1104 51.7269 40.3281 51.9465C40.5458 52.166 40.668 52.4638 40.6678 52.7742C40.6677 53.0845 40.5452 53.3821 40.3273 53.6015C40.1094 53.8209 39.8139 53.944 39.5059 53.9439ZM1.16245 71.4961C0.854458 71.4961 0.55908 71.3728 0.341295 71.1533C0.123511 70.9339 0.00116129 70.6362 0.00116129 70.3258L0 62.136C0 61.8256 0.12235 61.5279 0.340134 61.3085C0.557918 61.089 0.853297 60.9657 1.16129 60.9657C1.46928 60.9657 1.76466 61.089 1.98245 61.3085C2.20023 61.5279 2.32258 61.8256 2.32258 62.136L2.32374 70.3258C2.32374 70.6362 2.20139 70.9339 1.98361 71.1533C1.76582 71.3728 1.47045 71.4961 1.16245 71.4961Z" fill="white"/>
<path d="M2.32374 72.6664C1.04284 72.6664 0.00116129 71.6166 0.00116129 70.3258C0.00116129 70.0154 0.123511 69.7177 0.341295 69.4983C0.55908 69.2788 0.854458 69.1555 1.16245 69.1555C1.47045 69.1555 1.76582 69.2788 1.98361 69.4983C2.20139 69.7177 2.32374 70.0154 2.32374 70.3258V70.3281C2.63143 70.3281 2.92651 70.4513 3.14408 70.6706C3.36164 70.8898 3.48387 71.1872 3.48387 71.4973C3.48387 71.8073 3.36164 72.1047 3.14408 72.324C2.92651 72.5432 2.63143 72.6664 2.32374 72.6664Z" fill="white"/>
<path d="M59.227 72.6664H2.32374C2.01575 72.6664 1.72037 72.5431 1.50259 72.3236C1.2848 72.1042 1.16245 71.8065 1.16245 71.4961C1.16245 71.1857 1.2848 70.888 1.50259 70.6686C1.72037 70.4491 2.01575 70.3258 2.32374 70.3258H59.227C59.535 70.3258 59.8303 70.4491 60.0481 70.6686C60.2659 70.888 60.3883 71.1857 60.3883 71.4961C60.3883 71.8065 60.2659 72.1042 60.0481 72.3236C59.8303 72.5431 59.535 72.6664 59.227 72.6664ZM18.5806 53.9439C18.2727 53.9439 17.9773 53.8206 17.7595 53.6011C17.5417 53.3816 17.4194 53.084 17.4194 52.7736V46.0654C17.4194 45.755 17.5417 45.4573 17.7595 45.2379C17.9773 45.0184 18.2727 44.8951 18.5806 44.8951C18.8886 44.8951 19.184 45.0184 19.4018 45.2379C19.6196 45.4573 19.7419 45.755 19.7419 46.0654V52.7736C19.7419 53.084 19.6196 53.3816 19.4018 53.6011C19.184 53.8206 18.8886 53.9439 18.5806 53.9439ZM34.8387 53.9415C34.5307 53.9415 34.2353 53.8182 34.0176 53.5988C33.7998 53.3793 33.6774 53.0816 33.6774 52.7712V46.0654C33.6774 45.755 33.7998 45.4573 34.0176 45.2379C34.2353 45.0184 34.5307 44.8951 34.8387 44.8951C35.1467 44.8951 35.4421 45.0184 35.6599 45.2379C35.8777 45.4573 36 45.755 36 46.0654V52.7712C36 53.0816 35.8777 53.3793 35.6599 53.5988C35.4421 53.8182 35.1467 53.9415 34.8387 53.9415Z" fill="white"/>
<path d="M26.7097 49.2603C16.4648 49.2603 8.12903 40.8599 8.12903 30.5354C8.12903 30.2251 8.25138 29.9274 8.46917 29.7079C8.68695 29.4884 8.98233 29.3651 9.29032 29.3651C9.59832 29.3651 9.8937 29.4884 10.1115 29.7079C10.3293 29.9274 10.4516 30.2251 10.4516 30.5354C10.4516 39.5702 17.7445 46.9197 26.7097 46.9197C35.6748 46.9197 42.9677 39.5702 42.9677 30.5354C42.9677 30.2251 43.0901 29.9274 43.3079 29.7079C43.5257 29.4884 43.821 29.3651 44.129 29.3651C44.437 29.3651 44.7324 29.4884 44.9502 29.7079C45.168 29.9274 45.2903 30.2251 45.2903 30.5354C45.2903 40.8599 36.9546 49.2603 26.7097 49.2603ZM44.129 21.173C43.821 21.173 43.5257 21.0497 43.3079 20.8302C43.0901 20.6108 42.9677 20.3131 42.9677 20.0027C42.9677 10.9679 35.6748 3.61843 26.7097 3.61843C17.7445 3.61843 10.4516 10.9679 10.4516 20.0027C10.4516 20.3131 10.3293 20.6108 10.1115 20.8302C9.8937 21.0497 9.59832 21.173 9.29032 21.173C8.98233 21.173 8.68695 21.0497 8.46917 20.8302C8.25138 20.6108 8.12903 20.3131 8.12903 20.0027C8.12903 9.67827 16.4648 1.27782 26.7097 1.27782C36.9546 1.27782 45.2903 9.67827 45.2903 20.0027C45.2903 20.3131 45.168 20.6108 44.9502 20.8302C44.7324 21.0497 44.437 21.173 44.129 21.173Z" fill="white"/>
<path d="M9.29032 31.7057C8.98233 31.7057 8.68695 31.5824 8.46917 31.363C8.25138 31.1435 8.12903 30.8458 8.12903 30.5354V24.6839C8.12903 24.3735 8.25138 24.0759 8.46917 23.8564C8.68695 23.6369 8.98233 23.5136 9.29032 23.5136C9.59832 23.5136 9.8937 23.6369 10.1115 23.8564C10.3293 24.0759 10.4516 24.3735 10.4516 24.6839V30.5354C10.4516 30.8458 10.3293 31.1435 10.1115 31.363C9.8937 31.5824 9.59832 31.7057 9.29032 31.7057ZM44.129 31.7057C43.821 31.7057 43.5257 31.5824 43.3079 31.363C43.0901 31.1435 42.9677 30.8458 42.9677 30.5354V24.6839C42.9677 24.3735 43.0901 24.0759 43.3079 23.8564C43.5257 23.6369 43.821 23.5136 44.129 23.5136C44.437 23.5136 44.7324 23.6369 44.9502 23.8564C45.168 24.0759 45.2903 24.3735 45.2903 24.6839V30.5354C45.2903 30.8458 45.168 31.1435 44.9502 31.363C44.7324 31.5824 44.437 31.7057 44.129 31.7057Z" fill="white"/>
<path d="M46.4516 25.8542H6.96774C6.65975 25.8542 6.36437 25.7309 6.14659 25.5114C5.9288 25.292 5.80645 24.9943 5.80645 24.6839C5.80645 24.3735 5.9288 24.0759 6.14659 23.8564C6.36437 23.6369 6.65975 23.5136 6.96774 23.5136H46.4516C46.7596 23.5136 47.055 23.6369 47.2728 23.8564C47.4906 24.0759 47.6129 24.3735 47.6129 24.6839C47.6129 24.9943 47.4906 25.292 47.2728 25.5114C47.055 25.7309 46.7596 25.8542 46.4516 25.8542Z" fill="white"/>
<path d="M46.4516 25.8542C46.2895 25.8546 46.1291 25.8206 45.9809 25.7545C45.8326 25.6883 45.6998 25.5915 45.5911 25.4704C45.5597 25.4388 41.3466 21.173 26.7097 21.173C12.0728 21.173 7.85961 25.4388 7.81781 25.4821C7.60632 25.705 7.31651 25.8356 7.01058 25.8457C6.70466 25.8557 6.40702 25.7445 6.18155 25.5359C5.95755 25.3279 5.82408 25.0393 5.81016 24.7327C5.79625 24.4261 5.90301 24.1263 6.10723 23.8986C6.29303 23.6903 10.8453 18.8324 26.7097 18.8324C42.5741 18.8324 47.1263 23.6903 47.3121 23.8975C47.4633 24.0653 47.5628 24.2738 47.5986 24.4976C47.6344 24.7214 47.605 24.9509 47.5138 25.1581C47.4227 25.3653 47.2738 25.5414 47.0852 25.665C46.8967 25.7886 46.6765 25.8543 46.4516 25.8542Z" fill="white"/>
<path d="M44.129 24.2837C43.821 24.2837 43.5257 24.1604 43.3079 23.9409C43.0901 23.7214 42.9677 23.4237 42.9677 23.1134V20.0027C42.9677 19.6923 43.0901 19.3946 43.3079 19.1752C43.5257 18.9557 43.821 18.8324 44.129 18.8324C44.437 18.8324 44.7324 18.9557 44.9502 19.1752C45.168 19.3946 45.2903 19.6923 45.2903 20.0027V23.1134C45.2903 23.4237 45.168 23.7214 44.9502 23.9409C44.7324 24.1604 44.437 24.2837 44.129 24.2837ZM9.29032 24.2837C8.98233 24.2837 8.68695 24.1604 8.46917 23.9409C8.25138 23.7214 8.12903 23.4237 8.12903 23.1134V20.0027C8.12903 19.6923 8.25138 19.3946 8.46917 19.1752C8.68695 18.9557 8.98233 18.8324 9.29032 18.8324C9.59832 18.8324 9.8937 18.9557 10.1115 19.1752C10.3293 19.3946 10.4516 19.6923 10.4516 20.0027V23.1134C10.4516 23.4237 10.3293 23.7214 10.1115 23.9409C9.8937 24.1604 9.59832 24.2837 9.29032 24.2837ZM26.7097 16.4918C24.1479 16.4918 22.0645 14.3923 22.0645 11.8106C22.0645 9.22887 24.1479 7.12934 26.7097 7.12934C29.2715 7.12934 31.3548 9.22887 31.3548 11.8106C31.3548 14.3923 29.2715 16.4918 26.7097 16.4918ZM26.7097 9.46995C25.4288 9.46995 24.3871 10.5197 24.3871 11.8106C24.3871 13.1014 25.4288 14.1512 26.7097 14.1512C27.9906 14.1512 29.0323 13.1014 29.0323 11.8106C29.0323 10.5197 27.9906 9.46995 26.7097 9.46995ZM26.7097 3.61843C26.4017 3.61843 26.1063 3.49513 25.8885 3.27565C25.6707 3.05618 25.5484 2.75851 25.5484 2.44812V1.27782C25.5484 0.967434 25.6707 0.669762 25.8885 0.450288C26.1063 0.230813 26.4017 0.107513 26.7097 0.107513C27.0177 0.107513 27.3131 0.230813 27.5308 0.450288C27.7486 0.669762 27.871 0.967434 27.871 1.27782V2.44812C27.871 2.75851 27.7486 3.05618 27.5308 3.27565C27.3131 3.49513 27.0177 3.61843 26.7097 3.61843ZM23.2246 56.2798C23.0452 56.2801 22.8682 56.238 22.7079 56.1569L18.0627 53.821C17.9228 53.7545 17.7974 53.6605 17.694 53.5446C17.5906 53.4286 17.5113 53.293 17.4606 53.1457C17.4099 52.9984 17.389 52.8424 17.399 52.6868C17.4089 52.5312 17.4497 52.3792 17.5188 52.2397C17.5879 52.1002 17.6839 51.976 17.8013 51.8745C17.9187 51.7729 18.055 51.696 18.2023 51.6483C18.3496 51.6005 18.5048 51.5829 18.6589 51.5965C18.813 51.6101 18.9629 51.6546 19.0997 51.7273L23.7449 54.0632C23.9787 54.1813 24.1661 54.3755 24.2767 54.6142C24.3874 54.853 24.4149 55.1224 24.3547 55.3789C24.2945 55.6353 24.1502 55.8638 23.9451 56.0273C23.74 56.1908 23.4861 56.2798 23.2246 56.2798Z" fill="white"/>
<path d="M23.2258 56.2798C22.9503 56.2789 22.6841 56.1793 22.4747 55.999C22.2652 55.8187 22.1261 55.5692 22.0822 55.2951C22.0383 55.0211 22.0923 54.7402 22.2348 54.5026C22.3773 54.2649 22.5988 54.086 22.86 53.9977L26.3439 52.8321C26.6334 52.7448 26.9453 52.7746 27.2135 52.9152C27.4816 53.0557 27.6849 53.296 27.7802 53.585C27.8755 53.8741 27.8553 54.1891 27.724 54.4635C27.5926 54.7378 27.3605 54.9498 27.0766 55.0545L23.5928 56.2201C23.4743 56.2592 23.3505 56.2793 23.2258 56.2798ZM30.1947 56.2798C29.9328 56.2803 29.6784 56.1916 29.4728 56.028C29.2672 55.8644 29.1226 55.6356 29.0623 55.3788C29.0021 55.1219 29.0297 54.852 29.1409 54.613C29.252 54.374 29.44 54.1798 29.6745 54.0621L34.3196 51.7261C34.4564 51.6534 34.6063 51.6089 34.7604 51.5953C34.9146 51.5818 35.0698 51.5994 35.2171 51.6471C35.3644 51.6948 35.5007 51.7717 35.6181 51.8733C35.7354 51.9749 35.8315 52.099 35.9006 52.2385C35.9697 52.378 36.0104 52.53 36.0204 52.6856C36.0304 52.8412 36.0094 52.9972 35.9588 53.1445C35.9081 53.2918 35.8287 53.4274 35.7253 53.5434C35.6219 53.6594 35.4966 53.7534 35.3566 53.8198L30.7115 56.1557C30.5514 56.2377 30.3743 56.2802 30.1947 56.2798Z" fill="white"/>
<path d="M30.1947 56.2798C30.0739 56.2798 29.9485 56.2599 29.8277 56.2201L26.3439 55.0545C26.0668 54.9447 25.842 54.732 25.7158 54.4602C25.5896 54.1884 25.5716 53.8782 25.6655 53.5934C25.7594 53.3087 25.958 53.071 26.2205 52.9294C26.483 52.7878 26.7894 52.7529 27.0766 52.8321L30.5605 53.9977C30.8204 54.0873 31.0404 54.2667 31.1817 54.5041C31.323 54.7415 31.3764 55.0215 31.3324 55.2948C31.2885 55.568 31.1501 55.8168 30.9416 55.9971C30.7332 56.1773 30.4694 56.2775 30.1947 56.2798ZM62.7085 37.5257C56.3052 37.5257 51.0956 32.2757 51.0956 25.8226C51.0956 19.3696 56.3052 14.1196 62.7085 14.1196C69.1119 14.1196 74.3214 19.3696 74.3214 25.8226C74.3214 32.2757 69.1119 37.5257 62.7085 37.5257ZM62.7085 16.4602C57.5861 16.4602 53.4182 20.6604 53.4182 25.8226C53.4182 30.9848 57.5861 35.1851 62.7085 35.1851C67.831 35.1851 71.9988 30.9848 71.9988 25.8226C71.9988 20.6604 67.831 16.4602 62.7085 16.4602Z" fill="white"/>
<path d="M62.7085 16.4649C61.3266 16.4633 60.0017 15.9095 59.0245 14.9249C58.0472 13.9402 57.4973 12.6052 57.4955 11.2125C57.4955 8.31486 59.8343 5.95787 62.7085 5.95787C65.5827 5.95787 67.9216 8.31603 67.9216 11.2125C67.9197 12.6052 67.3699 13.9402 66.3926 14.9249C65.4153 15.9095 64.0904 16.4633 62.7085 16.4649ZM62.7085 8.29731C61.942 8.29824 61.2072 8.60559 60.6653 9.15191C60.1234 9.69824 59.8187 10.4389 59.8181 11.2114C59.8181 12.817 61.1141 14.1231 62.7085 14.1231C64.303 14.1231 65.599 12.817 65.599 11.2114C65.5984 10.4389 65.2937 9.69824 64.7518 9.15191C64.2099 8.60559 63.475 8.29824 62.7085 8.29731Z" fill="white"/>
<path d="M62.7085 16.4625C62.4005 16.4625 62.1051 16.3392 61.8874 16.1197C61.6696 15.9003 61.5472 15.6026 61.5472 15.2922V11.7813C61.5472 11.4709 61.6696 11.1732 61.8874 10.9538C62.1051 10.7343 62.4005 10.611 62.7085 10.611C63.0165 10.611 63.3119 10.7343 63.5297 10.9538C63.7475 11.1732 63.8698 11.4709 63.8698 11.7813V15.2922C63.8698 15.6026 63.7475 15.9003 63.5297 16.1197C63.3119 16.3392 63.0165 16.4625 62.7085 16.4625Z" fill="white"/>
<path d="M63.8698 12.9516H61.5472C61.2392 12.9516 60.9439 12.8283 60.7261 12.6088C60.5083 12.3894 60.3859 12.0917 60.3859 11.7813C60.3859 11.4709 60.5083 11.1732 60.7261 10.9538C60.9439 10.7343 61.2392 10.611 61.5472 10.611H63.8698C64.1778 10.611 64.4732 10.7343 64.691 10.9538C64.9088 11.1732 65.0311 11.4709 65.0311 11.7813C65.0311 12.0917 64.9088 12.3894 64.691 12.6088C64.4732 12.8283 64.1778 12.9516 63.8698 12.9516ZM62.7097 17.6328C62.4017 17.6328 62.1063 17.5095 61.8885 17.2901C61.6707 17.0706 61.5484 16.7729 61.5484 16.4625L61.5472 15.2922C61.5472 14.9818 61.6707 14.6842 61.8885 14.4647C62.1063 14.2452 62.4017 14.1219 62.7097 14.1219C63.0177 14.1219 63.3131 14.2452 63.5308 14.4647C63.7486 14.6842 63.8698 14.9818 63.8698 15.2922L63.871 16.4625C63.871 16.7729 63.7486 17.0706 63.5308 17.2901C63.3131 17.5095 63.0177 17.6328 62.7097 17.6328ZM62.7097 37.5233C62.4017 37.5233 62.1063 37.4 61.8885 37.1806C61.6707 36.9611 61.5484 36.6634 61.5484 36.353V35.1827C61.5484 34.8723 61.6707 34.5747 61.8885 34.3552C62.1063 34.1357 62.4017 34.0124 62.7097 34.0124C63.0177 34.0124 63.3131 34.1357 63.5308 34.3552C63.7486 34.5747 63.871 34.8723 63.871 35.1827V36.353C63.871 36.6634 63.7486 36.9611 63.5308 37.1806C63.3131 37.4 63.0177 37.5233 62.7097 37.5233ZM58.0668 18.8851C57.8628 18.8855 57.6622 18.8316 57.4854 18.7289C57.3086 18.6261 57.1618 18.4781 57.06 18.2999L56.4794 17.2876C56.3278 17.0189 56.2878 16.7008 56.3682 16.4025C56.4485 16.1043 56.6427 15.8502 56.9082 15.6957C57.1738 15.5411 57.4892 15.4987 57.7857 15.5777C58.0822 15.6567 58.3356 15.8507 58.4907 16.1173L59.0714 17.1296C59.1732 17.3074 59.2269 17.5091 59.2269 17.7144C59.227 17.9198 59.1734 18.1215 59.0717 18.2994C58.9699 18.4773 58.8234 18.625 58.6471 18.7278C58.4707 18.8306 58.2706 18.8848 58.0668 18.8851ZM67.9355 36.1131C67.7313 36.1134 67.5306 36.0594 67.3538 35.9564C67.177 35.8535 67.0303 35.7052 66.9286 35.5268L66.348 34.5121C66.266 34.3788 66.2114 34.2302 66.1875 34.0752C66.1635 33.9202 66.1708 33.762 66.2088 33.6098C66.2468 33.4577 66.3147 33.3148 66.4086 33.1897C66.5024 33.0646 66.6203 32.9597 66.7552 32.8814C66.89 32.8031 67.0392 32.7529 67.1937 32.7338C67.3482 32.7147 67.5049 32.7271 67.6546 32.7703C67.8042 32.8135 67.9437 32.8865 68.0648 32.9851C68.1859 33.0837 68.286 33.2058 68.3594 33.3442L68.94 34.3588C69.0416 34.5366 69.095 34.7382 69.0949 34.9434C69.0948 35.1485 69.0412 35.35 68.9395 35.5277C68.8377 35.7054 68.6914 35.853 68.5152 35.9558C68.339 36.0585 68.1391 36.1128 67.9355 36.1131ZM54.6643 22.3117C54.4607 22.3119 54.2608 22.2578 54.0848 22.1549L53.0803 21.5697C52.9482 21.4929 52.8324 21.3906 52.7396 21.2687C52.6468 21.1467 52.5787 21.0076 52.5392 20.8591C52.4997 20.7107 52.4897 20.5559 52.5096 20.4035C52.5295 20.2511 52.579 20.1042 52.6552 19.9711C52.7315 19.838 52.833 19.7214 52.954 19.6278C53.075 19.5342 53.2131 19.4656 53.3604 19.4258C53.5077 19.3861 53.6613 19.3759 53.8125 19.396C53.9637 19.416 54.1095 19.4659 54.2416 19.5428L55.2461 20.1279C55.4684 20.2562 55.6424 20.455 55.7408 20.6934C55.8393 20.9318 55.8566 21.1964 55.7902 21.4457C55.7238 21.6951 55.5773 21.9153 55.3736 22.072C55.1699 22.2286 54.9205 22.3129 54.6643 22.3117ZM71.7585 32.2593C71.5544 32.2597 71.354 32.2051 71.1778 32.1013L70.1721 31.5138C70.04 31.437 69.9243 31.3347 69.8315 31.2127C69.7387 31.0907 69.6708 30.9514 69.6315 30.8029C69.5922 30.6544 69.5824 30.4995 69.6027 30.3472C69.6229 30.1949 69.6728 30.048 69.7494 29.9152C69.8255 29.7819 69.927 29.6652 70.0481 29.5716C70.1691 29.478 70.3073 29.4094 70.4547 29.3699C70.6021 29.3303 70.7558 29.3204 70.907 29.3409C71.0582 29.3614 71.2039 29.4118 71.3357 29.4892L72.3414 30.0767C72.5624 30.2059 72.7349 30.4049 72.8323 30.6429C72.9297 30.8809 72.9465 31.1446 72.8801 31.3932C72.8137 31.6418 72.6678 31.8614 72.465 32.0179C72.2623 32.1745 72.0139 32.2594 71.7585 32.2593ZM53.4205 26.9906H52.2604C51.9524 26.9906 51.657 26.8673 51.4392 26.6478C51.2214 26.4283 51.0991 26.1307 51.0991 25.8203C51.0991 25.5099 51.2214 25.2122 51.4392 24.9927C51.657 24.7733 51.9524 24.65 52.2604 24.65H53.4205C53.7285 24.65 54.0239 24.7733 54.2417 24.9927C54.4595 25.2122 54.5818 25.5099 54.5818 25.8203C54.5818 26.1307 54.4595 26.4283 54.2417 26.6478C54.0239 26.8673 53.7285 26.9906 53.4205 26.9906ZM73.1601 26.9929H73.1578L71.9954 26.9906C71.6874 26.9903 71.3921 26.8667 71.1745 26.647C70.957 26.4273 70.8349 26.1295 70.8352 25.8191C70.8355 25.5087 70.9582 25.2112 71.1762 24.9919C71.3942 24.7727 71.6897 24.6497 71.9977 24.65H72L73.1625 24.6523C73.4704 24.6526 73.7657 24.7762 73.9833 24.9959C74.2008 25.2156 74.3229 25.5134 74.3226 25.8238C74.3223 26.1342 74.1996 26.4317 73.9816 26.651C73.7636 26.8702 73.4681 26.9932 73.1601 26.9929ZM53.6597 32.2546C53.4034 32.2558 53.1538 32.1713 52.9501 32.0144C52.7464 31.8575 52.6 31.637 52.5338 31.3874C52.4676 31.1377 52.4853 30.8731 52.5842 30.6346C52.683 30.3962 52.8575 30.1976 53.0803 30.0697L54.0859 29.4868C54.3517 29.3496 54.6598 29.3208 54.9461 29.4063C55.2324 29.4918 55.4751 29.685 55.6239 29.946C55.7726 30.207 55.816 30.5156 55.745 30.808C55.674 31.1003 55.4941 31.3539 55.2426 31.5162L54.2369 32.099C54.0614 32.201 53.8624 32.2547 53.6597 32.2546ZM70.7551 22.3117C70.4995 22.3117 70.251 22.2267 70.0482 22.0699C69.8454 21.913 69.6996 21.6931 69.6334 21.4443C69.5673 21.1955 69.5844 20.9316 69.6822 20.6936C69.7801 20.4556 69.9531 20.2567 70.1745 20.1279L71.1813 19.5428C71.3136 19.4601 71.461 19.4051 71.6148 19.381C71.7686 19.3569 71.9257 19.3642 72.0766 19.4025C72.2276 19.4407 72.3694 19.5092 72.4936 19.6038C72.6177 19.6984 72.7218 19.8172 72.7995 19.9531C72.8772 20.089 72.927 20.2393 72.9459 20.395C72.9649 20.5507 72.9526 20.7086 72.9097 20.8595C72.8669 21.0103 72.7944 21.1509 72.6966 21.2729C72.5987 21.3949 72.4776 21.4958 72.3403 21.5697L71.3334 22.1549C71.1578 22.2577 70.9582 22.3118 70.7551 22.3117ZM57.4816 36.1108C57.2777 36.1109 57.0773 36.0569 56.9008 35.9542C56.7242 35.8515 56.5776 35.7037 56.4757 35.5257C56.3739 35.3477 56.3204 35.1458 56.3206 34.9403C56.3208 34.7349 56.3748 34.5331 56.477 34.3553L57.0577 33.343C57.1334 33.2088 57.2347 33.0911 57.3557 32.9965C57.4767 32.9019 57.6151 32.8324 57.7629 32.792C57.9107 32.7516 58.065 32.741 58.2169 32.7609C58.3688 32.7808 58.5152 32.8308 58.6479 32.9079C58.7805 32.9851 58.8967 33.0879 58.9897 33.2105C59.0827 33.3331 59.1508 33.4731 59.1899 33.6223C59.2291 33.7715 59.2385 33.9271 59.2178 34.08C59.197 34.2329 59.1465 34.3802 59.069 34.5133L58.4884 35.5256C58.3866 35.7039 58.2398 35.8518 58.063 35.9546C57.8862 36.0573 57.6856 36.1112 57.4816 36.1108ZM67.3525 18.8851C67.1486 18.8852 66.9483 18.8312 66.7717 18.7285C66.5952 18.6258 66.4486 18.478 66.3467 18.3C66.2448 18.122 66.1913 17.9201 66.1916 17.7146C66.1918 17.5091 66.2458 17.3074 66.348 17.1296L66.9298 16.1149C67.0838 15.8462 67.3375 15.65 67.6349 15.5697C67.9324 15.4894 68.2494 15.5314 68.5161 15.6866C68.7829 15.8418 68.9775 16.0974 69.0572 16.3972C69.1369 16.697 69.0952 17.0165 68.9412 17.2852L68.3594 18.2999C68.2575 18.4781 68.1108 18.6261 67.934 18.7289C67.7572 18.8316 67.5566 18.8855 67.3525 18.8851ZM62.7085 26.9953C62.4005 26.9953 62.1051 26.872 61.8874 26.6525C61.6696 26.433 61.5472 26.1353 61.5472 25.825V19.9734C61.5472 19.6631 61.6696 19.3654 61.8874 19.1459C62.1051 18.9264 62.4005 18.8031 62.7085 18.8031C63.0165 18.8031 63.3119 18.9264 63.5297 19.1459C63.7475 19.3654 63.8698 19.6631 63.8698 19.9734V25.825C63.8698 26.1353 63.7475 26.433 63.5297 26.6525C63.3119 26.872 63.0165 26.9953 62.7085 26.9953Z" fill="white"/>
<path d="M38.3226 72.6664H17.4182C17.1102 72.6664 16.8148 72.5431 16.597 72.3236C16.3793 72.1042 16.2569 71.8065 16.2569 71.4961C16.2569 71.1857 16.3793 70.888 16.597 70.6686C16.8148 70.4491 17.1102 70.3258 17.4182 70.3258H38.3226C38.6306 70.3258 38.926 70.4491 39.1437 70.6686C39.3615 70.888 39.4839 71.1857 39.4839 71.4961C39.4839 71.8065 39.3615 72.1042 39.1437 72.3236C38.926 72.5431 38.6306 72.6664 38.3226 72.6664Z" fill="white"/>
<path d="M73.1613 68.0098H33.6774C33.3694 68.0098 33.074 67.8865 32.8563 67.667C32.6385 67.4475 32.5161 67.1498 32.5161 66.8395C32.5161 66.5291 32.6385 66.2314 32.8563 66.0119C33.074 65.7925 33.3694 65.6692 33.6774 65.6692H73.1613C73.4693 65.6692 73.7647 65.7925 73.9825 66.0119C74.2002 66.2314 74.3226 66.5291 74.3226 66.8395C74.3226 67.1498 74.2002 67.4475 73.9825 67.667C73.7647 67.8865 73.4693 68.0098 73.1613 68.0098Z" fill="white"/>
<path d="M38.3226 72.6664C35.7608 72.6664 33.6774 70.5669 33.6774 67.9852C33.6774 67.6748 33.7998 67.3771 34.0176 67.1577C34.2353 66.9382 34.5307 66.8149 34.8387 66.8149C35.1467 66.8149 35.4421 66.9382 35.6599 67.1577C35.8777 67.3771 36 67.6748 36 67.9852C36 69.276 37.0417 70.3258 38.3226 70.3258C38.6306 70.3258 38.926 70.4491 39.1437 70.6686C39.3615 70.888 39.4839 71.1857 39.4839 71.4961C39.4839 71.8065 39.3615 72.1042 39.1437 72.3236C38.926 72.5431 38.6306 72.6664 38.3226 72.6664ZM68.5161 72.6664C68.2081 72.6664 67.9128 72.5431 67.695 72.3236C67.4772 72.1042 67.3548 71.8065 67.3548 71.4961C67.3548 71.1857 67.4772 70.888 67.695 70.6686C67.9128 70.4491 68.2081 70.3258 68.5161 70.3258C69.797 70.3258 70.8387 69.276 70.8387 67.9852C70.8387 67.6748 70.9611 67.3771 71.1788 67.1577C71.3966 66.9382 71.692 66.8149 72 66.8149C72.308 66.8149 72.6034 66.9382 72.8212 67.1577C73.0389 67.3771 73.1613 67.6748 73.1613 67.9852C73.1613 70.5669 71.0779 72.6664 68.5161 72.6664Z" fill="white"/>
<path d="M34.8387 69.1555C34.5307 69.1555 34.2353 69.0322 34.0176 68.8127C33.7998 68.5932 33.6774 68.2956 33.6774 67.9852V66.8125C33.6774 66.5022 33.7998 66.2045 34.0176 65.985C34.2353 65.7655 34.5307 65.6422 34.8387 65.6422C35.1467 65.6422 35.4421 65.7655 35.6599 65.985C35.8777 66.2045 36 66.5022 36 66.8125V67.9852C36 68.2956 35.8777 68.5932 35.6599 68.8127C35.4421 69.0322 35.1467 69.1555 34.8387 69.1555ZM72 69.1555C71.692 69.1555 71.3966 69.0322 71.1788 68.8127C70.9611 68.5932 70.8387 68.2956 70.8387 67.9852V66.8125C70.8387 66.5022 70.9611 66.2045 71.1788 65.985C71.3966 65.7655 71.692 65.6422 72 65.6422C72.308 65.6422 72.6034 65.7655 72.8212 65.985C73.0389 66.2045 73.1613 66.5022 73.1613 66.8125V67.9852C73.1613 68.2956 73.0389 68.5932 72.8212 68.8127C72.6034 69.0322 72.308 69.1555 72 69.1555ZM70.8259 64.4883C70.5179 64.4883 70.2226 64.365 70.0048 64.1455C69.787 63.9261 69.6646 63.6284 69.6646 63.318C69.6646 54.2903 62.3764 46.9455 53.4182 46.9455C44.46 46.9455 37.1729 54.2903 37.1729 63.318C37.1729 63.6284 37.0506 63.9261 36.8328 64.1455C36.615 64.365 36.3196 64.4883 36.0116 64.4883C35.7036 64.4883 35.4082 64.365 35.1905 64.1455C34.9727 63.9261 34.8503 63.6284 34.8503 63.318C34.8503 52.9994 43.1803 44.6048 53.4182 44.6048C63.6573 44.6048 71.9872 52.9994 71.9872 63.318C71.9872 63.6284 71.8649 63.9261 71.6471 64.1455C71.4293 64.365 71.1339 64.4883 70.8259 64.4883Z" fill="white"/>
<path d="M36 67.9829C35.692 67.9829 35.3966 67.8596 35.1788 67.6401C34.9611 67.4206 34.8387 67.1229 34.8387 66.8125V63.318C34.8387 63.0076 34.9611 62.71 35.1788 62.4905C35.3966 62.271 35.692 62.1477 36 62.1477C36.308 62.1477 36.6034 62.271 36.8212 62.4905C37.0389 62.71 37.1613 63.0076 37.1613 63.318V66.8125C37.1613 67.1229 37.0389 67.4206 36.8212 67.6401C36.6034 67.8596 36.308 67.9829 36 67.9829ZM70.8387 67.9829C70.5307 67.9829 70.2353 67.8596 70.0176 67.6401C69.7998 67.4206 69.6774 67.1229 69.6774 66.8125V63.318C69.6774 63.0076 69.7998 62.71 70.0176 62.4905C70.2353 62.271 70.5307 62.1477 70.8387 62.1477C71.1467 62.1477 71.4421 62.271 71.6599 62.4905C71.8777 62.71 72 63.0076 72 63.318V66.8125C72 67.1229 71.8777 67.4206 71.6599 67.6401C71.4421 67.8596 71.1467 67.9829 70.8387 67.9829ZM53.4194 46.9443C51.4986 46.9443 49.9355 45.3691 49.9355 43.4334C49.9355 41.4977 51.4986 39.9225 53.4194 39.9225C55.3401 39.9225 56.9032 41.4977 56.9032 43.4334C56.9032 45.3691 55.3401 46.9443 53.4194 46.9443ZM53.4194 42.2631C53.1114 42.2631 52.816 42.3864 52.5982 42.6058C52.3804 42.8253 52.2581 43.123 52.2581 43.4334C52.2581 43.7438 52.3804 44.0414 52.5982 44.2609C52.816 44.4804 53.1114 44.6037 53.4194 44.6037C53.7274 44.6037 54.0227 44.4804 54.2405 44.2609C54.4583 44.0414 54.5806 43.7438 54.5806 43.4334C54.5806 43.123 54.4583 42.8253 54.2405 42.6058C54.0227 42.3864 53.7274 42.2631 53.4194 42.2631ZM68.5161 72.6664H38.3226C38.0146 72.6664 37.7192 72.5431 37.5014 72.3236C37.2836 72.1042 37.1613 71.8065 37.1613 71.4961C37.1613 71.1857 37.2836 70.888 37.5014 70.6686C37.7192 70.4491 38.0146 70.3258 38.3226 70.3258H68.5161C68.8241 70.3258 69.1195 70.4491 69.3373 70.6686C69.5551 70.888 69.6774 71.1857 69.6774 71.4961C69.6774 71.8065 69.5551 72.1042 69.3373 72.3236C69.1195 72.5431 68.8241 72.6664 68.5161 72.6664Z" fill="white"/>
</svg>
