<svg width="73" height="81" viewBox="0 0 73 81" fill="none" xmlns="http://www.w3.org/2000/svg">
<path d="M56.25 80.6975H1.25C0.918479 80.6975 0.600537 80.5648 0.366116 80.3285C0.131696 80.0923 0 79.7719 0 79.4378V16.4526C0 16.1185 0.131696 15.7981 0.366116 15.5619C0.600537 15.3256 0.918479 15.1929 1.25 15.1929H56.25C56.5815 15.1929 56.8995 15.3256 57.1339 15.5619C57.3683 15.7981 57.5 16.1185 57.5 16.4526V79.4378C57.5 79.7719 57.3683 80.0923 57.1339 80.3285C56.8995 80.5648 56.5815 80.6975 56.25 80.6975ZM2.5 78.1781H55V17.7123H2.5V78.1781Z" fill="white"/>
<path d="M71.25 80.6975H56.25C55.9185 80.6975 55.6005 80.5648 55.3661 80.3285C55.1317 80.0923 55 79.7719 55 79.4378V16.4526C55 16.1185 55.1317 15.7981 55.3661 15.5619C55.6005 15.3256 55.9185 15.1929 56.25 15.1929H71.25C71.5815 15.1929 71.8995 15.3256 72.1339 15.5619C72.3683 15.7981 72.5 16.1185 72.5 16.4526V79.4378C72.5 79.7719 72.3683 80.0923 72.1339 80.3285C71.8995 80.5648 71.5815 80.6975 71.25 80.6975ZM57.5 78.1781H70V17.7123H57.5V78.1781ZM38.75 12.6735C38.4185 12.6735 38.1005 12.5408 37.8661 12.3045C37.6317 12.0683 37.5 11.7479 37.5 11.4138C37.5 6.55261 33.5738 2.59588 28.75 2.59588C23.9263 2.59588 20 6.55261 20 11.4138C20 11.7479 19.8683 12.0683 19.6339 12.3045C19.3995 12.5408 19.0815 12.6735 18.75 12.6735C18.4185 12.6735 18.1005 12.5408 17.8661 12.3045C17.6317 12.0683 17.5 11.7479 17.5 11.4138C17.5 5.1619 22.5463 0.0764771 28.75 0.0764771C34.9538 0.0764771 40 5.1619 40 11.4138C40 11.7479 39.8683 12.0683 39.6339 12.3045C39.3995 12.5408 39.0815 12.6735 38.75 12.6735Z" fill="white"/>
<path d="M18.75 26.5302C18.4185 26.5302 18.1005 26.3975 17.8661 26.1613C17.6317 25.925 17.5 25.6046 17.5 25.2705V11.4138C17.5 11.0797 17.6317 10.7593 17.8661 10.5231C18.1005 10.2868 18.4185 10.1541 18.75 10.1541C19.0815 10.1541 19.3995 10.2868 19.6339 10.5231C19.8683 10.7593 20 11.0797 20 11.4138V25.2705C20 25.6046 19.8683 25.925 19.6339 26.1613C19.3995 26.3975 19.0815 26.5302 18.75 26.5302ZM38.75 26.5302C38.4185 26.5302 38.1005 26.3975 37.8661 26.1613C37.6317 25.925 37.5 25.6046 37.5 25.2705V11.4138C37.5 11.0797 37.6317 10.7593 37.8661 10.5231C38.1005 10.2868 38.4185 10.1541 38.75 10.1541C39.0815 10.1541 39.3995 10.2868 39.6339 10.5231C39.8683 10.7593 40 11.0797 40 11.4138V25.2705C40 25.6046 39.8683 25.925 39.6339 26.1613C39.3995 26.3975 39.0815 26.5302 38.75 26.5302Z" fill="white"/>
<path d="M53.75 12.6735C53.4185 12.6735 53.1005 12.5408 52.8661 12.3045C52.6317 12.0683 52.5 11.7479 52.5 11.4138C52.5 6.55261 48.5738 2.59588 43.75 2.59588C38.9263 2.59588 35 6.55261 35 11.4138C35 11.7479 34.8683 12.0683 34.6339 12.3045C34.3995 12.5408 34.0815 12.6735 33.75 12.6735C33.4185 12.6735 33.1005 12.5408 32.8661 12.3045C32.6317 12.0683 32.5 11.7479 32.5 11.4138C32.5 5.1619 37.5463 0.0764771 43.75 0.0764771C49.9538 0.0764771 55 5.1619 55 11.4138C55 11.7479 54.8683 12.0683 54.6339 12.3045C54.3995 12.5408 54.0815 12.6735 53.75 12.6735Z" fill="white"/>
<path d="M33.75 17.7123C33.4185 17.7123 33.1005 17.5796 32.8661 17.3434C32.6317 17.1071 32.5 16.7867 32.5 16.4526V11.4138C32.5 11.0797 32.6317 10.7593 32.8661 10.5231C33.1005 10.2868 33.4185 10.1541 33.75 10.1541C34.0815 10.1541 34.3995 10.2868 34.6339 10.5231C34.8683 10.7593 35 11.0797 35 11.4138V16.4526C35 16.7867 34.8683 17.1071 34.6339 17.3434C34.3995 17.5796 34.0815 17.7123 33.75 17.7123ZM53.75 17.7123C53.4185 17.7123 53.1005 17.5796 52.8661 17.3434C52.6317 17.1071 52.5 16.7867 52.5 16.4526V11.4138C52.5 11.0797 52.6317 10.7593 52.8661 10.5231C53.1005 10.2868 53.4185 10.1541 53.75 10.1541C54.0815 10.1541 54.3995 10.2868 54.6339 10.5231C54.8683 10.7593 55 11.0797 55 11.4138V16.4526C55 16.7867 54.8683 17.1071 54.6339 17.3434C54.3995 17.5796 54.0815 17.7123 53.75 17.7123ZM63.75 74.399C63.4185 74.399 63.1005 74.2663 62.8661 74.03C62.6317 73.7938 62.5 73.4734 62.5 73.1393V16.4526C62.5 16.1185 62.6317 15.7981 62.8661 15.5619C63.1005 15.3256 63.4185 15.1929 63.75 15.1929C64.0815 15.1929 64.3995 15.3256 64.6339 15.5619C64.8683 15.7981 65 16.1185 65 16.4526V73.1393C65 73.4734 64.8683 73.7938 64.6339 74.03C64.3995 74.2663 64.0815 74.399 63.75 74.399Z" fill="white"/>
<path d="M56.25 80.6975C55.993 80.6979 55.7428 80.6186 55.5322 80.4701C55.3216 80.3216 55.1616 80.1113 55.0738 79.8679C54.9861 79.6244 54.975 79.3596 55.042 79.1096C55.109 78.8595 55.2508 78.6363 55.4482 78.4705L62.9482 72.1719C63.2044 71.9713 63.5279 71.8788 63.8505 71.9139C64.1731 71.9491 64.4695 72.1091 64.6772 72.3603C64.8849 72.6114 64.9877 72.9341 64.9639 73.2602C64.9401 73.5863 64.7915 73.8903 64.5495 74.1081L57.0495 80.4066C56.8252 80.5949 56.5418 80.6977 56.25 80.6975Z" fill="white"/>
<path d="M71.2483 80.6976C70.9658 80.6976 70.6833 80.6019 70.4483 80.4066L62.9483 74.1081C62.7063 73.8903 62.5577 73.5863 62.5339 73.2602C62.5101 72.9341 62.6129 72.6114 62.8206 72.3603C63.0283 72.1091 63.3247 71.9491 63.6473 71.9139C63.9699 71.8788 64.2934 71.9713 64.5496 72.1719L72.0496 78.4705C72.2462 78.6366 72.3873 78.8596 72.4539 79.1093C72.5205 79.3591 72.5093 79.6234 72.4219 79.8664C72.3344 80.1095 72.175 80.3196 71.965 80.4683C71.7551 80.617 71.5049 80.697 71.2483 80.6976Z" fill="white"/>
<path d="M18.7551 50.4683C16.6876 50.4683 15.0051 48.7727 15.0051 46.6892C15.0051 46.3551 15.1368 46.0347 15.3712 45.7984C15.6056 45.5622 15.9236 45.4295 16.2551 45.4295C16.5866 45.4295 16.9045 45.5622 17.139 45.7984C17.3734 46.0347 17.5051 46.3551 17.5051 46.6892C17.5051 47.0233 17.6368 47.3437 17.8712 47.5799C18.1056 47.8162 18.4236 47.9489 18.7551 47.9489C19.0866 47.9489 19.4045 48.0816 19.639 48.3178C19.8734 48.5541 20.0051 48.8745 20.0051 49.2086C20.0051 49.5427 19.8734 49.8631 19.639 50.0993C19.4045 50.3356 19.0866 50.4683 18.7551 50.4683ZM25.0088 50.4683C24.6773 50.4683 24.3594 50.3356 24.1249 50.0993C23.8905 49.8631 23.7588 49.5427 23.7588 49.2086C23.7588 48.8745 23.8905 48.5541 24.1249 48.3178C24.3594 48.0816 24.6773 47.9489 25.0088 47.9489C25.3403 47.9489 25.6583 47.8162 25.8927 47.5799C26.1271 47.3437 26.2588 47.0233 26.2588 46.6892C26.2588 46.3551 26.3905 46.0347 26.6249 45.7984C26.8594 45.5622 27.1773 45.4295 27.5088 45.4295C27.8403 45.4295 28.1583 45.5622 28.3927 45.7984C28.6271 46.0347 28.7588 46.3551 28.7588 46.6892C28.7588 48.7727 27.0763 50.4683 25.0088 50.4683Z" fill="white"/>
<path d="M16.2551 47.9487C15.9236 47.9487 15.6056 47.816 15.3712 47.5798C15.1368 47.3435 15.0051 47.0233 15.0051 46.6892V34.0845C15.0051 33.7504 15.1368 33.43 15.3712 33.1937C15.6056 32.9575 15.9236 32.8247 16.2551 32.8247C16.5866 32.8247 16.9045 32.9575 17.139 33.1937C17.3734 33.43 17.5051 33.7504 17.5051 34.0845V46.6892C17.5051 47.0233 17.3734 47.3435 17.139 47.5798C16.9045 47.816 16.5866 47.9487 16.2551 47.9487ZM27.5088 47.9487C27.1773 47.9487 26.8594 47.816 26.6249 47.5798C26.3905 47.3435 26.2588 47.0233 26.2588 46.6892V34.0845C26.2588 33.7504 26.3905 33.43 26.6249 33.1937C26.8594 32.9575 27.1773 32.8247 27.5088 32.8247C27.8403 32.8247 28.1583 32.9575 28.3927 33.1937C28.6271 33.43 28.7588 33.7504 28.7588 34.0845V46.6892C28.7588 47.0233 28.6271 47.3435 28.3927 47.5798C28.1583 47.816 27.8403 47.9487 27.5088 47.9487ZM20.0051 45.4268C19.6736 45.4268 19.3556 45.2941 19.1212 45.0579C18.8868 44.8216 18.7551 44.5012 18.7551 44.1671V34.0845C18.7551 33.7504 18.8868 33.43 19.1212 33.1937C19.3556 32.9575 19.6736 32.8247 20.0051 32.8247C20.3366 32.8247 20.6545 32.9575 20.889 33.1937C21.1234 33.43 21.2551 33.7504 21.2551 34.0845V44.1671C21.2551 44.5012 21.1234 44.8216 20.889 45.0579C20.6545 45.2941 20.3366 45.4268 20.0051 45.4268ZM23.7588 45.4268C23.4273 45.4268 23.1094 45.2941 22.8749 45.0579C22.6405 44.8216 22.5088 44.5012 22.5088 44.1671V34.0845C22.5088 33.7504 22.6405 33.43 22.8749 33.1937C23.1094 32.9575 23.4273 32.8247 23.7588 32.8247C24.0903 32.8247 24.4083 32.9575 24.6427 33.1937C24.8771 33.43 25.0088 33.7504 25.0088 34.0845V44.1671C25.0088 44.5012 24.8771 44.8216 24.6427 45.0579C24.4083 45.2941 24.0903 45.4268 23.7588 45.4268Z" fill="white"/>
<path d="M27.5088 45.427H16.2551C15.9236 45.427 15.6056 45.2943 15.3712 45.0581C15.1368 44.8218 15.0051 44.5014 15.0051 44.1673C15.0051 43.8332 15.1368 43.5128 15.3712 43.2766C15.6056 43.0403 15.9236 42.9076 16.2551 42.9076H27.5088C27.8403 42.9076 28.1583 43.0403 28.3927 43.2766C28.6271 43.5128 28.7588 43.8332 28.7588 44.1673C28.7588 44.5014 28.6271 44.8218 28.3927 45.0581C28.1583 45.2943 27.8403 45.427 27.5088 45.427ZM25.0088 50.4683H18.7551C18.4236 50.4683 18.1056 50.3356 17.8712 50.0994C17.6368 49.8631 17.5051 49.5427 17.5051 49.2086C17.5051 48.8745 17.6368 48.5541 17.8712 48.3179C18.1056 48.0817 18.4236 47.9489 18.7551 47.9489H25.0088C25.3403 47.9489 25.6583 48.0817 25.8927 48.3179C26.1271 48.5541 26.2588 48.8745 26.2588 49.2086C26.2588 49.5427 26.1271 49.8631 25.8927 50.0994C25.6583 50.3356 25.3403 50.4683 25.0088 50.4683Z" fill="white"/>
<path d="M20.0051 71.2545C19.6736 71.2545 19.3556 71.1217 19.1212 70.8855C18.8868 70.6493 18.7551 70.3288 18.7551 69.9948V49.2034C18.7551 48.8693 18.8868 48.5488 19.1212 48.3126C19.3556 48.0764 19.6736 47.9436 20.0051 47.9436C20.3366 47.9436 20.6545 48.0764 20.889 48.3126C21.1234 48.5488 21.2551 48.8693 21.2551 49.2034V69.9948C21.2551 70.3288 21.1234 70.6493 20.889 70.8855C20.6545 71.1217 20.3366 71.2545 20.0051 71.2545ZM23.7588 71.2545C23.4273 71.2545 23.1094 71.1217 22.8749 70.8855C22.6405 70.6493 22.5088 70.3288 22.5088 69.9948V49.2034C22.5088 48.8693 22.6405 48.5488 22.8749 48.3126C23.1094 48.0764 23.4273 47.9436 23.7588 47.9436C24.0903 47.9436 24.4083 48.0764 24.6427 48.3126C24.8771 48.5488 25.0088 48.8693 25.0088 49.2034V69.9948C25.0088 70.3288 24.8771 70.6493 24.6427 70.8855C24.4083 71.1217 24.0903 71.2545 23.7588 71.2545Z" fill="white"/>
<path d="M21.8826 73.1454C21.0535 73.1448 20.2586 72.8127 19.6723 72.222C19.0859 71.6313 18.7561 70.8302 18.7551 69.9948C18.7551 69.6607 18.8868 69.3404 19.1212 69.1042C19.3556 68.8679 19.6736 68.7352 20.0051 68.7352C20.3366 68.7352 20.6545 68.8679 20.889 69.1042C21.1234 69.3404 21.2551 69.6607 21.2551 69.9948C21.2673 70.1539 21.3386 70.3026 21.4549 70.411C21.5711 70.5194 21.7236 70.5796 21.882 70.5796C22.0403 70.5796 22.1928 70.5194 22.309 70.411C22.4253 70.3026 22.4966 70.1539 22.5088 69.9948C22.5088 69.6607 22.6405 69.3404 22.8749 69.1042C23.1094 68.8679 23.4273 68.7352 23.7588 68.7352C24.0903 68.7352 24.4083 68.8679 24.6427 69.1042C24.8771 69.3404 25.0088 69.6607 25.0088 69.9948C25.0078 70.83 24.6781 71.6309 24.0921 72.2216C23.506 72.8122 22.7114 73.1444 21.8826 73.1454Z" fill="white"/>
<path d="M33.7468 71.2548C33.4153 71.2548 33.0973 71.122 32.8629 70.8858C32.6285 70.6496 32.4968 70.3291 32.4968 69.9951V34.0897C32.4968 33.7556 32.6285 33.4352 32.8629 33.199C33.0973 32.9627 33.4153 32.83 33.7468 32.83C34.0783 32.83 34.3962 32.9627 34.6307 33.199C34.8651 33.4352 34.9968 33.7556 34.9968 34.0897V69.9951C34.9968 70.3291 34.8651 70.6496 34.6307 70.8858C34.3962 71.122 34.0783 71.2548 33.7468 71.2548Z" fill="white"/>
<path d="M37.5002 71.2546C37.1687 71.2546 36.8507 71.1219 36.6163 70.8857C36.3819 70.6494 36.2502 70.329 36.2502 69.9949V55.5083C36.2502 55.1742 36.3819 54.8538 36.6163 54.6176C36.8507 54.3813 37.1687 54.2486 37.5002 54.2486C37.8317 54.2486 38.1497 54.3813 38.3841 54.6176C38.6185 54.8538 38.7502 55.1742 38.7502 55.5083V69.9949C38.7502 70.329 38.6185 70.6494 38.3841 70.8857C38.1497 71.1219 37.8317 71.2546 37.5002 71.2546Z" fill="white"/>
<path d="M35.6243 73.1454C34.7952 73.1448 34.0003 72.8127 33.414 72.222C32.8276 71.6313 32.4978 70.8305 32.4968 69.9951C32.4968 69.661 32.6285 69.3404 32.8629 69.1042C33.0973 68.8679 33.4153 68.7352 33.7468 68.7352C34.0783 68.7352 34.3962 68.8679 34.6307 69.1042C34.8651 69.3404 34.9968 69.661 34.9968 69.9951C35.009 70.1542 35.0803 70.3026 35.1966 70.411C35.3128 70.5194 35.4653 70.5796 35.6237 70.5796C35.782 70.5796 35.9345 70.5194 36.0507 70.411C36.167 70.3026 36.238 70.154 36.2502 69.9949C36.2502 69.6608 36.3822 69.3404 36.6166 69.1042C36.8511 68.8679 37.169 68.7352 37.5005 68.7352C37.832 68.7352 38.15 68.8679 38.3844 69.1042C38.6188 69.3404 38.7502 69.6608 38.7502 69.9949C38.7492 70.8302 38.4198 71.6309 37.8338 72.2216C37.2477 72.8122 36.4531 73.1444 35.6243 73.1454Z" fill="white"/>
<path d="M42.4968 56.768H33.7468C33.4153 56.768 33.0973 56.6353 32.8629 56.3991C32.6285 56.1628 32.4968 55.8424 32.4968 55.5083C32.4968 55.1742 32.6285 54.8538 32.8629 54.6176C33.0973 54.3813 33.4153 54.2486 33.7468 54.2486H42.4968C42.8283 54.2486 43.1462 54.3813 43.3807 54.6176C43.6151 54.8538 43.7468 55.1742 43.7468 55.5083C43.7468 55.8424 43.6151 56.1628 43.3807 56.3991C43.1462 56.6353 42.8283 56.768 42.4968 56.768Z" fill="white"/>
<path d="M42.4968 44.1584C42.1653 44.1584 41.8473 44.0257 41.6129 43.7894C41.3785 43.5532 41.2468 43.2328 41.2468 42.8987C41.2468 38.7303 37.883 35.3405 33.7468 35.3405C33.4153 35.3405 33.0973 35.2077 32.8629 34.9715C32.6285 34.7353 32.4968 34.4148 32.4968 34.0807C32.4968 33.7467 32.6285 33.4262 32.8629 33.19C33.0973 32.9538 33.4153 32.821 33.7468 32.821C39.2605 32.821 43.7468 37.3421 43.7468 42.8987C43.7468 43.2328 43.6151 43.5532 43.3807 43.7894C43.1462 44.0257 42.8283 44.1584 42.4968 44.1584Z" fill="white"/>
<path d="M42.4968 56.768C42.1653 56.768 41.8473 56.6353 41.6129 56.399C41.3785 56.1628 41.2468 55.8424 41.2468 55.5083L41.2468 42.8987C41.2468 42.5646 41.3785 42.2442 41.6129 42.0079C41.8473 41.7717 42.1653 41.639 42.4968 41.639C42.8283 41.639 43.1462 41.7717 43.3807 42.0079C43.6151 42.2442 43.7468 42.5646 43.7468 42.8987V55.5083C43.7468 55.8424 43.6151 56.1628 43.3807 56.3991C43.1462 56.6353 42.8283 56.768 42.4968 56.768Z" fill="white"/>
</svg>
